solid OpenSCAD_Model
  facet normal 1 -0 0
    outer loop
      vertex -35.35 1 13
      vertex -35.35 86 1
      vertex -35.35 86 13
    endloop
  endfacet
  facet normal 1 0 0
    outer loop
      vertex -35.35 86 1
      vertex -35.35 1 13
      vertex -35.35 1 1
    endloop
  endfacet
  facet normal -0 0 1
    outer loop
      vertex -38.35 86 13
      vertex -35.35 1 13
      vertex -35.35 86 13
    endloop
  endfacet
  facet normal 0 0 1
    outer loop
      vertex -35.35 1 13
      vertex -38.35 86 13
      vertex -38.35 1 13
    endloop
  endfacet
  facet normal -0 0 1
    outer loop
      vertex -35.35 86 1
      vertex 35.35 1 1
      vertex 35.35 86 1
    endloop
  endfacet
  facet normal 0 0 1
    outer loop
      vertex 35.35 1 1
      vertex -35.35 86 1
      vertex -35.35 1 1
    endloop
  endfacet
  facet normal -1 0 0
    outer loop
      vertex -39.35 0 0
      vertex -39.35 86 15.7
      vertex -39.35 86 0
    endloop
  endfacet
  facet normal -1 -0 0
    outer loop
      vertex -39.35 86 15.7
      vertex -39.35 0 0
      vertex -39.35 0 15.7
    endloop
  endfacet
  facet normal 0 1 0
    outer loop
      vertex 39.35 86 15.7
      vertex 38.35 86 14.7
      vertex 35.35 86 15.7
    endloop
  endfacet
  facet normal 0 1 0
    outer loop
      vertex 39.35 86 15.7
      vertex 38.35 86 13
      vertex 38.35 86 14.7
    endloop
  endfacet
  facet normal 0 1 0
    outer loop
      vertex 38.35 86 13
      vertex 35.35 86 1
      vertex 35.35 86 13
    endloop
  endfacet
  facet normal 0 1 -0
    outer loop
      vertex 39.35 86 0
      vertex 38.35 86 13
      vertex 39.35 86 15.7
    endloop
  endfacet
  facet normal 0 1 0
    outer loop
      vertex 35.35 86 1
      vertex 39.35 86 0
      vertex -35.35 86 1
    endloop
  endfacet
  facet normal 0 1 0
    outer loop
      vertex 38.35 86 13
      vertex 39.35 86 0
      vertex 35.35 86 1
    endloop
  endfacet
  facet normal 0 1 0
    outer loop
      vertex 35.35 86 15.7
      vertex 38.35 86 14.7
      vertex 35.35 86 14.7
    endloop
  endfacet
  facet normal 0 1 0
    outer loop
      vertex -35.35 86 13
      vertex -35.35 86 1
      vertex -38.35 86 13
    endloop
  endfacet
  facet normal 0 1 0
    outer loop
      vertex -38.35 86 14.7
      vertex -35.35 86 15.7
      vertex -35.35 86 14.7
    endloop
  endfacet
  facet normal 0 1 0
    outer loop
      vertex -35.35 86 15.7
      vertex -38.35 86 14.7
      vertex -39.35 86 15.7
    endloop
  endfacet
  facet normal 0 1 -0
    outer loop
      vertex -38.35 86 13
      vertex -39.35 86 15.7
      vertex -38.35 86 14.7
    endloop
  endfacet
  facet normal 0 1 0
    outer loop
      vertex -39.35 86 0
      vertex -38.35 86 13
      vertex -35.35 86 1
    endloop
  endfacet
  facet normal 0 1 0
    outer loop
      vertex -38.35 86 13
      vertex -39.35 86 0
      vertex -39.35 86 15.7
    endloop
  endfacet
  facet normal 0 1 0
    outer loop
      vertex -39.35 86 0
      vertex -35.35 86 1
      vertex 39.35 86 0
    endloop
  endfacet
  facet normal 0 1 -0
    outer loop
      vertex 35.35 1 1
      vertex -35.35 1 13
      vertex 35.35 1 13
    endloop
  endfacet
  facet normal 0 1 0
    outer loop
      vertex -35.35 1 13
      vertex 35.35 1 1
      vertex -35.35 1 1
    endloop
  endfacet
  facet normal 0 1 0
    outer loop
      vertex 35.35 1 13
      vertex 35.35 1 14.7
      vertex 38.35 1 14.7
    endloop
  endfacet
  facet normal 0 1 0
    outer loop
      vertex 35.35 1 14.7
      vertex 35.35 1 13
      vertex -35.35 1 14.7
    endloop
  endfacet
  facet normal 0 1 0
    outer loop
      vertex 35.35 1 13
      vertex 38.35 1 14.7
      vertex 38.35 1 13
    endloop
  endfacet
  facet normal 0 1 0
    outer loop
      vertex -35.35 1 13
      vertex -35.35 1 14.7
      vertex 35.35 1 13
    endloop
  endfacet
  facet normal 0 1 0
    outer loop
      vertex -35.35 1 14.7
      vertex -35.35 1 13
      vertex -38.35 1 14.7
    endloop
  endfacet
  facet normal 0 1 0
    outer loop
      vertex -38.35 1 14.7
      vertex -35.35 1 13
      vertex -38.35 1 13
    endloop
  endfacet
  facet normal 0 1 -0
    outer loop
      vertex 35.35 1 14.7
      vertex -35.35 1 15.7
      vertex 35.35 1 15.7
    endloop
  endfacet
  facet normal 0 1 0
    outer loop
      vertex -35.35 1 15.7
      vertex 35.35 1 14.7
      vertex -35.35 1 14.7
    endloop
  endfacet
  facet normal 1 -0 0
    outer loop
      vertex -38.35 1 14.7
      vertex -38.35 86 13
      vertex -38.35 86 14.7
    endloop
  endfacet
  facet normal 1 0 0
    outer loop
      vertex -38.35 86 13
      vertex -38.35 1 14.7
      vertex -38.35 1 13
    endloop
  endfacet
  facet normal 0 0 -1
    outer loop
      vertex -38.35 1 14.7
      vertex -35.35 86 14.7
      vertex -35.35 1 14.7
    endloop
  endfacet
  facet normal -0 0 -1
    outer loop
      vertex -35.35 86 14.7
      vertex -38.35 1 14.7
      vertex -38.35 86 14.7
    endloop
  endfacet
  facet normal 1 -0 0
    outer loop
      vertex -35.35 1 15.7
      vertex -35.35 86 14.7
      vertex -35.35 86 15.7
    endloop
  endfacet
  facet normal 1 0 0
    outer loop
      vertex -35.35 86 14.7
      vertex -35.35 1 15.7
      vertex -35.35 1 14.7
    endloop
  endfacet
  facet normal 0 0 1
    outer loop
      vertex -35.35 86 15.7
      vertex -39.35 86 15.7
      vertex -35.35 1 15.7
    endloop
  endfacet
  facet normal 0 0 1
    outer loop
      vertex 35.35 1 15.7
      vertex 39.35 86 15.7
      vertex 35.35 86 15.7
    endloop
  endfacet
  facet normal 0 0 1
    outer loop
      vertex 39.35 86 15.7
      vertex 35.35 1 15.7
      vertex 39.35 0 15.7
    endloop
  endfacet
  facet normal -0 0 1
    outer loop
      vertex -35.35 1 15.7
      vertex 39.35 0 15.7
      vertex 35.35 1 15.7
    endloop
  endfacet
  facet normal 0 0 1
    outer loop
      vertex -35.35 1 15.7
      vertex -39.35 0 15.7
      vertex 39.35 0 15.7
    endloop
  endfacet
  facet normal 0 0 1
    outer loop
      vertex -39.35 0 15.7
      vertex -35.35 1 15.7
      vertex -39.35 86 15.7
    endloop
  endfacet
  facet normal -1 0 0
    outer loop
      vertex 35.35 1 1
      vertex 35.35 86 13
      vertex 35.35 86 1
    endloop
  endfacet
  facet normal -1 -0 0
    outer loop
      vertex 35.35 86 13
      vertex 35.35 1 1
      vertex 35.35 1 13
    endloop
  endfacet
  facet normal -0 0 1
    outer loop
      vertex 35.35 86 13
      vertex 38.35 1 13
      vertex 38.35 86 13
    endloop
  endfacet
  facet normal 0 0 1
    outer loop
      vertex 38.35 1 13
      vertex 35.35 86 13
      vertex 35.35 1 13
    endloop
  endfacet
  facet normal 1 -0 0
    outer loop
      vertex 39.35 0 15.7
      vertex 39.35 86 0
      vertex 39.35 86 15.7
    endloop
  endfacet
  facet normal 1 0 0
    outer loop
      vertex 39.35 86 0
      vertex 39.35 0 15.7
      vertex 39.35 0 0
    endloop
  endfacet
  facet normal -1 0 0
    outer loop
      vertex 38.35 1 13
      vertex 38.35 86 14.7
      vertex 38.35 86 13
    endloop
  endfacet
  facet normal -1 -0 0
    outer loop
      vertex 38.35 86 14.7
      vertex 38.35 1 13
      vertex 38.35 1 14.7
    endloop
  endfacet
  facet normal 0 0 -1
    outer loop
      vertex 35.35 1 14.7
      vertex 38.35 86 14.7
      vertex 38.35 1 14.7
    endloop
  endfacet
  facet normal -0 0 -1
    outer loop
      vertex 38.35 86 14.7
      vertex 35.35 1 14.7
      vertex 35.35 86 14.7
    endloop
  endfacet
  facet normal -1 0 0
    outer loop
      vertex 35.35 1 14.7
      vertex 35.35 86 15.7
      vertex 35.35 86 14.7
    endloop
  endfacet
  facet normal -1 -0 0
    outer loop
      vertex 35.35 86 15.7
      vertex 35.35 1 14.7
      vertex 35.35 1 15.7
    endloop
  endfacet
  facet normal 0 0 -1
    outer loop
      vertex -39.35 0 0
      vertex 39.35 86 0
      vertex 39.35 0 0
    endloop
  endfacet
  facet normal -0 0 -1
    outer loop
      vertex 39.35 86 0
      vertex -39.35 0 0
      vertex -39.35 86 0
    endloop
  endfacet
  facet normal 0 -1 0
    outer loop
      vertex -39.35 0 0
      vertex 39.35 0 15.7
      vertex -39.35 0 15.7
    endloop
  endfacet
  facet normal 0 -1 -0
    outer loop
      vertex 39.35 0 15.7
      vertex -39.35 0 0
      vertex 39.35 0 0
    endloop
  endfacet
endsolid OpenSCAD_Model
