solid OpenSCAD_Model
  facet normal 1 -0 0
    outer loop
      vertex -22.25 1 6
      vertex -22.25 71 1
      vertex -22.25 71 6
    endloop
  endfacet
  facet normal 1 0 0
    outer loop
      vertex -22.25 71 1
      vertex -22.25 1 6
      vertex -22.25 1 1
    endloop
  endfacet
  facet normal -0 0 1
    outer loop
      vertex -25.25 71 6
      vertex -22.25 1 6
      vertex -22.25 71 6
    endloop
  endfacet
  facet normal 0 0 1
    outer loop
      vertex -22.25 1 6
      vertex -25.25 71 6
      vertex -25.25 1 6
    endloop
  endfacet
  facet normal -0 0 1
    outer loop
      vertex -22.25 71 1
      vertex 22.25 1 1
      vertex 22.25 71 1
    endloop
  endfacet
  facet normal 0 0 1
    outer loop
      vertex 22.25 1 1
      vertex -22.25 71 1
      vertex -22.25 1 1
    endloop
  endfacet
  facet normal -1 0 0
    outer loop
      vertex -26.25 0 0
      vertex -26.25 71 9
      vertex -26.25 71 0
    endloop
  endfacet
  facet normal -1 -0 0
    outer loop
      vertex -26.25 71 9
      vertex -26.25 0 0
      vertex -26.25 0 9
    endloop
  endfacet
  facet normal 0 1 0
    outer loop
      vertex 26.25 71 9
      vertex 25.25 71 8
      vertex 22.25 71 9
    endloop
  endfacet
  facet normal 0 1 0
    outer loop
      vertex 26.25 71 9
      vertex 25.25 71 6
      vertex 25.25 71 8
    endloop
  endfacet
  facet normal 0 1 0
    outer loop
      vertex 25.25 71 6
      vertex 22.25 71 1
      vertex 22.25 71 6
    endloop
  endfacet
  facet normal 0 1 0
    outer loop
      vertex 22.25 71 1
      vertex 26.25 71 0
      vertex -22.25 71 1
    endloop
  endfacet
  facet normal 0 1 0
    outer loop
      vertex 25.25 71 6
      vertex 26.25 71 0
      vertex 22.25 71 1
    endloop
  endfacet
  facet normal 0 1 -0
    outer loop
      vertex 26.25 71 0
      vertex 25.25 71 6
      vertex 26.25 71 9
    endloop
  endfacet
  facet normal 0 1 0
    outer loop
      vertex 22.25 71 9
      vertex 25.25 71 8
      vertex 22.25 71 8
    endloop
  endfacet
  facet normal 0 1 0
    outer loop
      vertex -22.25 71 6
      vertex -22.25 71 1
      vertex -25.25 71 6
    endloop
  endfacet
  facet normal 0 1 0
    outer loop
      vertex -25.25 71 8
      vertex -22.25 71 9
      vertex -22.25 71 8
    endloop
  endfacet
  facet normal 0 1 0
    outer loop
      vertex -22.25 71 9
      vertex -25.25 71 8
      vertex -26.25 71 9
    endloop
  endfacet
  facet normal 0 1 -0
    outer loop
      vertex -25.25 71 6
      vertex -26.25 71 9
      vertex -25.25 71 8
    endloop
  endfacet
  facet normal 0 1 0
    outer loop
      vertex -25.25 71 6
      vertex -26.25 71 0
      vertex -26.25 71 9
    endloop
  endfacet
  facet normal 0 1 0
    outer loop
      vertex -22.25 71 1
      vertex -26.25 71 0
      vertex -25.25 71 6
    endloop
  endfacet
  facet normal 0 1 0
    outer loop
      vertex -26.25 71 0
      vertex -22.25 71 1
      vertex 26.25 71 0
    endloop
  endfacet
  facet normal 0 1 -0
    outer loop
      vertex 22.25 1 1
      vertex -22.25 1 6
      vertex 22.25 1 6
    endloop
  endfacet
  facet normal 0 1 0
    outer loop
      vertex -22.25 1 6
      vertex 22.25 1 1
      vertex -22.25 1 1
    endloop
  endfacet
  facet normal 0 1 0
    outer loop
      vertex 22.25 1 6
      vertex 22.25 1 8
      vertex 25.25 1 8
    endloop
  endfacet
  facet normal 0 1 0
    outer loop
      vertex 22.25 1 8
      vertex 22.25 1 6
      vertex -22.25 1 8
    endloop
  endfacet
  facet normal 0 1 0
    outer loop
      vertex 22.25 1 6
      vertex 25.25 1 8
      vertex 25.25 1 6
    endloop
  endfacet
  facet normal 0 1 0
    outer loop
      vertex -22.25 1 6
      vertex -22.25 1 8
      vertex 22.25 1 6
    endloop
  endfacet
  facet normal 0 1 0
    outer loop
      vertex -22.25 1 8
      vertex -22.25 1 6
      vertex -25.25 1 8
    endloop
  endfacet
  facet normal 0 1 0
    outer loop
      vertex -25.25 1 8
      vertex -22.25 1 6
      vertex -25.25 1 6
    endloop
  endfacet
  facet normal 0 1 -0
    outer loop
      vertex 22.25 1 8
      vertex -22.25 1 9
      vertex 22.25 1 9
    endloop
  endfacet
  facet normal 0 1 0
    outer loop
      vertex -22.25 1 9
      vertex 22.25 1 8
      vertex -22.25 1 8
    endloop
  endfacet
  facet normal 1 -0 0
    outer loop
      vertex -25.25 1 8
      vertex -25.25 71 6
      vertex -25.25 71 8
    endloop
  endfacet
  facet normal 1 0 0
    outer loop
      vertex -25.25 71 6
      vertex -25.25 1 8
      vertex -25.25 1 6
    endloop
  endfacet
  facet normal 0 0 -1
    outer loop
      vertex -25.25 1 8
      vertex -22.25 71 8
      vertex -22.25 1 8
    endloop
  endfacet
  facet normal -0 0 -1
    outer loop
      vertex -22.25 71 8
      vertex -25.25 1 8
      vertex -25.25 71 8
    endloop
  endfacet
  facet normal 1 -0 0
    outer loop
      vertex -22.25 1 9
      vertex -22.25 71 8
      vertex -22.25 71 9
    endloop
  endfacet
  facet normal 1 0 0
    outer loop
      vertex -22.25 71 8
      vertex -22.25 1 9
      vertex -22.25 1 8
    endloop
  endfacet
  facet normal 0 0 1
    outer loop
      vertex -22.25 71 9
      vertex -26.25 71 9
      vertex -22.25 1 9
    endloop
  endfacet
  facet normal 0 0 1
    outer loop
      vertex 22.25 1 9
      vertex 26.25 71 9
      vertex 22.25 71 9
    endloop
  endfacet
  facet normal 0 0 1
    outer loop
      vertex 26.25 71 9
      vertex 22.25 1 9
      vertex 26.25 0 9
    endloop
  endfacet
  facet normal -0 0 1
    outer loop
      vertex -22.25 1 9
      vertex 26.25 0 9
      vertex 22.25 1 9
    endloop
  endfacet
  facet normal 0 0 1
    outer loop
      vertex -22.25 1 9
      vertex -26.25 0 9
      vertex 26.25 0 9
    endloop
  endfacet
  facet normal 0 0 1
    outer loop
      vertex -26.25 0 9
      vertex -22.25 1 9
      vertex -26.25 71 9
    endloop
  endfacet
  facet normal -1 0 0
    outer loop
      vertex 22.25 1 1
      vertex 22.25 71 6
      vertex 22.25 71 1
    endloop
  endfacet
  facet normal -1 -0 0
    outer loop
      vertex 22.25 71 6
      vertex 22.25 1 1
      vertex 22.25 1 6
    endloop
  endfacet
  facet normal -0 0 1
    outer loop
      vertex 22.25 71 6
      vertex 25.25 1 6
      vertex 25.25 71 6
    endloop
  endfacet
  facet normal 0 0 1
    outer loop
      vertex 25.25 1 6
      vertex 22.25 71 6
      vertex 22.25 1 6
    endloop
  endfacet
  facet normal 1 -0 0
    outer loop
      vertex 26.25 0 9
      vertex 26.25 71 0
      vertex 26.25 71 9
    endloop
  endfacet
  facet normal 1 0 0
    outer loop
      vertex 26.25 71 0
      vertex 26.25 0 9
      vertex 26.25 0 0
    endloop
  endfacet
  facet normal -1 0 0
    outer loop
      vertex 25.25 1 6
      vertex 25.25 71 8
      vertex 25.25 71 6
    endloop
  endfacet
  facet normal -1 -0 0
    outer loop
      vertex 25.25 71 8
      vertex 25.25 1 6
      vertex 25.25 1 8
    endloop
  endfacet
  facet normal 0 0 -1
    outer loop
      vertex 22.25 1 8
      vertex 25.25 71 8
      vertex 25.25 1 8
    endloop
  endfacet
  facet normal -0 0 -1
    outer loop
      vertex 25.25 71 8
      vertex 22.25 1 8
      vertex 22.25 71 8
    endloop
  endfacet
  facet normal -1 0 0
    outer loop
      vertex 22.25 1 8
      vertex 22.25 71 9
      vertex 22.25 71 8
    endloop
  endfacet
  facet normal -1 -0 0
    outer loop
      vertex 22.25 71 9
      vertex 22.25 1 8
      vertex 22.25 1 9
    endloop
  endfacet
  facet normal 0 0 -1
    outer loop
      vertex -26.25 0 0
      vertex 26.25 71 0
      vertex 26.25 0 0
    endloop
  endfacet
  facet normal -0 0 -1
    outer loop
      vertex 26.25 71 0
      vertex -26.25 0 0
      vertex -26.25 71 0
    endloop
  endfacet
  facet normal 0 -1 0
    outer loop
      vertex -26.25 0 0
      vertex 26.25 0 9
      vertex -26.25 0 9
    endloop
  endfacet
  facet normal 0 -1 -0
    outer loop
      vertex 26.25 0 9
      vertex -26.25 0 0
      vertex 26.25 0 0
    endloop
  endfacet
endsolid OpenSCAD_Model
