  0
SECTION
  2
BLOCKS
  0
ENDSEC
  0
SECTION
  2
ENTITIES
  0
LINE
  8
0
 10
0
 20
-15.4833
 11
6
 21
-15.4833
  0
LINE
  8
0
 10
6
 20
-15.4833
 11
6
 21
-23
  0
LINE
  8
0
 10
6
 20
-23
 11
356
 21
-23
  0
LINE
  8
0
 10
356
 20
-23
 11
356
 21
-15.4833
  0
LINE
  8
0
 10
356
 20
-15.4833
 11
362
 21
-15.4833
  0
LINE
  8
0
 10
362
 20
-15.4833
 11
362
 21
-7.51667
  0
LINE
  8
0
 10
362
 20
-7.51667
 11
356
 21
-7.51667
  0
LINE
  8
0
 10
356
 20
-7.51667
 11
356
 21
0
  0
LINE
  8
0
 10
356
 20
0
 11
348.664
 21
0
  0
LINE
  8
0
 10
348.664
 20
0
 11
348.664
 21
-6
  0
LINE
  8
0
 10
348.664
 20
-6
 11
340.778
 21
-6
  0
LINE
  8
0
 10
340.778
 20
-6
 11
340.778
 21
0
  0
LINE
  8
0
 10
340.778
 20
0
 11
332.292
 21
0
  0
LINE
  8
0
 10
332.292
 20
0
 11
332.292
 21
-6
  0
LINE
  8
0
 10
332.292
 20
-6
 11
324.406
 21
-6
  0
LINE
  8
0
 10
324.406
 20
-6
 11
324.406
 21
0
  0
LINE
  8
0
 10
324.406
 20
0
 11
315.92
 21
0
  0
LINE
  8
0
 10
315.92
 20
0
 11
315.92
 21
-6
  0
LINE
  8
0
 10
315.92
 20
-6
 11
308.034
 21
-6
  0
LINE
  8
0
 10
308.034
 20
-6
 11
308.034
 21
0
  0
LINE
  8
0
 10
308.034
 20
0
 11
299.548
 21
0
  0
LINE
  8
0
 10
299.548
 20
0
 11
299.548
 21
-6
  0
LINE
  8
0
 10
299.548
 20
-6
 11
291.662
 21
-6
  0
LINE
  8
0
 10
291.662
 20
-6
 11
291.662
 21
0
  0
LINE
  8
0
 10
291.662
 20
0
 11
283.176
 21
0
  0
LINE
  8
0
 10
283.176
 20
0
 11
283.176
 21
-6
  0
LINE
  8
0
 10
283.176
 20
-6
 11
275.29
 21
-6
  0
LINE
  8
0
 10
275.29
 20
-6
 11
275.29
 21
0
  0
LINE
  8
0
 10
275.29
 20
0
 11
266.803
 21
0
  0
LINE
  8
0
 10
266.803
 20
0
 11
266.803
 21
-6
  0
LINE
  8
0
 10
266.803
 20
-6
 11
258.917
 21
-6
  0
LINE
  8
0
 10
258.917
 20
-6
 11
258.917
 21
0
  0
LINE
  8
0
 10
258.917
 20
0
 11
250.431
 21
0
  0
LINE
  8
0
 10
250.431
 20
0
 11
250.431
 21
-6
  0
LINE
  8
0
 10
250.431
 20
-6
 11
242.545
 21
-6
  0
LINE
  8
0
 10
242.545
 20
-6
 11
242.545
 21
0
  0
LINE
  8
0
 10
242.545
 20
0
 11
234.059
 21
0
  0
LINE
  8
0
 10
234.059
 20
0
 11
234.059
 21
-6
  0
LINE
  8
0
 10
234.059
 20
-6
 11
226.173
 21
-6
  0
LINE
  8
0
 10
226.173
 20
-6
 11
226.173
 21
0
  0
LINE
  8
0
 10
226.173
 20
0
 11
217.687
 21
0
  0
LINE
  8
0
 10
217.687
 20
0
 11
217.687
 21
-6
  0
LINE
  8
0
 10
217.687
 20
-6
 11
209.801
 21
-6
  0
LINE
  8
0
 10
209.801
 20
-6
 11
209.801
 21
0
  0
LINE
  8
0
 10
209.801
 20
0
 11
201.315
 21
0
  0
LINE
  8
0
 10
201.315
 20
0
 11
201.315
 21
-6
  0
LINE
  8
0
 10
201.315
 20
-6
 11
193.429
 21
-6
  0
LINE
  8
0
 10
193.429
 20
-6
 11
193.429
 21
0
  0
LINE
  8
0
 10
193.429
 20
0
 11
184.943
 21
0
  0
LINE
  8
0
 10
184.943
 20
0
 11
184.943
 21
-6
  0
LINE
  8
0
 10
184.943
 20
-6
 11
177.057
 21
-6
  0
LINE
  8
0
 10
177.057
 20
-6
 11
177.057
 21
0
  0
LINE
  8
0
 10
177.057
 20
0
 11
168.571
 21
0
  0
LINE
  8
0
 10
168.571
 20
0
 11
168.571
 21
-6
  0
LINE
  8
0
 10
168.571
 20
-6
 11
160.685
 21
-6
  0
LINE
  8
0
 10
160.685
 20
-6
 11
160.685
 21
0
  0
LINE
  8
0
 10
160.685
 20
0
 11
152.199
 21
0
  0
LINE
  8
0
 10
152.199
 20
0
 11
152.199
 21
-6
  0
LINE
  8
0
 10
152.199
 20
-6
 11
144.313
 21
-6
  0
LINE
  8
0
 10
144.313
 20
-6
 11
144.313
 21
0
  0
LINE
  8
0
 10
144.313
 20
0
 11
135.827
 21
0
  0
LINE
  8
0
 10
135.827
 20
0
 11
135.827
 21
-6
  0
LINE
  8
0
 10
135.827
 20
-6
 11
127.941
 21
-6
  0
LINE
  8
0
 10
127.941
 20
-6
 11
127.941
 21
0
  0
LINE
  8
0
 10
127.941
 20
0
 11
119.455
 21
0
  0
LINE
  8
0
 10
119.455
 20
0
 11
119.455
 21
-6
  0
LINE
  8
0
 10
119.455
 20
-6
 11
111.569
 21
-6
  0
LINE
  8
0
 10
111.569
 20
-6
 11
111.569
 21
0
  0
LINE
  8
0
 10
111.569
 20
0
 11
103.083
 21
0
  0
LINE
  8
0
 10
103.083
 20
0
 11
103.083
 21
-6
  0
LINE
  8
0
 10
103.083
 20
-6
 11
95.1965
 21
-6
  0
LINE
  8
0
 10
95.1965
 20
-6
 11
95.1965
 21
0
  0
LINE
  8
0
 10
95.1965
 20
0
 11
86.7105
 21
0
  0
LINE
  8
0
 10
86.7105
 20
0
 11
86.7105
 21
-6
  0
LINE
  8
0
 10
86.7105
 20
-6
 11
78.8244
 21
-6
  0
LINE
  8
0
 10
78.8244
 20
-6
 11
78.8244
 21
0
  0
LINE
  8
0
 10
78.8244
 20
0
 11
70.3384
 21
0
  0
LINE
  8
0
 10
70.3384
 20
0
 11
70.3384
 21
-6
  0
LINE
  8
0
 10
70.3384
 20
-6
 11
62.4523
 21
-6
  0
LINE
  8
0
 10
62.4523
 20
-6
 11
62.4523
 21
0
  0
LINE
  8
0
 10
62.4523
 20
0
 11
53.9663
 21
0
  0
LINE
  8
0
 10
53.9663
 20
0
 11
53.9663
 21
-6
  0
LINE
  8
0
 10
53.9663
 20
-6
 11
46.0802
 21
-6
  0
LINE
  8
0
 10
46.0802
 20
-6
 11
46.0802
 21
0
  0
LINE
  8
0
 10
46.0802
 20
0
 11
37.5942
 21
0
  0
LINE
  8
0
 10
37.5942
 20
0
 11
37.5942
 21
-6
  0
LINE
  8
0
 10
37.5942
 20
-6
 11
29.7081
 21
-6
  0
LINE
  8
0
 10
29.7081
 20
-6
 11
29.7081
 21
0
  0
LINE
  8
0
 10
29.7081
 20
0
 11
21.2221
 21
0
  0
LINE
  8
0
 10
21.2221
 20
0
 11
21.2221
 21
-6
  0
LINE
  8
0
 10
21.2221
 20
-6
 11
13.336
 21
-6
  0
LINE
  8
0
 10
13.336
 20
-6
 11
13.336
 21
0
  0
LINE
  8
0
 10
13.336
 20
0
 11
6
 21
0
  0
LINE
  8
0
 10
6
 20
0
 11
6
 21
-7.51667
  0
LINE
  8
0
 10
6
 20
-7.51667
 11
0
 21
-7.51667
  0
LINE
  8
0
 10
0
 20
-7.51667
 11
0
 21
-15.4833
  0
ENDSEC
  0
SECTION
  2
OBJECTS
  0
DICTIONARY
  0
ENDSEC
  0
EOF
