<?xml version="1.0" standalone="no"?>
<!DOCTYPE svg PUBLIC "-//W3C//DTD SVG 1.1//EN" "http://www.w3.org/Graphics/SVG/1.1/DTD/svg11.dtd">
<svg width="350mm" height="20mm" viewBox="0 0 350 20" xmlns="http://www.w3.org/2000/svg" version="1.1">
<title>OpenSCAD Model</title>
<path d="
M 0,13.3333 L 5,13.3333 L 5,20 L 345,20 L 345,13.3333 L 350,13.3333
 L 350,6.66667 L 345,6.66667 L 345,-0 L 333.721,-0 L 333.721,6 L 325.581,6
 L 325.581,-0 L 317.442,-0 L 317.442,6 L 309.302,6 L 309.302,-0 L 301.163,-0
 L 301.163,6 L 293.023,6 L 293.023,-0 L 284.884,-0 L 284.884,6 L 276.744,6
 L 276.744,-0 L 268.605,-0 L 268.605,6 L 260.465,6 L 260.465,-0 L 252.326,-0
 L 252.326,6 L 244.186,6 L 244.186,-0 L 236.047,-0 L 236.047,6 L 227.907,6
 L 227.907,-0 L 219.767,-0 L 219.767,6 L 211.628,6 L 211.628,-0 L 203.488,-0
 L 203.488,6 L 195.349,6 L 195.349,-0 L 187.209,-0 L 187.209,6 L 179.07,6
 L 179.07,-0 L 170.93,-0 L 170.93,6 L 162.791,6 L 162.791,-0 L 154.651,-0
 L 154.651,6 L 146.512,6 L 146.512,-0 L 138.372,-0 L 138.372,6 L 130.233,6
 L 130.233,-0 L 122.093,-0 L 122.093,6 L 113.953,6 L 113.953,-0 L 105.814,-0
 L 105.814,6 L 97.6744,6 L 97.6744,-0 L 89.5349,-0 L 89.5349,6 L 81.3953,6
 L 81.3953,-0 L 73.2558,-0 L 73.2558,6 L 65.1163,6 L 65.1163,-0 L 56.9767,-0
 L 56.9767,6 L 48.8372,6 L 48.8372,-0 L 40.6977,-0 L 40.6977,6 L 32.5581,6
 L 32.5581,-0 L 24.4186,-0 L 24.4186,6 L 16.2791,6 L 16.2791,-0 L 5,-0
 L 5,6.66667 L 0,6.66667 z
" stroke="black" fill="lightgray" stroke-width="0.5"/>
</svg>
