  0
SECTION
  2
BLOCKS
  0
ENDSEC
  0
SECTION
  2
ENTITIES
  0
LINE
  8
0
 10
0
 20
-13.7833
 11
5.3
 21
-13.7833
  0
LINE
  8
0
 10
5.3
 20
-13.7833
 11
5.3
 21
-20.3
  0
LINE
  8
0
 10
5.3
 20
-20.3
 11
355.3
 21
-20.3
  0
LINE
  8
0
 10
355.3
 20
-20.3
 11
355.3
 21
-13.7833
  0
LINE
  8
0
 10
355.3
 20
-13.7833
 11
360.6
 21
-13.7833
  0
LINE
  8
0
 10
360.6
 20
-13.7833
 11
360.6
 21
-6.51667
  0
LINE
  8
0
 10
360.6
 20
-6.51667
 11
355.3
 21
-6.51667
  0
LINE
  8
0
 10
355.3
 20
-6.51667
 11
355.3
 21
0
  0
LINE
  8
0
 10
355.3
 20
0
 11
347.197
 21
0
  0
LINE
  8
0
 10
347.197
 20
0
 11
347.197
 21
-5.3
  0
LINE
  8
0
 10
347.197
 20
-5.3
 11
339.543
 21
-5.3
  0
LINE
  8
0
 10
339.543
 20
-5.3
 11
339.543
 21
0
  0
LINE
  8
0
 10
339.543
 20
0
 11
330.89
 21
0
  0
LINE
  8
0
 10
330.89
 20
0
 11
330.89
 21
-5.3
  0
LINE
  8
0
 10
330.89
 20
-5.3
 11
323.236
 21
-5.3
  0
LINE
  8
0
 10
323.236
 20
-5.3
 11
323.236
 21
0
  0
LINE
  8
0
 10
323.236
 20
0
 11
314.583
 21
0
  0
LINE
  8
0
 10
314.583
 20
0
 11
314.583
 21
-5.3
  0
LINE
  8
0
 10
314.583
 20
-5.3
 11
306.929
 21
-5.3
  0
LINE
  8
0
 10
306.929
 20
-5.3
 11
306.929
 21
0
  0
LINE
  8
0
 10
306.929
 20
0
 11
298.276
 21
0
  0
LINE
  8
0
 10
298.276
 20
0
 11
298.276
 21
-5.3
  0
LINE
  8
0
 10
298.276
 20
-5.3
 11
290.622
 21
-5.3
  0
LINE
  8
0
 10
290.622
 20
-5.3
 11
290.622
 21
0
  0
LINE
  8
0
 10
290.622
 20
0
 11
281.969
 21
0
  0
LINE
  8
0
 10
281.969
 20
0
 11
281.969
 21
-5.3
  0
LINE
  8
0
 10
281.969
 20
-5.3
 11
274.315
 21
-5.3
  0
LINE
  8
0
 10
274.315
 20
-5.3
 11
274.315
 21
0
  0
LINE
  8
0
 10
274.315
 20
0
 11
265.662
 21
0
  0
LINE
  8
0
 10
265.662
 20
0
 11
265.662
 21
-5.3
  0
LINE
  8
0
 10
265.662
 20
-5.3
 11
258.008
 21
-5.3
  0
LINE
  8
0
 10
258.008
 20
-5.3
 11
258.008
 21
0
  0
LINE
  8
0
 10
258.008
 20
0
 11
249.355
 21
0
  0
LINE
  8
0
 10
249.355
 20
0
 11
249.355
 21
-5.3
  0
LINE
  8
0
 10
249.355
 20
-5.3
 11
241.701
 21
-5.3
  0
LINE
  8
0
 10
241.701
 20
-5.3
 11
241.701
 21
0
  0
LINE
  8
0
 10
241.701
 20
0
 11
233.048
 21
0
  0
LINE
  8
0
 10
233.048
 20
0
 11
233.048
 21
-5.3
  0
LINE
  8
0
 10
233.048
 20
-5.3
 11
225.394
 21
-5.3
  0
LINE
  8
0
 10
225.394
 20
-5.3
 11
225.394
 21
0
  0
LINE
  8
0
 10
225.394
 20
0
 11
216.741
 21
0
  0
LINE
  8
0
 10
216.741
 20
0
 11
216.741
 21
-5.3
  0
LINE
  8
0
 10
216.741
 20
-5.3
 11
209.087
 21
-5.3
  0
LINE
  8
0
 10
209.087
 20
-5.3
 11
209.087
 21
0
  0
LINE
  8
0
 10
209.087
 20
0
 11
200.434
 21
0
  0
LINE
  8
0
 10
200.434
 20
0
 11
200.434
 21
-5.3
  0
LINE
  8
0
 10
200.434
 20
-5.3
 11
192.78
 21
-5.3
  0
LINE
  8
0
 10
192.78
 20
-5.3
 11
192.78
 21
0
  0
LINE
  8
0
 10
192.78
 20
0
 11
184.127
 21
0
  0
LINE
  8
0
 10
184.127
 20
0
 11
184.127
 21
-5.3
  0
LINE
  8
0
 10
184.127
 20
-5.3
 11
176.473
 21
-5.3
  0
LINE
  8
0
 10
176.473
 20
-5.3
 11
176.473
 21
0
  0
LINE
  8
0
 10
176.473
 20
0
 11
167.82
 21
0
  0
LINE
  8
0
 10
167.82
 20
0
 11
167.82
 21
-5.3
  0
LINE
  8
0
 10
167.82
 20
-5.3
 11
160.166
 21
-5.3
  0
LINE
  8
0
 10
160.166
 20
-5.3
 11
160.166
 21
0
  0
LINE
  8
0
 10
160.166
 20
0
 11
151.513
 21
0
  0
LINE
  8
0
 10
151.513
 20
0
 11
151.513
 21
-5.3
  0
LINE
  8
0
 10
151.513
 20
-5.3
 11
143.859
 21
-5.3
  0
LINE
  8
0
 10
143.859
 20
-5.3
 11
143.859
 21
0
  0
LINE
  8
0
 10
143.859
 20
0
 11
135.206
 21
0
  0
LINE
  8
0
 10
135.206
 20
0
 11
135.206
 21
-5.3
  0
LINE
  8
0
 10
135.206
 20
-5.3
 11
127.552
 21
-5.3
  0
LINE
  8
0
 10
127.552
 20
-5.3
 11
127.552
 21
0
  0
LINE
  8
0
 10
127.552
 20
0
 11
118.899
 21
0
  0
LINE
  8
0
 10
118.899
 20
0
 11
118.899
 21
-5.3
  0
LINE
  8
0
 10
118.899
 20
-5.3
 11
111.245
 21
-5.3
  0
LINE
  8
0
 10
111.245
 20
-5.3
 11
111.245
 21
0
  0
LINE
  8
0
 10
111.245
 20
0
 11
102.592
 21
0
  0
LINE
  8
0
 10
102.592
 20
0
 11
102.592
 21
-5.3
  0
LINE
  8
0
 10
102.592
 20
-5.3
 11
94.9384
 21
-5.3
  0
LINE
  8
0
 10
94.9384
 20
-5.3
 11
94.9384
 21
0
  0
LINE
  8
0
 10
94.9384
 20
0
 11
86.2849
 21
0
  0
LINE
  8
0
 10
86.2849
 20
0
 11
86.2849
 21
-5.3
  0
LINE
  8
0
 10
86.2849
 20
-5.3
 11
78.6314
 21
-5.3
  0
LINE
  8
0
 10
78.6314
 20
-5.3
 11
78.6314
 21
0
  0
LINE
  8
0
 10
78.6314
 20
0
 11
69.9779
 21
0
  0
LINE
  8
0
 10
69.9779
 20
0
 11
69.9779
 21
-5.3
  0
LINE
  8
0
 10
69.9779
 20
-5.3
 11
62.3244
 21
-5.3
  0
LINE
  8
0
 10
62.3244
 20
-5.3
 11
62.3244
 21
0
  0
LINE
  8
0
 10
62.3244
 20
0
 11
53.6709
 21
0
  0
LINE
  8
0
 10
53.6709
 20
0
 11
53.6709
 21
-5.3
  0
LINE
  8
0
 10
53.6709
 20
-5.3
 11
46.0174
 21
-5.3
  0
LINE
  8
0
 10
46.0174
 20
-5.3
 11
46.0174
 21
0
  0
LINE
  8
0
 10
46.0174
 20
0
 11
37.364
 21
0
  0
LINE
  8
0
 10
37.364
 20
0
 11
37.364
 21
-5.3
  0
LINE
  8
0
 10
37.364
 20
-5.3
 11
29.7105
 21
-5.3
  0
LINE
  8
0
 10
29.7105
 20
-5.3
 11
29.7105
 21
0
  0
LINE
  8
0
 10
29.7105
 20
0
 11
21.057
 21
0
  0
LINE
  8
0
 10
21.057
 20
0
 11
21.057
 21
-5.3
  0
LINE
  8
0
 10
21.057
 20
-5.3
 11
13.4035
 21
-5.3
  0
LINE
  8
0
 10
13.4035
 20
-5.3
 11
13.4035
 21
0
  0
LINE
  8
0
 10
13.4035
 20
0
 11
5.3
 21
0
  0
LINE
  8
0
 10
5.3
 20
0
 11
5.3
 21
-6.51667
  0
LINE
  8
0
 10
5.3
 20
-6.51667
 11
0
 21
-6.51667
  0
LINE
  8
0
 10
0
 20
-6.51667
 11
0
 21
-13.7833
  0
ENDSEC
  0
SECTION
  2
OBJECTS
  0
DICTIONARY
  0
ENDSEC
  0
EOF
