<?xml version="1.0" standalone="no"?>
<!DOCTYPE svg PUBLIC "-//W3C//DTD SVG 1.1//EN" "http://www.w3.org/Graphics/SVG/1.1/DTD/svg11.dtd">
<svg width="362mm" height="23mm" viewBox="0 0 362 23" xmlns="http://www.w3.org/2000/svg" version="1.1">
<title>OpenSCAD Model</title>
<path d="
M 0,15.4833 L 6,15.4833 L 6,23 L 356,23 L 356,15.4833 L 362,15.4833
 L 362,7.51667 L 356,7.51667 L 356,-0 L 348.664,-0 L 348.664,6 L 340.778,6
 L 340.778,-0 L 332.292,-0 L 332.292,6 L 324.406,6 L 324.406,-0 L 315.92,-0
 L 315.92,6 L 308.034,6 L 308.034,-0 L 299.548,-0 L 299.548,6 L 291.662,6
 L 291.662,-0 L 283.176,-0 L 283.176,6 L 275.29,6 L 275.29,-0 L 266.803,-0
 L 266.803,6 L 258.917,6 L 258.917,-0 L 250.431,-0 L 250.431,6 L 242.545,6
 L 242.545,-0 L 234.059,-0 L 234.059,6 L 226.173,6 L 226.173,-0 L 217.687,-0
 L 217.687,6 L 209.801,6 L 209.801,-0 L 201.315,-0 L 201.315,6 L 193.429,6
 L 193.429,-0 L 184.943,-0 L 184.943,6 L 177.057,6 L 177.057,-0 L 168.571,-0
 L 168.571,6 L 160.685,6 L 160.685,-0 L 152.199,-0 L 152.199,6 L 144.313,6
 L 144.313,-0 L 135.827,-0 L 135.827,6 L 127.941,6 L 127.941,-0 L 119.455,-0
 L 119.455,6 L 111.569,6 L 111.569,-0 L 103.083,-0 L 103.083,6 L 95.1965,6
 L 95.1965,-0 L 86.7105,-0 L 86.7105,6 L 78.8244,6 L 78.8244,-0 L 70.3384,-0
 L 70.3384,6 L 62.4523,6 L 62.4523,-0 L 53.9663,-0 L 53.9663,6 L 46.0802,6
 L 46.0802,-0 L 37.5942,-0 L 37.5942,6 L 29.7081,6 L 29.7081,-0 L 21.2221,-0
 L 21.2221,6 L 13.336,6 L 13.336,-0 L 6,-0 L 6,7.51667 L 0,7.51667
 z
" stroke="black" fill="lightgray" stroke-width="0.5"/>
</svg>
