  0
SECTION
  2
BLOCKS
  0
ENDSEC
  0
SECTION
  2
ENTITIES
  0
LINE
  8
0
 10
0
 20
-13.3333
 11
5
 21
-13.3333
  0
LINE
  8
0
 10
5
 20
-13.3333
 11
5
 21
-20
  0
LINE
  8
0
 10
5
 20
-20
 11
345
 21
-20
  0
LINE
  8
0
 10
345
 20
-20
 11
345
 21
-13.3333
  0
LINE
  8
0
 10
345
 20
-13.3333
 11
350
 21
-13.3333
  0
LINE
  8
0
 10
350
 20
-13.3333
 11
350
 21
-6.66667
  0
LINE
  8
0
 10
350
 20
-6.66667
 11
345
 21
-6.66667
  0
LINE
  8
0
 10
345
 20
-6.66667
 11
345
 21
0
  0
LINE
  8
0
 10
345
 20
0
 11
333.721
 21
0
  0
LINE
  8
0
 10
333.721
 20
0
 11
333.721
 21
-6
  0
LINE
  8
0
 10
333.721
 20
-6
 11
325.581
 21
-6
  0
LINE
  8
0
 10
325.581
 20
-6
 11
325.581
 21
0
  0
LINE
  8
0
 10
325.581
 20
0
 11
317.442
 21
0
  0
LINE
  8
0
 10
317.442
 20
0
 11
317.442
 21
-6
  0
LINE
  8
0
 10
317.442
 20
-6
 11
309.302
 21
-6
  0
LINE
  8
0
 10
309.302
 20
-6
 11
309.302
 21
0
  0
LINE
  8
0
 10
309.302
 20
0
 11
301.163
 21
0
  0
LINE
  8
0
 10
301.163
 20
0
 11
301.163
 21
-6
  0
LINE
  8
0
 10
301.163
 20
-6
 11
293.023
 21
-6
  0
LINE
  8
0
 10
293.023
 20
-6
 11
293.023
 21
0
  0
LINE
  8
0
 10
293.023
 20
0
 11
284.884
 21
0
  0
LINE
  8
0
 10
284.884
 20
0
 11
284.884
 21
-6
  0
LINE
  8
0
 10
284.884
 20
-6
 11
276.744
 21
-6
  0
LINE
  8
0
 10
276.744
 20
-6
 11
276.744
 21
0
  0
LINE
  8
0
 10
276.744
 20
0
 11
268.605
 21
0
  0
LINE
  8
0
 10
268.605
 20
0
 11
268.605
 21
-6
  0
LINE
  8
0
 10
268.605
 20
-6
 11
260.465
 21
-6
  0
LINE
  8
0
 10
260.465
 20
-6
 11
260.465
 21
0
  0
LINE
  8
0
 10
260.465
 20
0
 11
252.326
 21
0
  0
LINE
  8
0
 10
252.326
 20
0
 11
252.326
 21
-6
  0
LINE
  8
0
 10
252.326
 20
-6
 11
244.186
 21
-6
  0
LINE
  8
0
 10
244.186
 20
-6
 11
244.186
 21
0
  0
LINE
  8
0
 10
244.186
 20
0
 11
236.047
 21
0
  0
LINE
  8
0
 10
236.047
 20
0
 11
236.047
 21
-6
  0
LINE
  8
0
 10
236.047
 20
-6
 11
227.907
 21
-6
  0
LINE
  8
0
 10
227.907
 20
-6
 11
227.907
 21
0
  0
LINE
  8
0
 10
227.907
 20
0
 11
219.767
 21
0
  0
LINE
  8
0
 10
219.767
 20
0
 11
219.767
 21
-6
  0
LINE
  8
0
 10
219.767
 20
-6
 11
211.628
 21
-6
  0
LINE
  8
0
 10
211.628
 20
-6
 11
211.628
 21
0
  0
LINE
  8
0
 10
211.628
 20
0
 11
203.488
 21
0
  0
LINE
  8
0
 10
203.488
 20
0
 11
203.488
 21
-6
  0
LINE
  8
0
 10
203.488
 20
-6
 11
195.349
 21
-6
  0
LINE
  8
0
 10
195.349
 20
-6
 11
195.349
 21
0
  0
LINE
  8
0
 10
195.349
 20
0
 11
187.209
 21
0
  0
LINE
  8
0
 10
187.209
 20
0
 11
187.209
 21
-6
  0
LINE
  8
0
 10
187.209
 20
-6
 11
179.07
 21
-6
  0
LINE
  8
0
 10
179.07
 20
-6
 11
179.07
 21
0
  0
LINE
  8
0
 10
179.07
 20
0
 11
170.93
 21
0
  0
LINE
  8
0
 10
170.93
 20
0
 11
170.93
 21
-6
  0
LINE
  8
0
 10
170.93
 20
-6
 11
162.791
 21
-6
  0
LINE
  8
0
 10
162.791
 20
-6
 11
162.791
 21
0
  0
LINE
  8
0
 10
162.791
 20
0
 11
154.651
 21
0
  0
LINE
  8
0
 10
154.651
 20
0
 11
154.651
 21
-6
  0
LINE
  8
0
 10
154.651
 20
-6
 11
146.512
 21
-6
  0
LINE
  8
0
 10
146.512
 20
-6
 11
146.512
 21
0
  0
LINE
  8
0
 10
146.512
 20
0
 11
138.372
 21
0
  0
LINE
  8
0
 10
138.372
 20
0
 11
138.372
 21
-6
  0
LINE
  8
0
 10
138.372
 20
-6
 11
130.233
 21
-6
  0
LINE
  8
0
 10
130.233
 20
-6
 11
130.233
 21
0
  0
LINE
  8
0
 10
130.233
 20
0
 11
122.093
 21
0
  0
LINE
  8
0
 10
122.093
 20
0
 11
122.093
 21
-6
  0
LINE
  8
0
 10
122.093
 20
-6
 11
113.953
 21
-6
  0
LINE
  8
0
 10
113.953
 20
-6
 11
113.953
 21
0
  0
LINE
  8
0
 10
113.953
 20
0
 11
105.814
 21
0
  0
LINE
  8
0
 10
105.814
 20
0
 11
105.814
 21
-6
  0
LINE
  8
0
 10
105.814
 20
-6
 11
97.6744
 21
-6
  0
LINE
  8
0
 10
97.6744
 20
-6
 11
97.6744
 21
0
  0
LINE
  8
0
 10
97.6744
 20
0
 11
89.5349
 21
0
  0
LINE
  8
0
 10
89.5349
 20
0
 11
89.5349
 21
-6
  0
LINE
  8
0
 10
89.5349
 20
-6
 11
81.3953
 21
-6
  0
LINE
  8
0
 10
81.3953
 20
-6
 11
81.3953
 21
0
  0
LINE
  8
0
 10
81.3953
 20
0
 11
73.2558
 21
0
  0
LINE
  8
0
 10
73.2558
 20
0
 11
73.2558
 21
-6
  0
LINE
  8
0
 10
73.2558
 20
-6
 11
65.1163
 21
-6
  0
LINE
  8
0
 10
65.1163
 20
-6
 11
65.1163
 21
0
  0
LINE
  8
0
 10
65.1163
 20
0
 11
56.9767
 21
0
  0
LINE
  8
0
 10
56.9767
 20
0
 11
56.9767
 21
-6
  0
LINE
  8
0
 10
56.9767
 20
-6
 11
48.8372
 21
-6
  0
LINE
  8
0
 10
48.8372
 20
-6
 11
48.8372
 21
0
  0
LINE
  8
0
 10
48.8372
 20
0
 11
40.6977
 21
0
  0
LINE
  8
0
 10
40.6977
 20
0
 11
40.6977
 21
-6
  0
LINE
  8
0
 10
40.6977
 20
-6
 11
32.5581
 21
-6
  0
LINE
  8
0
 10
32.5581
 20
-6
 11
32.5581
 21
0
  0
LINE
  8
0
 10
32.5581
 20
0
 11
24.4186
 21
0
  0
LINE
  8
0
 10
24.4186
 20
0
 11
24.4186
 21
-6
  0
LINE
  8
0
 10
24.4186
 20
-6
 11
16.2791
 21
-6
  0
LINE
  8
0
 10
16.2791
 20
-6
 11
16.2791
 21
0
  0
LINE
  8
0
 10
16.2791
 20
0
 11
5
 21
0
  0
LINE
  8
0
 10
5
 20
0
 11
5
 21
-6.66667
  0
LINE
  8
0
 10
5
 20
-6.66667
 11
0
 21
-6.66667
  0
LINE
  8
0
 10
0
 20
-6.66667
 11
0
 21
-13.3333
  0
ENDSEC
  0
SECTION
  2
OBJECTS
  0
DICTIONARY
  0
ENDSEC
  0
EOF
