<?xml version="1.0" standalone="no"?>
<!DOCTYPE svg PUBLIC "-//W3C//DTD SVG 1.1//EN" "http://www.w3.org/Graphics/SVG/1.1/DTD/svg11.dtd">
<svg width="360mm" height="20mm" viewBox="0 0 360 20" xmlns="http://www.w3.org/2000/svg" version="1.1">
<title>OpenSCAD Model</title>
<path d="
M 0,13.3333 L 5,13.3333 L 5,20 L 355,20 L 355,13.3333 L 360,13.3333
 L 360,6.66667 L 355,6.66667 L 355,-0 L 346.86,-0 L 346.86,6 L 338.721,6
 L 338.721,-0 L 330.581,-0 L 330.581,6 L 322.442,6 L 322.442,-0 L 314.302,-0
 L 314.302,6 L 306.163,6 L 306.163,-0 L 298.023,-0 L 298.023,6 L 289.884,6
 L 289.884,-0 L 281.744,-0 L 281.744,6 L 273.605,6 L 273.605,-0 L 265.465,-0
 L 265.465,6 L 257.326,6 L 257.326,-0 L 249.186,-0 L 249.186,6 L 241.047,6
 L 241.047,-0 L 232.907,-0 L 232.907,6 L 224.767,6 L 224.767,-0 L 216.628,-0
 L 216.628,6 L 208.488,6 L 208.488,-0 L 200.349,-0 L 200.349,6 L 192.209,6
 L 192.209,-0 L 184.07,-0 L 184.07,6 L 175.93,6 L 175.93,-0 L 167.791,-0
 L 167.791,6 L 159.651,6 L 159.651,-0 L 151.512,-0 L 151.512,6 L 143.372,6
 L 143.372,-0 L 135.233,-0 L 135.233,6 L 127.093,6 L 127.093,-0 L 118.953,-0
 L 118.953,6 L 110.814,6 L 110.814,-0 L 102.674,-0 L 102.674,6 L 94.5349,6
 L 94.5349,-0 L 86.3953,-0 L 86.3953,6 L 78.2558,6 L 78.2558,-0 L 70.1163,-0
 L 70.1163,6 L 61.9767,6 L 61.9767,-0 L 53.8372,-0 L 53.8372,6 L 45.6977,6
 L 45.6977,-0 L 37.5581,-0 L 37.5581,6 L 29.4186,6 L 29.4186,-0 L 21.2791,-0
 L 21.2791,6 L 13.1395,6 L 13.1395,-0 L 5,-0 L 5,6.66667 L 0,6.66667
 z
" stroke="black" fill="lightgray" stroke-width="0.5"/>
</svg>
