  0
SECTION
  2
BLOCKS
  0
ENDSEC
  0
SECTION
  2
ENTITIES
  0
LINE
  8
0
 10
0
 20
-13.5833
 11
5
 21
-13.5833
  0
LINE
  8
0
 10
5
 20
-13.5833
 11
5
 21
-20
  0
LINE
  8
0
 10
5
 20
-20
 11
355
 21
-20
  0
LINE
  8
0
 10
355
 20
-20
 11
355
 21
-13.5833
  0
LINE
  8
0
 10
355
 20
-13.5833
 11
360
 21
-13.5833
  0
LINE
  8
0
 10
360
 20
-13.5833
 11
360
 21
-6.41667
  0
LINE
  8
0
 10
360
 20
-6.41667
 11
355
 21
-6.41667
  0
LINE
  8
0
 10
355
 20
-6.41667
 11
355
 21
0
  0
LINE
  8
0
 10
355
 20
0
 11
346.61
 21
0
  0
LINE
  8
0
 10
346.61
 20
0
 11
346.61
 21
-6
  0
LINE
  8
0
 10
346.61
 20
-6
 11
338.971
 21
-6
  0
LINE
  8
0
 10
338.971
 20
-6
 11
338.971
 21
0
  0
LINE
  8
0
 10
338.971
 20
0
 11
330.331
 21
0
  0
LINE
  8
0
 10
330.331
 20
0
 11
330.331
 21
-6
  0
LINE
  8
0
 10
330.331
 20
-6
 11
322.692
 21
-6
  0
LINE
  8
0
 10
322.692
 20
-6
 11
322.692
 21
0
  0
LINE
  8
0
 10
322.692
 20
0
 11
314.052
 21
0
  0
LINE
  8
0
 10
314.052
 20
0
 11
314.052
 21
-6
  0
LINE
  8
0
 10
314.052
 20
-6
 11
306.413
 21
-6
  0
LINE
  8
0
 10
306.413
 20
-6
 11
306.413
 21
0
  0
LINE
  8
0
 10
306.413
 20
0
 11
297.773
 21
0
  0
LINE
  8
0
 10
297.773
 20
0
 11
297.773
 21
-6
  0
LINE
  8
0
 10
297.773
 20
-6
 11
290.134
 21
-6
  0
LINE
  8
0
 10
290.134
 20
-6
 11
290.134
 21
0
  0
LINE
  8
0
 10
290.134
 20
0
 11
281.494
 21
0
  0
LINE
  8
0
 10
281.494
 20
0
 11
281.494
 21
-6
  0
LINE
  8
0
 10
281.494
 20
-6
 11
273.855
 21
-6
  0
LINE
  8
0
 10
273.855
 20
-6
 11
273.855
 21
0
  0
LINE
  8
0
 10
273.855
 20
0
 11
265.215
 21
0
  0
LINE
  8
0
 10
265.215
 20
0
 11
265.215
 21
-6
  0
LINE
  8
0
 10
265.215
 20
-6
 11
257.576
 21
-6
  0
LINE
  8
0
 10
257.576
 20
-6
 11
257.576
 21
0
  0
LINE
  8
0
 10
257.576
 20
0
 11
248.936
 21
0
  0
LINE
  8
0
 10
248.936
 20
0
 11
248.936
 21
-6
  0
LINE
  8
0
 10
248.936
 20
-6
 11
241.297
 21
-6
  0
LINE
  8
0
 10
241.297
 20
-6
 11
241.297
 21
0
  0
LINE
  8
0
 10
241.297
 20
0
 11
232.657
 21
0
  0
LINE
  8
0
 10
232.657
 20
0
 11
232.657
 21
-6
  0
LINE
  8
0
 10
232.657
 20
-6
 11
225.017
 21
-6
  0
LINE
  8
0
 10
225.017
 20
-6
 11
225.017
 21
0
  0
LINE
  8
0
 10
225.017
 20
0
 11
216.378
 21
0
  0
LINE
  8
0
 10
216.378
 20
0
 11
216.378
 21
-6
  0
LINE
  8
0
 10
216.378
 20
-6
 11
208.738
 21
-6
  0
LINE
  8
0
 10
208.738
 20
-6
 11
208.738
 21
0
  0
LINE
  8
0
 10
208.738
 20
0
 11
200.099
 21
0
  0
LINE
  8
0
 10
200.099
 20
0
 11
200.099
 21
-6
  0
LINE
  8
0
 10
200.099
 20
-6
 11
192.459
 21
-6
  0
LINE
  8
0
 10
192.459
 20
-6
 11
192.459
 21
0
  0
LINE
  8
0
 10
192.459
 20
0
 11
183.82
 21
0
  0
LINE
  8
0
 10
183.82
 20
0
 11
183.82
 21
-6
  0
LINE
  8
0
 10
183.82
 20
-6
 11
176.18
 21
-6
  0
LINE
  8
0
 10
176.18
 20
-6
 11
176.18
 21
0
  0
LINE
  8
0
 10
176.18
 20
0
 11
167.541
 21
0
  0
LINE
  8
0
 10
167.541
 20
0
 11
167.541
 21
-6
  0
LINE
  8
0
 10
167.541
 20
-6
 11
159.901
 21
-6
  0
LINE
  8
0
 10
159.901
 20
-6
 11
159.901
 21
0
  0
LINE
  8
0
 10
159.901
 20
0
 11
151.262
 21
0
  0
LINE
  8
0
 10
151.262
 20
0
 11
151.262
 21
-6
  0
LINE
  8
0
 10
151.262
 20
-6
 11
143.622
 21
-6
  0
LINE
  8
0
 10
143.622
 20
-6
 11
143.622
 21
0
  0
LINE
  8
0
 10
143.622
 20
0
 11
134.983
 21
0
  0
LINE
  8
0
 10
134.983
 20
0
 11
134.983
 21
-6
  0
LINE
  8
0
 10
134.983
 20
-6
 11
127.343
 21
-6
  0
LINE
  8
0
 10
127.343
 20
-6
 11
127.343
 21
0
  0
LINE
  8
0
 10
127.343
 20
0
 11
118.703
 21
0
  0
LINE
  8
0
 10
118.703
 20
0
 11
118.703
 21
-6
  0
LINE
  8
0
 10
118.703
 20
-6
 11
111.064
 21
-6
  0
LINE
  8
0
 10
111.064
 20
-6
 11
111.064
 21
0
  0
LINE
  8
0
 10
111.064
 20
0
 11
102.424
 21
0
  0
LINE
  8
0
 10
102.424
 20
0
 11
102.424
 21
-6
  0
LINE
  8
0
 10
102.424
 20
-6
 11
94.7849
 21
-6
  0
LINE
  8
0
 10
94.7849
 20
-6
 11
94.7849
 21
0
  0
LINE
  8
0
 10
94.7849
 20
0
 11
86.1453
 21
0
  0
LINE
  8
0
 10
86.1453
 20
0
 11
86.1453
 21
-6
  0
LINE
  8
0
 10
86.1453
 20
-6
 11
78.5058
 21
-6
  0
LINE
  8
0
 10
78.5058
 20
-6
 11
78.5058
 21
0
  0
LINE
  8
0
 10
78.5058
 20
0
 11
69.8663
 21
0
  0
LINE
  8
0
 10
69.8663
 20
0
 11
69.8663
 21
-6
  0
LINE
  8
0
 10
69.8663
 20
-6
 11
62.2267
 21
-6
  0
LINE
  8
0
 10
62.2267
 20
-6
 11
62.2267
 21
0
  0
LINE
  8
0
 10
62.2267
 20
0
 11
53.5872
 21
0
  0
LINE
  8
0
 10
53.5872
 20
0
 11
53.5872
 21
-6
  0
LINE
  8
0
 10
53.5872
 20
-6
 11
45.9477
 21
-6
  0
LINE
  8
0
 10
45.9477
 20
-6
 11
45.9477
 21
0
  0
LINE
  8
0
 10
45.9477
 20
0
 11
37.3081
 21
0
  0
LINE
  8
0
 10
37.3081
 20
0
 11
37.3081
 21
-6
  0
LINE
  8
0
 10
37.3081
 20
-6
 11
29.6686
 21
-6
  0
LINE
  8
0
 10
29.6686
 20
-6
 11
29.6686
 21
0
  0
LINE
  8
0
 10
29.6686
 20
0
 11
21.0291
 21
0
  0
LINE
  8
0
 10
21.0291
 20
0
 11
21.0291
 21
-6
  0
LINE
  8
0
 10
21.0291
 20
-6
 11
13.3895
 21
-6
  0
LINE
  8
0
 10
13.3895
 20
-6
 11
13.3895
 21
0
  0
LINE
  8
0
 10
13.3895
 20
0
 11
5
 21
0
  0
LINE
  8
0
 10
5
 20
0
 11
5
 21
-6.41667
  0
LINE
  8
0
 10
5
 20
-6.41667
 11
0
 21
-6.41667
  0
LINE
  8
0
 10
0
 20
-6.41667
 11
0
 21
-13.5833
  0
ENDSEC
  0
SECTION
  2
OBJECTS
  0
DICTIONARY
  0
ENDSEC
  0
EOF
