  0
SECTION
  2
BLOCKS
  0
ENDSEC
  0
SECTION
  2
ENTITIES
  0
LINE
  8
0
 10
0
 20
-20
 11
350
 21
-20
  0
LINE
  8
0
 10
350
 20
-20
 11
350
 21
-10
  0
LINE
  8
0
 10
350
 20
-10
 11
345
 21
-10
  0
LINE
  8
0
 10
345
 20
-10
 11
345
 21
-6
  0
LINE
  8
0
 10
345
 20
-6
 11
329.412
 21
-6
  0
LINE
  8
0
 10
329.412
 20
-6
 11
329.412
 21
0
  0
LINE
  8
0
 10
329.412
 20
0
 11
308.824
 21
0
  0
LINE
  8
0
 10
308.824
 20
0
 11
308.824
 21
-6
  0
LINE
  8
0
 10
308.824
 20
-6
 11
288.235
 21
-6
  0
LINE
  8
0
 10
288.235
 20
-6
 11
288.235
 21
0
  0
LINE
  8
0
 10
288.235
 20
0
 11
267.647
 21
0
  0
LINE
  8
0
 10
267.647
 20
0
 11
267.647
 21
-6
  0
LINE
  8
0
 10
267.647
 20
-6
 11
247.059
 21
-6
  0
LINE
  8
0
 10
247.059
 20
-6
 11
247.059
 21
0
  0
LINE
  8
0
 10
247.059
 20
0
 11
226.471
 21
0
  0
LINE
  8
0
 10
226.471
 20
0
 11
226.471
 21
-6
  0
LINE
  8
0
 10
226.471
 20
-6
 11
205.882
 21
-6
  0
LINE
  8
0
 10
205.882
 20
-6
 11
205.882
 21
0
  0
LINE
  8
0
 10
205.882
 20
0
 11
185.294
 21
0
  0
LINE
  8
0
 10
185.294
 20
0
 11
185.294
 21
-6
  0
LINE
  8
0
 10
185.294
 20
-6
 11
164.706
 21
-6
  0
LINE
  8
0
 10
164.706
 20
-6
 11
164.706
 21
0
  0
LINE
  8
0
 10
164.706
 20
0
 11
144.118
 21
0
  0
LINE
  8
0
 10
144.118
 20
0
 11
144.118
 21
-6
  0
LINE
  8
0
 10
144.118
 20
-6
 11
123.529
 21
-6
  0
LINE
  8
0
 10
123.529
 20
-6
 11
123.529
 21
0
  0
LINE
  8
0
 10
123.529
 20
0
 11
102.941
 21
0
  0
LINE
  8
0
 10
102.941
 20
0
 11
102.941
 21
-6
  0
LINE
  8
0
 10
102.941
 20
-6
 11
82.3529
 21
-6
  0
LINE
  8
0
 10
82.3529
 20
-6
 11
82.3529
 21
0
  0
LINE
  8
0
 10
82.3529
 20
0
 11
61.7647
 21
0
  0
LINE
  8
0
 10
61.7647
 20
0
 11
61.7647
 21
-6
  0
LINE
  8
0
 10
61.7647
 20
-6
 11
41.1765
 21
-6
  0
LINE
  8
0
 10
41.1765
 20
-6
 11
41.1765
 21
0
  0
LINE
  8
0
 10
41.1765
 20
0
 11
20.5882
 21
0
  0
LINE
  8
0
 10
20.5882
 20
0
 11
20.5882
 21
-6
  0
LINE
  8
0
 10
20.5882
 20
-6
 11
5
 21
-6
  0
LINE
  8
0
 10
5
 20
-6
 11
5
 21
-10
  0
LINE
  8
0
 10
5
 20
-10
 11
0
 21
-10
  0
LINE
  8
0
 10
0
 20
-10
 11
0
 21
-20
  0
ENDSEC
  0
SECTION
  2
OBJECTS
  0
DICTIONARY
  0
ENDSEC
  0
EOF
