<?xml version="1.0" standalone="no"?>
<!DOCTYPE svg PUBLIC "-//W3C//DTD SVG 1.1//EN" "http://www.w3.org/Graphics/SVG/1.1/DTD/svg11.dtd">
<svg width="361mm" height="21mm" viewBox="0 0 361 21" xmlns="http://www.w3.org/2000/svg" version="1.1">
<title>OpenSCAD Model</title>
<path d="
M 0,13.7833 L 5.3,13.7833 L 5.3,20.3 L 355.3,20.3 L 355.3,13.7833 L 360.6,13.7833
 L 360.6,6.51667 L 355.3,6.51667 L 355.3,-0 L 347.197,-0 L 347.197,5.3 L 339.543,5.3
 L 339.543,-0 L 330.89,-0 L 330.89,5.3 L 323.236,5.3 L 323.236,-0 L 314.583,-0
 L 314.583,5.3 L 306.929,5.3 L 306.929,-0 L 298.276,-0 L 298.276,5.3 L 290.622,5.3
 L 290.622,-0 L 281.969,-0 L 281.969,5.3 L 274.315,5.3 L 274.315,-0 L 265.662,-0
 L 265.662,5.3 L 258.008,5.3 L 258.008,-0 L 249.355,-0 L 249.355,5.3 L 241.701,5.3
 L 241.701,-0 L 233.048,-0 L 233.048,5.3 L 225.394,5.3 L 225.394,-0 L 216.741,-0
 L 216.741,5.3 L 209.087,5.3 L 209.087,-0 L 200.434,-0 L 200.434,5.3 L 192.78,5.3
 L 192.78,-0 L 184.127,-0 L 184.127,5.3 L 176.473,5.3 L 176.473,-0 L 167.82,-0
 L 167.82,5.3 L 160.166,5.3 L 160.166,-0 L 151.513,-0 L 151.513,5.3 L 143.859,5.3
 L 143.859,-0 L 135.206,-0 L 135.206,5.3 L 127.552,5.3 L 127.552,-0 L 118.899,-0
 L 118.899,5.3 L 111.245,5.3 L 111.245,-0 L 102.592,-0 L 102.592,5.3 L 94.9384,5.3
 L 94.9384,-0 L 86.2849,-0 L 86.2849,5.3 L 78.6314,5.3 L 78.6314,-0 L 69.9779,-0
 L 69.9779,5.3 L 62.3244,5.3 L 62.3244,-0 L 53.6709,-0 L 53.6709,5.3 L 46.0174,5.3
 L 46.0174,-0 L 37.364,-0 L 37.364,5.3 L 29.7105,5.3 L 29.7105,-0 L 21.057,-0
 L 21.057,5.3 L 13.4035,5.3 L 13.4035,-0 L 5.3,-0 L 5.3,6.51667 L 0,6.51667
 z
" stroke="black" fill="lightgray" stroke-width="0.5"/>
</svg>
