  0
SECTION
  2
BLOCKS
  0
ENDSEC
  0
SECTION
  2
ENTITIES
  0
LINE
  8
0
 10
0
 20
-13.3333
 11
5
 21
-13.3333
  0
LINE
  8
0
 10
5
 20
-13.3333
 11
5
 21
-20
  0
LINE
  8
0
 10
5
 20
-20
 11
355
 21
-20
  0
LINE
  8
0
 10
355
 20
-20
 11
355
 21
-13.3333
  0
LINE
  8
0
 10
355
 20
-13.3333
 11
360
 21
-13.3333
  0
LINE
  8
0
 10
360
 20
-13.3333
 11
360
 21
-6.66667
  0
LINE
  8
0
 10
360
 20
-6.66667
 11
355
 21
-6.66667
  0
LINE
  8
0
 10
355
 20
-6.66667
 11
355
 21
0
  0
LINE
  8
0
 10
355
 20
0
 11
346.86
 21
0
  0
LINE
  8
0
 10
346.86
 20
0
 11
346.86
 21
-6
  0
LINE
  8
0
 10
346.86
 20
-6
 11
338.721
 21
-6
  0
LINE
  8
0
 10
338.721
 20
-6
 11
338.721
 21
0
  0
LINE
  8
0
 10
338.721
 20
0
 11
330.581
 21
0
  0
LINE
  8
0
 10
330.581
 20
0
 11
330.581
 21
-6
  0
LINE
  8
0
 10
330.581
 20
-6
 11
322.442
 21
-6
  0
LINE
  8
0
 10
322.442
 20
-6
 11
322.442
 21
0
  0
LINE
  8
0
 10
322.442
 20
0
 11
314.302
 21
0
  0
LINE
  8
0
 10
314.302
 20
0
 11
314.302
 21
-6
  0
LINE
  8
0
 10
314.302
 20
-6
 11
306.163
 21
-6
  0
LINE
  8
0
 10
306.163
 20
-6
 11
306.163
 21
0
  0
LINE
  8
0
 10
306.163
 20
0
 11
298.023
 21
0
  0
LINE
  8
0
 10
298.023
 20
0
 11
298.023
 21
-6
  0
LINE
  8
0
 10
298.023
 20
-6
 11
289.884
 21
-6
  0
LINE
  8
0
 10
289.884
 20
-6
 11
289.884
 21
0
  0
LINE
  8
0
 10
289.884
 20
0
 11
281.744
 21
0
  0
LINE
  8
0
 10
281.744
 20
0
 11
281.744
 21
-6
  0
LINE
  8
0
 10
281.744
 20
-6
 11
273.605
 21
-6
  0
LINE
  8
0
 10
273.605
 20
-6
 11
273.605
 21
0
  0
LINE
  8
0
 10
273.605
 20
0
 11
265.465
 21
0
  0
LINE
  8
0
 10
265.465
 20
0
 11
265.465
 21
-6
  0
LINE
  8
0
 10
265.465
 20
-6
 11
257.326
 21
-6
  0
LINE
  8
0
 10
257.326
 20
-6
 11
257.326
 21
0
  0
LINE
  8
0
 10
257.326
 20
0
 11
249.186
 21
0
  0
LINE
  8
0
 10
249.186
 20
0
 11
249.186
 21
-6
  0
LINE
  8
0
 10
249.186
 20
-6
 11
241.047
 21
-6
  0
LINE
  8
0
 10
241.047
 20
-6
 11
241.047
 21
0
  0
LINE
  8
0
 10
241.047
 20
0
 11
232.907
 21
0
  0
LINE
  8
0
 10
232.907
 20
0
 11
232.907
 21
-6
  0
LINE
  8
0
 10
232.907
 20
-6
 11
224.767
 21
-6
  0
LINE
  8
0
 10
224.767
 20
-6
 11
224.767
 21
0
  0
LINE
  8
0
 10
224.767
 20
0
 11
216.628
 21
0
  0
LINE
  8
0
 10
216.628
 20
0
 11
216.628
 21
-6
  0
LINE
  8
0
 10
216.628
 20
-6
 11
208.488
 21
-6
  0
LINE
  8
0
 10
208.488
 20
-6
 11
208.488
 21
0
  0
LINE
  8
0
 10
208.488
 20
0
 11
200.349
 21
0
  0
LINE
  8
0
 10
200.349
 20
0
 11
200.349
 21
-6
  0
LINE
  8
0
 10
200.349
 20
-6
 11
192.209
 21
-6
  0
LINE
  8
0
 10
192.209
 20
-6
 11
192.209
 21
0
  0
LINE
  8
0
 10
192.209
 20
0
 11
184.07
 21
0
  0
LINE
  8
0
 10
184.07
 20
0
 11
184.07
 21
-6
  0
LINE
  8
0
 10
184.07
 20
-6
 11
175.93
 21
-6
  0
LINE
  8
0
 10
175.93
 20
-6
 11
175.93
 21
0
  0
LINE
  8
0
 10
175.93
 20
0
 11
167.791
 21
0
  0
LINE
  8
0
 10
167.791
 20
0
 11
167.791
 21
-6
  0
LINE
  8
0
 10
167.791
 20
-6
 11
159.651
 21
-6
  0
LINE
  8
0
 10
159.651
 20
-6
 11
159.651
 21
0
  0
LINE
  8
0
 10
159.651
 20
0
 11
151.512
 21
0
  0
LINE
  8
0
 10
151.512
 20
0
 11
151.512
 21
-6
  0
LINE
  8
0
 10
151.512
 20
-6
 11
143.372
 21
-6
  0
LINE
  8
0
 10
143.372
 20
-6
 11
143.372
 21
0
  0
LINE
  8
0
 10
143.372
 20
0
 11
135.233
 21
0
  0
LINE
  8
0
 10
135.233
 20
0
 11
135.233
 21
-6
  0
LINE
  8
0
 10
135.233
 20
-6
 11
127.093
 21
-6
  0
LINE
  8
0
 10
127.093
 20
-6
 11
127.093
 21
0
  0
LINE
  8
0
 10
127.093
 20
0
 11
118.953
 21
0
  0
LINE
  8
0
 10
118.953
 20
0
 11
118.953
 21
-6
  0
LINE
  8
0
 10
118.953
 20
-6
 11
110.814
 21
-6
  0
LINE
  8
0
 10
110.814
 20
-6
 11
110.814
 21
0
  0
LINE
  8
0
 10
110.814
 20
0
 11
102.674
 21
0
  0
LINE
  8
0
 10
102.674
 20
0
 11
102.674
 21
-6
  0
LINE
  8
0
 10
102.674
 20
-6
 11
94.5349
 21
-6
  0
LINE
  8
0
 10
94.5349
 20
-6
 11
94.5349
 21
0
  0
LINE
  8
0
 10
94.5349
 20
0
 11
86.3953
 21
0
  0
LINE
  8
0
 10
86.3953
 20
0
 11
86.3953
 21
-6
  0
LINE
  8
0
 10
86.3953
 20
-6
 11
78.2558
 21
-6
  0
LINE
  8
0
 10
78.2558
 20
-6
 11
78.2558
 21
0
  0
LINE
  8
0
 10
78.2558
 20
0
 11
70.1163
 21
0
  0
LINE
  8
0
 10
70.1163
 20
0
 11
70.1163
 21
-6
  0
LINE
  8
0
 10
70.1163
 20
-6
 11
61.9767
 21
-6
  0
LINE
  8
0
 10
61.9767
 20
-6
 11
61.9767
 21
0
  0
LINE
  8
0
 10
61.9767
 20
0
 11
53.8372
 21
0
  0
LINE
  8
0
 10
53.8372
 20
0
 11
53.8372
 21
-6
  0
LINE
  8
0
 10
53.8372
 20
-6
 11
45.6977
 21
-6
  0
LINE
  8
0
 10
45.6977
 20
-6
 11
45.6977
 21
0
  0
LINE
  8
0
 10
45.6977
 20
0
 11
37.5581
 21
0
  0
LINE
  8
0
 10
37.5581
 20
0
 11
37.5581
 21
-6
  0
LINE
  8
0
 10
37.5581
 20
-6
 11
29.4186
 21
-6
  0
LINE
  8
0
 10
29.4186
 20
-6
 11
29.4186
 21
0
  0
LINE
  8
0
 10
29.4186
 20
0
 11
21.2791
 21
0
  0
LINE
  8
0
 10
21.2791
 20
0
 11
21.2791
 21
-6
  0
LINE
  8
0
 10
21.2791
 20
-6
 11
13.1395
 21
-6
  0
LINE
  8
0
 10
13.1395
 20
-6
 11
13.1395
 21
0
  0
LINE
  8
0
 10
13.1395
 20
0
 11
5
 21
0
  0
LINE
  8
0
 10
5
 20
0
 11
5
 21
-6.66667
  0
LINE
  8
0
 10
5
 20
-6.66667
 11
0
 21
-6.66667
  0
LINE
  8
0
 10
0
 20
-6.66667
 11
0
 21
-13.3333
  0
ENDSEC
  0
SECTION
  2
OBJECTS
  0
DICTIONARY
  0
ENDSEC
  0
EOF
