  0
SECTION
  2
BLOCKS
  0
ENDSEC
  0
SECTION
  2
ENTITIES
  0
LINE
  8
0
 10
0
 20
-13.3333
 11
5
 21
-13.3333
  0
LINE
  8
0
 10
5
 20
-13.3333
 11
5
 21
-20
  0
LINE
  8
0
 10
5
 20
-20
 11
345
 21
-20
  0
LINE
  8
0
 10
345
 20
-20
 11
345
 21
-13.3333
  0
LINE
  8
0
 10
345
 20
-13.3333
 11
350
 21
-13.3333
  0
LINE
  8
0
 10
350
 20
-13.3333
 11
350
 21
-6.66667
  0
LINE
  8
0
 10
350
 20
-6.66667
 11
345
 21
-6.66667
  0
LINE
  8
0
 10
345
 20
-6.66667
 11
345
 21
0
  0
LINE
  8
0
 10
345
 20
0
 11
336.707
 21
0
  0
LINE
  8
0
 10
336.707
 20
0
 11
336.707
 21
-6
  0
LINE
  8
0
 10
336.707
 20
-6
 11
328.415
 21
-6
  0
LINE
  8
0
 10
328.415
 20
-6
 11
328.415
 21
0
  0
LINE
  8
0
 10
328.415
 20
0
 11
320.122
 21
0
  0
LINE
  8
0
 10
320.122
 20
0
 11
320.122
 21
-6
  0
LINE
  8
0
 10
320.122
 20
-6
 11
311.829
 21
-6
  0
LINE
  8
0
 10
311.829
 20
-6
 11
311.829
 21
0
  0
LINE
  8
0
 10
311.829
 20
0
 11
303.537
 21
0
  0
LINE
  8
0
 10
303.537
 20
0
 11
303.537
 21
-6
  0
LINE
  8
0
 10
303.537
 20
-6
 11
295.244
 21
-6
  0
LINE
  8
0
 10
295.244
 20
-6
 11
295.244
 21
0
  0
LINE
  8
0
 10
295.244
 20
0
 11
286.951
 21
0
  0
LINE
  8
0
 10
286.951
 20
0
 11
286.951
 21
-6
  0
LINE
  8
0
 10
286.951
 20
-6
 11
278.659
 21
-6
  0
LINE
  8
0
 10
278.659
 20
-6
 11
278.659
 21
0
  0
LINE
  8
0
 10
278.659
 20
0
 11
270.366
 21
0
  0
LINE
  8
0
 10
270.366
 20
0
 11
270.366
 21
-6
  0
LINE
  8
0
 10
270.366
 20
-6
 11
262.073
 21
-6
  0
LINE
  8
0
 10
262.073
 20
-6
 11
262.073
 21
0
  0
LINE
  8
0
 10
262.073
 20
0
 11
253.78
 21
0
  0
LINE
  8
0
 10
253.78
 20
0
 11
253.78
 21
-6
  0
LINE
  8
0
 10
253.78
 20
-6
 11
245.488
 21
-6
  0
LINE
  8
0
 10
245.488
 20
-6
 11
245.488
 21
0
  0
LINE
  8
0
 10
245.488
 20
0
 11
237.195
 21
0
  0
LINE
  8
0
 10
237.195
 20
0
 11
237.195
 21
-6
  0
LINE
  8
0
 10
237.195
 20
-6
 11
228.902
 21
-6
  0
LINE
  8
0
 10
228.902
 20
-6
 11
228.902
 21
0
  0
LINE
  8
0
 10
228.902
 20
0
 11
220.61
 21
0
  0
LINE
  8
0
 10
220.61
 20
0
 11
220.61
 21
-6
  0
LINE
  8
0
 10
220.61
 20
-6
 11
212.317
 21
-6
  0
LINE
  8
0
 10
212.317
 20
-6
 11
212.317
 21
0
  0
LINE
  8
0
 10
212.317
 20
0
 11
204.024
 21
0
  0
LINE
  8
0
 10
204.024
 20
0
 11
204.024
 21
-6
  0
LINE
  8
0
 10
204.024
 20
-6
 11
195.732
 21
-6
  0
LINE
  8
0
 10
195.732
 20
-6
 11
195.732
 21
0
  0
LINE
  8
0
 10
195.732
 20
0
 11
187.439
 21
0
  0
LINE
  8
0
 10
187.439
 20
0
 11
187.439
 21
-6
  0
LINE
  8
0
 10
187.439
 20
-6
 11
179.146
 21
-6
  0
LINE
  8
0
 10
179.146
 20
-6
 11
179.146
 21
0
  0
LINE
  8
0
 10
179.146
 20
0
 11
170.854
 21
0
  0
LINE
  8
0
 10
170.854
 20
0
 11
170.854
 21
-6
  0
LINE
  8
0
 10
170.854
 20
-6
 11
162.561
 21
-6
  0
LINE
  8
0
 10
162.561
 20
-6
 11
162.561
 21
0
  0
LINE
  8
0
 10
162.561
 20
0
 11
154.268
 21
0
  0
LINE
  8
0
 10
154.268
 20
0
 11
154.268
 21
-6
  0
LINE
  8
0
 10
154.268
 20
-6
 11
145.976
 21
-6
  0
LINE
  8
0
 10
145.976
 20
-6
 11
145.976
 21
0
  0
LINE
  8
0
 10
145.976
 20
0
 11
137.683
 21
0
  0
LINE
  8
0
 10
137.683
 20
0
 11
137.683
 21
-6
  0
LINE
  8
0
 10
137.683
 20
-6
 11
129.39
 21
-6
  0
LINE
  8
0
 10
129.39
 20
-6
 11
129.39
 21
0
  0
LINE
  8
0
 10
129.39
 20
0
 11
121.098
 21
0
  0
LINE
  8
0
 10
121.098
 20
0
 11
121.098
 21
-6
  0
LINE
  8
0
 10
121.098
 20
-6
 11
112.805
 21
-6
  0
LINE
  8
0
 10
112.805
 20
-6
 11
112.805
 21
0
  0
LINE
  8
0
 10
112.805
 20
0
 11
104.512
 21
0
  0
LINE
  8
0
 10
104.512
 20
0
 11
104.512
 21
-6
  0
LINE
  8
0
 10
104.512
 20
-6
 11
96.2195
 21
-6
  0
LINE
  8
0
 10
96.2195
 20
-6
 11
96.2195
 21
0
  0
LINE
  8
0
 10
96.2195
 20
0
 11
87.9268
 21
0
  0
LINE
  8
0
 10
87.9268
 20
0
 11
87.9268
 21
-6
  0
LINE
  8
0
 10
87.9268
 20
-6
 11
79.6341
 21
-6
  0
LINE
  8
0
 10
79.6341
 20
-6
 11
79.6341
 21
0
  0
LINE
  8
0
 10
79.6341
 20
0
 11
71.3415
 21
0
  0
LINE
  8
0
 10
71.3415
 20
0
 11
71.3415
 21
-6
  0
LINE
  8
0
 10
71.3415
 20
-6
 11
63.0488
 21
-6
  0
LINE
  8
0
 10
63.0488
 20
-6
 11
63.0488
 21
0
  0
LINE
  8
0
 10
63.0488
 20
0
 11
54.7561
 21
0
  0
LINE
  8
0
 10
54.7561
 20
0
 11
54.7561
 21
-6
  0
LINE
  8
0
 10
54.7561
 20
-6
 11
46.4634
 21
-6
  0
LINE
  8
0
 10
46.4634
 20
-6
 11
46.4634
 21
0
  0
LINE
  8
0
 10
46.4634
 20
0
 11
38.1707
 21
0
  0
LINE
  8
0
 10
38.1707
 20
0
 11
38.1707
 21
-6
  0
LINE
  8
0
 10
38.1707
 20
-6
 11
29.878
 21
-6
  0
LINE
  8
0
 10
29.878
 20
-6
 11
29.878
 21
0
  0
LINE
  8
0
 10
29.878
 20
0
 11
21.5854
 21
0
  0
LINE
  8
0
 10
21.5854
 20
0
 11
21.5854
 21
-6
  0
LINE
  8
0
 10
21.5854
 20
-6
 11
13.2927
 21
-6
  0
LINE
  8
0
 10
13.2927
 20
-6
 11
13.2927
 21
0
  0
LINE
  8
0
 10
13.2927
 20
0
 11
5
 21
0
  0
LINE
  8
0
 10
5
 20
0
 11
5
 21
-6.66667
  0
LINE
  8
0
 10
5
 20
-6.66667
 11
0
 21
-6.66667
  0
LINE
  8
0
 10
0
 20
-6.66667
 11
0
 21
-13.3333
  0
ENDSEC
  0
SECTION
  2
OBJECTS
  0
DICTIONARY
  0
ENDSEC
  0
EOF
