<?xml version="1.0" standalone="no"?>
<!DOCTYPE svg PUBLIC "-//W3C//DTD SVG 1.1//EN" "http://www.w3.org/Graphics/SVG/1.1/DTD/svg11.dtd">
<svg width="360mm" height="20mm" viewBox="0 0 360 20" xmlns="http://www.w3.org/2000/svg" version="1.1">
<title>OpenSCAD Model</title>
<path d="
M 0,13.5833 L 5,13.5833 L 5,20 L 355,20 L 355,13.5833 L 360,13.5833
 L 360,6.41667 L 355,6.41667 L 355,-0 L 346.61,-0 L 346.61,6 L 338.971,6
 L 338.971,-0 L 330.331,-0 L 330.331,6 L 322.692,6 L 322.692,-0 L 314.052,-0
 L 314.052,6 L 306.413,6 L 306.413,-0 L 297.773,-0 L 297.773,6 L 290.134,6
 L 290.134,-0 L 281.494,-0 L 281.494,6 L 273.855,6 L 273.855,-0 L 265.215,-0
 L 265.215,6 L 257.576,6 L 257.576,-0 L 248.936,-0 L 248.936,6 L 241.297,6
 L 241.297,-0 L 232.657,-0 L 232.657,6 L 225.017,6 L 225.017,-0 L 216.378,-0
 L 216.378,6 L 208.738,6 L 208.738,-0 L 200.099,-0 L 200.099,6 L 192.459,6
 L 192.459,-0 L 183.82,-0 L 183.82,6 L 176.18,6 L 176.18,-0 L 167.541,-0
 L 167.541,6 L 159.901,6 L 159.901,-0 L 151.262,-0 L 151.262,6 L 143.622,6
 L 143.622,-0 L 134.983,-0 L 134.983,6 L 127.343,6 L 127.343,-0 L 118.703,-0
 L 118.703,6 L 111.064,6 L 111.064,-0 L 102.424,-0 L 102.424,6 L 94.7849,6
 L 94.7849,-0 L 86.1453,-0 L 86.1453,6 L 78.5058,6 L 78.5058,-0 L 69.8663,-0
 L 69.8663,6 L 62.2267,6 L 62.2267,-0 L 53.5872,-0 L 53.5872,6 L 45.9477,6
 L 45.9477,-0 L 37.3081,-0 L 37.3081,6 L 29.6686,6 L 29.6686,-0 L 21.0291,-0
 L 21.0291,6 L 13.3895,6 L 13.3895,-0 L 5,-0 L 5,6.41667 L 0,6.41667
 z
" stroke="black" fill="lightgray" stroke-width="0.5"/>
</svg>
