<?xml version="1.0" standalone="no"?>
<!DOCTYPE svg PUBLIC "-//W3C//DTD SVG 1.1//EN" "http://www.w3.org/Graphics/SVG/1.1/DTD/svg11.dtd">
<svg width="350mm" height="20mm" viewBox="0 0 350 20" xmlns="http://www.w3.org/2000/svg" version="1.1">
<title>OpenSCAD Model</title>
<path d="
M 0,13.3333 L 5,13.3333 L 5,20 L 345,20 L 345,13.3333 L 350,13.3333
 L 350,6.66667 L 345,6.66667 L 345,-0 L 336.707,-0 L 336.707,6 L 328.415,6
 L 328.415,-0 L 320.122,-0 L 320.122,6 L 311.829,6 L 311.829,-0 L 303.537,-0
 L 303.537,6 L 295.244,6 L 295.244,-0 L 286.951,-0 L 286.951,6 L 278.659,6
 L 278.659,-0 L 270.366,-0 L 270.366,6 L 262.073,6 L 262.073,-0 L 253.78,-0
 L 253.78,6 L 245.488,6 L 245.488,-0 L 237.195,-0 L 237.195,6 L 228.902,6
 L 228.902,-0 L 220.61,-0 L 220.61,6 L 212.317,6 L 212.317,-0 L 204.024,-0
 L 204.024,6 L 195.732,6 L 195.732,-0 L 187.439,-0 L 187.439,6 L 179.146,6
 L 179.146,-0 L 170.854,-0 L 170.854,6 L 162.561,6 L 162.561,-0 L 154.268,-0
 L 154.268,6 L 145.976,6 L 145.976,-0 L 137.683,-0 L 137.683,6 L 129.39,6
 L 129.39,-0 L 121.098,-0 L 121.098,6 L 112.805,6 L 112.805,-0 L 104.512,-0
 L 104.512,6 L 96.2195,6 L 96.2195,-0 L 87.9268,-0 L 87.9268,6 L 79.6341,6
 L 79.6341,-0 L 71.3415,-0 L 71.3415,6 L 63.0488,6 L 63.0488,-0 L 54.7561,-0
 L 54.7561,6 L 46.4634,6 L 46.4634,-0 L 38.1707,-0 L 38.1707,6 L 29.878,6
 L 29.878,-0 L 21.5854,-0 L 21.5854,6 L 13.2927,6 L 13.2927,-0 L 5,-0
 L 5,6.66667 L 0,6.66667 z
" stroke="black" fill="lightgray" stroke-width="0.5"/>
</svg>
