<?xml version="1.0" standalone="no"?>
<!DOCTYPE svg PUBLIC "-//W3C//DTD SVG 1.1//EN" "http://www.w3.org/Graphics/SVG/1.1/DTD/svg11.dtd">
<svg width="362mm" height="210mm" viewBox="0 -210 362 210" xmlns="http://www.w3.org/2000/svg" version="1.1">
<title>OpenSCAD Model</title>
<path d="
M 0,-16.65 L 5.85,-16.65 L 5.85,-5.85 L 13.036,-5.85 L 13.036,-0 L 21.5221,-0
 L 21.5221,-5.85 L 29.4081,-5.85 L 29.4081,-0 L 37.8942,-0 L 37.8942,-5.85 L 45.7802,-5.85
 L 45.7802,-0 L 54.2663,-0 L 54.2663,-5.85 L 62.1523,-5.85 L 62.1523,-0 L 70.6384,-0
 L 70.6384,-5.85 L 78.5244,-5.85 L 78.5244,-0 L 87.0105,-0 L 87.0105,-5.85 L 94.8965,-5.85
 L 94.8965,-0 L 103.383,-0 L 103.383,-5.85 L 111.269,-5.85 L 111.269,-0 L 119.755,-0
 L 119.755,-5.85 L 127.641,-5.85 L 127.641,-0 L 136.127,-0 L 136.127,-5.85 L 144.013,-5.85
 L 144.013,-0 L 152.499,-0 L 152.499,-5.85 L 160.385,-5.85 L 160.385,-0 L 168.871,-0
 L 168.871,-5.85 L 176.757,-5.85 L 176.757,-0 L 185.243,-0 L 185.243,-5.85 L 193.129,-5.85
 L 193.129,-0 L 201.615,-0 L 201.615,-5.85 L 209.501,-5.85 L 209.501,-0 L 217.987,-0
 L 217.987,-5.85 L 225.873,-5.85 L 225.873,-0 L 234.359,-0 L 234.359,-5.85 L 242.245,-5.85
 L 242.245,-0 L 250.731,-0 L 250.731,-5.85 L 258.617,-5.85 L 258.617,-0 L 267.103,-0
 L 267.103,-5.85 L 274.99,-5.85 L 274.99,-0 L 283.476,-0 L 283.476,-5.85 L 291.362,-5.85
 L 291.362,-0 L 299.848,-0 L 299.848,-5.85 L 307.734,-5.85 L 307.734,-0 L 316.22,-0
 L 316.22,-5.85 L 324.106,-5.85 L 324.106,-0 L 332.592,-0 L 332.592,-5.85 L 340.478,-5.85
 L 340.478,-0 L 348.964,-0 L 348.964,-5.85 L 356.15,-5.85 L 356.15,-16.65 L 362,-16.65
 L 362,-25.35 L 356.15,-25.35 L 356.15,-33.45 L 362,-33.45 L 362,-42.15 L 356.15,-42.15
 L 356.15,-50.25 L 362,-50.25 L 362,-58.95 L 356.15,-58.95 L 356.15,-67.05 L 362,-67.05
 L 362,-75.75 L 356.15,-75.75 L 356.15,-83.85 L 362,-83.85 L 362,-92.55 L 356.15,-92.55
 L 356.15,-100.65 L 362,-100.65 L 362,-109.35 L 356.15,-109.35 L 356.15,-117.45 L 362,-117.45
 L 362,-126.15 L 356.15,-126.15 L 356.15,-134.25 L 362,-134.25 L 362,-142.95 L 356.15,-142.95
 L 356.15,-151.05 L 362,-151.05 L 362,-159.75 L 356.15,-159.75 L 356.15,-167.85 L 362,-167.85
 L 362,-176.55 L 356.15,-176.55 L 356.15,-184.65 L 362,-184.65 L 362,-193.35 L 356.15,-193.35
 L 356.15,-204.15 L 348.964,-204.15 L 348.964,-210 L 340.478,-210 L 340.478,-204.15 L 332.592,-204.15
 L 332.592,-210 L 324.106,-210 L 324.106,-204.15 L 316.22,-204.15 L 316.22,-210 L 307.734,-210
 L 307.734,-204.15 L 299.848,-204.15 L 299.848,-210 L 291.362,-210 L 291.362,-204.15 L 283.476,-204.15
 L 283.476,-210 L 274.99,-210 L 274.99,-204.15 L 267.103,-204.15 L 267.103,-210 L 258.617,-210
 L 258.617,-204.15 L 250.731,-204.15 L 250.731,-210 L 242.245,-210 L 242.245,-204.15 L 234.359,-204.15
 L 234.359,-210 L 225.873,-210 L 225.873,-204.15 L 217.987,-204.15 L 217.987,-210 L 209.501,-210
 L 209.501,-204.15 L 201.615,-204.15 L 201.615,-210 L 193.129,-210 L 193.129,-204.15 L 185.243,-204.15
 L 185.243,-210 L 176.757,-210 L 176.757,-204.15 L 168.871,-204.15 L 168.871,-210 L 160.385,-210
 L 160.385,-204.15 L 152.499,-204.15 L 152.499,-210 L 144.013,-210 L 144.013,-204.15 L 136.127,-204.15
 L 136.127,-210 L 127.641,-210 L 127.641,-204.15 L 119.755,-204.15 L 119.755,-210 L 111.269,-210
 L 111.269,-204.15 L 103.383,-204.15 L 103.383,-210 L 94.8965,-210 L 94.8965,-204.15 L 87.0105,-204.15
 L 87.0105,-210 L 78.5244,-210 L 78.5244,-204.15 L 70.6384,-204.15 L 70.6384,-210 L 62.1523,-210
 L 62.1523,-204.15 L 54.2663,-204.15 L 54.2663,-210 L 45.7802,-210 L 45.7802,-204.15 L 37.8942,-204.15
 L 37.8942,-210 L 29.4081,-210 L 29.4081,-204.15 L 21.5221,-204.15 L 21.5221,-210 L 13.036,-210
 L 13.036,-204.15 L 5.85,-204.15 L 5.85,-193.35 L 0,-193.35 L 0,-184.65 L 5.85,-184.65
 L 5.85,-176.55 L 0,-176.55 L 0,-167.85 L 5.85,-167.85 L 5.85,-159.75 L 0,-159.75
 L 0,-151.05 L 5.85,-151.05 L 5.85,-142.95 L 0,-142.95 L 0,-134.25 L 5.85,-134.25
 L 5.85,-126.15 L 0,-126.15 L 0,-117.45 L 5.85,-117.45 L 5.85,-109.35 L 0,-109.35
 L 0,-100.65 L 5.85,-100.65 L 5.85,-92.55 L 0,-92.55 L 0,-83.85 L 5.85,-83.85
 L 5.85,-75.75 L 0,-75.75 L 0,-67.05 L 5.85,-67.05 L 5.85,-58.95 L 0,-58.95
 L 0,-50.25 L 5.85,-50.25 L 5.85,-42.15 L 0,-42.15 L 0,-33.45 L 5.85,-33.45
 L 5.85,-25.35 L 0,-25.35 z
" stroke="black" fill="lightgray" stroke-width="0.5"/>
</svg>
