  0
SECTION
  2
BLOCKS
  0
ENDSEC
  0
SECTION
  2
ENTITIES
  0
LINE
  8
0
 10
0
 20
16
 11
5
 21
16
  0
LINE
  8
0
 10
5
 20
16
 11
5
 21
5
  0
LINE
  8
0
 10
5
 20
5
 11
13.2927
 21
5
  0
LINE
  8
0
 10
13.2927
 20
5
 11
13.2927
 21
0
  0
LINE
  8
0
 10
13.2927
 20
0
 11
21.5854
 21
0
  0
LINE
  8
0
 10
21.5854
 20
0
 11
21.5854
 21
5
  0
LINE
  8
0
 10
21.5854
 20
5
 11
29.878
 21
5
  0
LINE
  8
0
 10
29.878
 20
5
 11
29.878
 21
0
  0
LINE
  8
0
 10
29.878
 20
0
 11
38.1707
 21
0
  0
LINE
  8
0
 10
38.1707
 20
0
 11
38.1707
 21
5
  0
LINE
  8
0
 10
38.1707
 20
5
 11
46.4634
 21
5
  0
LINE
  8
0
 10
46.4634
 20
5
 11
46.4634
 21
0
  0
LINE
  8
0
 10
46.4634
 20
0
 11
54.7561
 21
0
  0
LINE
  8
0
 10
54.7561
 20
0
 11
54.7561
 21
5
  0
LINE
  8
0
 10
54.7561
 20
5
 11
63.0488
 21
5
  0
LINE
  8
0
 10
63.0488
 20
5
 11
63.0488
 21
0
  0
LINE
  8
0
 10
63.0488
 20
0
 11
71.3415
 21
0
  0
LINE
  8
0
 10
71.3415
 20
0
 11
71.3415
 21
5
  0
LINE
  8
0
 10
71.3415
 20
5
 11
79.6341
 21
5
  0
LINE
  8
0
 10
79.6341
 20
5
 11
79.6341
 21
0
  0
LINE
  8
0
 10
79.6341
 20
0
 11
87.9268
 21
0
  0
LINE
  8
0
 10
87.9268
 20
0
 11
87.9268
 21
5
  0
LINE
  8
0
 10
87.9268
 20
5
 11
96.2195
 21
5
  0
LINE
  8
0
 10
96.2195
 20
5
 11
96.2195
 21
0
  0
LINE
  8
0
 10
96.2195
 20
0
 11
104.512
 21
0
  0
LINE
  8
0
 10
104.512
 20
0
 11
104.512
 21
5
  0
LINE
  8
0
 10
104.512
 20
5
 11
112.805
 21
5
  0
LINE
  8
0
 10
112.805
 20
5
 11
112.805
 21
0
  0
LINE
  8
0
 10
112.805
 20
0
 11
121.098
 21
0
  0
LINE
  8
0
 10
121.098
 20
0
 11
121.098
 21
5
  0
LINE
  8
0
 10
121.098
 20
5
 11
129.39
 21
5
  0
LINE
  8
0
 10
129.39
 20
5
 11
129.39
 21
0
  0
LINE
  8
0
 10
129.39
 20
0
 11
137.683
 21
0
  0
LINE
  8
0
 10
137.683
 20
0
 11
137.683
 21
5
  0
LINE
  8
0
 10
137.683
 20
5
 11
145.976
 21
5
  0
LINE
  8
0
 10
145.976
 20
5
 11
145.976
 21
0
  0
LINE
  8
0
 10
145.976
 20
0
 11
154.268
 21
0
  0
LINE
  8
0
 10
154.268
 20
0
 11
154.268
 21
5
  0
LINE
  8
0
 10
154.268
 20
5
 11
162.561
 21
5
  0
LINE
  8
0
 10
162.561
 20
5
 11
162.561
 21
0
  0
LINE
  8
0
 10
162.561
 20
0
 11
170.854
 21
0
  0
LINE
  8
0
 10
170.854
 20
0
 11
170.854
 21
5
  0
LINE
  8
0
 10
170.854
 20
5
 11
179.146
 21
5
  0
LINE
  8
0
 10
179.146
 20
5
 11
179.146
 21
0
  0
LINE
  8
0
 10
179.146
 20
0
 11
187.439
 21
0
  0
LINE
  8
0
 10
187.439
 20
0
 11
187.439
 21
5
  0
LINE
  8
0
 10
187.439
 20
5
 11
195.732
 21
5
  0
LINE
  8
0
 10
195.732
 20
5
 11
195.732
 21
0
  0
LINE
  8
0
 10
195.732
 20
0
 11
204.024
 21
0
  0
LINE
  8
0
 10
204.024
 20
0
 11
204.024
 21
5
  0
LINE
  8
0
 10
204.024
 20
5
 11
212.317
 21
5
  0
LINE
  8
0
 10
212.317
 20
5
 11
212.317
 21
0
  0
LINE
  8
0
 10
212.317
 20
0
 11
220.61
 21
0
  0
LINE
  8
0
 10
220.61
 20
0
 11
220.61
 21
5
  0
LINE
  8
0
 10
220.61
 20
5
 11
228.902
 21
5
  0
LINE
  8
0
 10
228.902
 20
5
 11
228.902
 21
0
  0
LINE
  8
0
 10
228.902
 20
0
 11
237.195
 21
0
  0
LINE
  8
0
 10
237.195
 20
0
 11
237.195
 21
5
  0
LINE
  8
0
 10
237.195
 20
5
 11
245.488
 21
5
  0
LINE
  8
0
 10
245.488
 20
5
 11
245.488
 21
0
  0
LINE
  8
0
 10
245.488
 20
0
 11
253.78
 21
0
  0
LINE
  8
0
 10
253.78
 20
0
 11
253.78
 21
5
  0
LINE
  8
0
 10
253.78
 20
5
 11
262.073
 21
5
  0
LINE
  8
0
 10
262.073
 20
5
 11
262.073
 21
0
  0
LINE
  8
0
 10
262.073
 20
0
 11
270.366
 21
0
  0
LINE
  8
0
 10
270.366
 20
0
 11
270.366
 21
5
  0
LINE
  8
0
 10
270.366
 20
5
 11
278.659
 21
5
  0
LINE
  8
0
 10
278.659
 20
5
 11
278.659
 21
0
  0
LINE
  8
0
 10
278.659
 20
0
 11
286.951
 21
0
  0
LINE
  8
0
 10
286.951
 20
0
 11
286.951
 21
5
  0
LINE
  8
0
 10
286.951
 20
5
 11
295.244
 21
5
  0
LINE
  8
0
 10
295.244
 20
5
 11
295.244
 21
0
  0
LINE
  8
0
 10
295.244
 20
0
 11
303.537
 21
0
  0
LINE
  8
0
 10
303.537
 20
0
 11
303.537
 21
5
  0
LINE
  8
0
 10
303.537
 20
5
 11
311.829
 21
5
  0
LINE
  8
0
 10
311.829
 20
5
 11
311.829
 21
0
  0
LINE
  8
0
 10
311.829
 20
0
 11
320.122
 21
0
  0
LINE
  8
0
 10
320.122
 20
0
 11
320.122
 21
5
  0
LINE
  8
0
 10
320.122
 20
5
 11
328.415
 21
5
  0
LINE
  8
0
 10
328.415
 20
5
 11
328.415
 21
0
  0
LINE
  8
0
 10
328.415
 20
0
 11
336.707
 21
0
  0
LINE
  8
0
 10
336.707
 20
0
 11
336.707
 21
5
  0
LINE
  8
0
 10
336.707
 20
5
 11
345
 21
5
  0
LINE
  8
0
 10
345
 20
5
 11
345
 21
16
  0
LINE
  8
0
 10
345
 20
16
 11
350
 21
16
  0
LINE
  8
0
 10
350
 20
16
 11
350
 21
24
  0
LINE
  8
0
 10
350
 20
24
 11
345
 21
24
  0
LINE
  8
0
 10
345
 20
24
 11
345
 21
32
  0
LINE
  8
0
 10
345
 20
32
 11
350
 21
32
  0
LINE
  8
0
 10
350
 20
32
 11
350
 21
40
  0
LINE
  8
0
 10
350
 20
40
 11
345
 21
40
  0
LINE
  8
0
 10
345
 20
40
 11
345
 21
48
  0
LINE
  8
0
 10
345
 20
48
 11
350
 21
48
  0
LINE
  8
0
 10
350
 20
48
 11
350
 21
56
  0
LINE
  8
0
 10
350
 20
56
 11
345
 21
56
  0
LINE
  8
0
 10
345
 20
56
 11
345
 21
64
  0
LINE
  8
0
 10
345
 20
64
 11
350
 21
64
  0
LINE
  8
0
 10
350
 20
64
 11
350
 21
72
  0
LINE
  8
0
 10
350
 20
72
 11
345
 21
72
  0
LINE
  8
0
 10
345
 20
72
 11
345
 21
80
  0
LINE
  8
0
 10
345
 20
80
 11
350
 21
80
  0
LINE
  8
0
 10
350
 20
80
 11
350
 21
88
  0
LINE
  8
0
 10
350
 20
88
 11
345
 21
88
  0
LINE
  8
0
 10
345
 20
88
 11
345
 21
96
  0
LINE
  8
0
 10
345
 20
96
 11
350
 21
96
  0
LINE
  8
0
 10
350
 20
96
 11
350
 21
104
  0
LINE
  8
0
 10
350
 20
104
 11
345
 21
104
  0
LINE
  8
0
 10
345
 20
104
 11
345
 21
112
  0
LINE
  8
0
 10
345
 20
112
 11
350
 21
112
  0
LINE
  8
0
 10
350
 20
112
 11
350
 21
120
  0
LINE
  8
0
 10
350
 20
120
 11
345
 21
120
  0
LINE
  8
0
 10
345
 20
120
 11
345
 21
128
  0
LINE
  8
0
 10
345
 20
128
 11
350
 21
128
  0
LINE
  8
0
 10
350
 20
128
 11
350
 21
136
  0
LINE
  8
0
 10
350
 20
136
 11
345
 21
136
  0
LINE
  8
0
 10
345
 20
136
 11
345
 21
144
  0
LINE
  8
0
 10
345
 20
144
 11
350
 21
144
  0
LINE
  8
0
 10
350
 20
144
 11
350
 21
152
  0
LINE
  8
0
 10
350
 20
152
 11
345
 21
152
  0
LINE
  8
0
 10
345
 20
152
 11
345
 21
160
  0
LINE
  8
0
 10
345
 20
160
 11
350
 21
160
  0
LINE
  8
0
 10
350
 20
160
 11
350
 21
168
  0
LINE
  8
0
 10
350
 20
168
 11
345
 21
168
  0
LINE
  8
0
 10
345
 20
168
 11
345
 21
176
  0
LINE
  8
0
 10
345
 20
176
 11
350
 21
176
  0
LINE
  8
0
 10
350
 20
176
 11
350
 21
184
  0
LINE
  8
0
 10
350
 20
184
 11
345
 21
184
  0
LINE
  8
0
 10
345
 20
184
 11
345
 21
195
  0
LINE
  8
0
 10
345
 20
195
 11
336.707
 21
195
  0
LINE
  8
0
 10
336.707
 20
195
 11
336.707
 21
200
  0
LINE
  8
0
 10
336.707
 20
200
 11
328.415
 21
200
  0
LINE
  8
0
 10
328.415
 20
200
 11
328.415
 21
195
  0
LINE
  8
0
 10
328.415
 20
195
 11
320.122
 21
195
  0
LINE
  8
0
 10
320.122
 20
195
 11
320.122
 21
200
  0
LINE
  8
0
 10
320.122
 20
200
 11
311.829
 21
200
  0
LINE
  8
0
 10
311.829
 20
200
 11
311.829
 21
195
  0
LINE
  8
0
 10
311.829
 20
195
 11
303.537
 21
195
  0
LINE
  8
0
 10
303.537
 20
195
 11
303.537
 21
200
  0
LINE
  8
0
 10
303.537
 20
200
 11
295.244
 21
200
  0
LINE
  8
0
 10
295.244
 20
200
 11
295.244
 21
195
  0
LINE
  8
0
 10
295.244
 20
195
 11
286.951
 21
195
  0
LINE
  8
0
 10
286.951
 20
195
 11
286.951
 21
200
  0
LINE
  8
0
 10
286.951
 20
200
 11
278.659
 21
200
  0
LINE
  8
0
 10
278.659
 20
200
 11
278.659
 21
195
  0
LINE
  8
0
 10
278.659
 20
195
 11
270.366
 21
195
  0
LINE
  8
0
 10
270.366
 20
195
 11
270.366
 21
200
  0
LINE
  8
0
 10
270.366
 20
200
 11
262.073
 21
200
  0
LINE
  8
0
 10
262.073
 20
200
 11
262.073
 21
195
  0
LINE
  8
0
 10
262.073
 20
195
 11
253.78
 21
195
  0
LINE
  8
0
 10
253.78
 20
195
 11
253.78
 21
200
  0
LINE
  8
0
 10
253.78
 20
200
 11
245.488
 21
200
  0
LINE
  8
0
 10
245.488
 20
200
 11
245.488
 21
195
  0
LINE
  8
0
 10
245.488
 20
195
 11
237.195
 21
195
  0
LINE
  8
0
 10
237.195
 20
195
 11
237.195
 21
200
  0
LINE
  8
0
 10
237.195
 20
200
 11
228.902
 21
200
  0
LINE
  8
0
 10
228.902
 20
200
 11
228.902
 21
195
  0
LINE
  8
0
 10
228.902
 20
195
 11
220.61
 21
195
  0
LINE
  8
0
 10
220.61
 20
195
 11
220.61
 21
200
  0
LINE
  8
0
 10
220.61
 20
200
 11
212.317
 21
200
  0
LINE
  8
0
 10
212.317
 20
200
 11
212.317
 21
195
  0
LINE
  8
0
 10
212.317
 20
195
 11
204.024
 21
195
  0
LINE
  8
0
 10
204.024
 20
195
 11
204.024
 21
200
  0
LINE
  8
0
 10
204.024
 20
200
 11
195.732
 21
200
  0
LINE
  8
0
 10
195.732
 20
200
 11
195.732
 21
195
  0
LINE
  8
0
 10
195.732
 20
195
 11
187.439
 21
195
  0
LINE
  8
0
 10
187.439
 20
195
 11
187.439
 21
200
  0
LINE
  8
0
 10
187.439
 20
200
 11
179.146
 21
200
  0
LINE
  8
0
 10
179.146
 20
200
 11
179.146
 21
195
  0
LINE
  8
0
 10
179.146
 20
195
 11
170.854
 21
195
  0
LINE
  8
0
 10
170.854
 20
195
 11
170.854
 21
200
  0
LINE
  8
0
 10
170.854
 20
200
 11
162.561
 21
200
  0
LINE
  8
0
 10
162.561
 20
200
 11
162.561
 21
195
  0
LINE
  8
0
 10
162.561
 20
195
 11
154.268
 21
195
  0
LINE
  8
0
 10
154.268
 20
195
 11
154.268
 21
200
  0
LINE
  8
0
 10
154.268
 20
200
 11
145.976
 21
200
  0
LINE
  8
0
 10
145.976
 20
200
 11
145.976
 21
195
  0
LINE
  8
0
 10
145.976
 20
195
 11
137.683
 21
195
  0
LINE
  8
0
 10
137.683
 20
195
 11
137.683
 21
200
  0
LINE
  8
0
 10
137.683
 20
200
 11
129.39
 21
200
  0
LINE
  8
0
 10
129.39
 20
200
 11
129.39
 21
195
  0
LINE
  8
0
 10
129.39
 20
195
 11
121.098
 21
195
  0
LINE
  8
0
 10
121.098
 20
195
 11
121.098
 21
200
  0
LINE
  8
0
 10
121.098
 20
200
 11
112.805
 21
200
  0
LINE
  8
0
 10
112.805
 20
200
 11
112.805
 21
195
  0
LINE
  8
0
 10
112.805
 20
195
 11
104.512
 21
195
  0
LINE
  8
0
 10
104.512
 20
195
 11
104.512
 21
200
  0
LINE
  8
0
 10
104.512
 20
200
 11
96.2195
 21
200
  0
LINE
  8
0
 10
96.2195
 20
200
 11
96.2195
 21
195
  0
LINE
  8
0
 10
96.2195
 20
195
 11
87.9268
 21
195
  0
LINE
  8
0
 10
87.9268
 20
195
 11
87.9268
 21
200
  0
LINE
  8
0
 10
87.9268
 20
200
 11
79.6341
 21
200
  0
LINE
  8
0
 10
79.6341
 20
200
 11
79.6341
 21
195
  0
LINE
  8
0
 10
79.6341
 20
195
 11
71.3415
 21
195
  0
LINE
  8
0
 10
71.3415
 20
195
 11
71.3415
 21
200
  0
LINE
  8
0
 10
71.3415
 20
200
 11
63.0488
 21
200
  0
LINE
  8
0
 10
63.0488
 20
200
 11
63.0488
 21
195
  0
LINE
  8
0
 10
63.0488
 20
195
 11
54.7561
 21
195
  0
LINE
  8
0
 10
54.7561
 20
195
 11
54.7561
 21
200
  0
LINE
  8
0
 10
54.7561
 20
200
 11
46.4634
 21
200
  0
LINE
  8
0
 10
46.4634
 20
200
 11
46.4634
 21
195
  0
LINE
  8
0
 10
46.4634
 20
195
 11
38.1707
 21
195
  0
LINE
  8
0
 10
38.1707
 20
195
 11
38.1707
 21
200
  0
LINE
  8
0
 10
38.1707
 20
200
 11
29.878
 21
200
  0
LINE
  8
0
 10
29.878
 20
200
 11
29.878
 21
195
  0
LINE
  8
0
 10
29.878
 20
195
 11
21.5854
 21
195
  0
LINE
  8
0
 10
21.5854
 20
195
 11
21.5854
 21
200
  0
LINE
  8
0
 10
21.5854
 20
200
 11
13.2927
 21
200
  0
LINE
  8
0
 10
13.2927
 20
200
 11
13.2927
 21
195
  0
LINE
  8
0
 10
13.2927
 20
195
 11
5
 21
195
  0
LINE
  8
0
 10
5
 20
195
 11
5
 21
184
  0
LINE
  8
0
 10
5
 20
184
 11
0
 21
184
  0
LINE
  8
0
 10
0
 20
184
 11
0
 21
176
  0
LINE
  8
0
 10
0
 20
176
 11
5
 21
176
  0
LINE
  8
0
 10
5
 20
176
 11
5
 21
168
  0
LINE
  8
0
 10
5
 20
168
 11
0
 21
168
  0
LINE
  8
0
 10
0
 20
168
 11
0
 21
160
  0
LINE
  8
0
 10
0
 20
160
 11
5
 21
160
  0
LINE
  8
0
 10
5
 20
160
 11
5
 21
152
  0
LINE
  8
0
 10
5
 20
152
 11
0
 21
152
  0
LINE
  8
0
 10
0
 20
152
 11
0
 21
144
  0
LINE
  8
0
 10
0
 20
144
 11
5
 21
144
  0
LINE
  8
0
 10
5
 20
144
 11
5
 21
136
  0
LINE
  8
0
 10
5
 20
136
 11
0
 21
136
  0
LINE
  8
0
 10
0
 20
136
 11
0
 21
128
  0
LINE
  8
0
 10
0
 20
128
 11
5
 21
128
  0
LINE
  8
0
 10
5
 20
128
 11
5
 21
120
  0
LINE
  8
0
 10
5
 20
120
 11
0
 21
120
  0
LINE
  8
0
 10
0
 20
120
 11
0
 21
112
  0
LINE
  8
0
 10
0
 20
112
 11
5
 21
112
  0
LINE
  8
0
 10
5
 20
112
 11
5
 21
104
  0
LINE
  8
0
 10
5
 20
104
 11
0
 21
104
  0
LINE
  8
0
 10
0
 20
104
 11
0
 21
96
  0
LINE
  8
0
 10
0
 20
96
 11
5
 21
96
  0
LINE
  8
0
 10
5
 20
96
 11
5
 21
88
  0
LINE
  8
0
 10
5
 20
88
 11
0
 21
88
  0
LINE
  8
0
 10
0
 20
88
 11
0
 21
80
  0
LINE
  8
0
 10
0
 20
80
 11
5
 21
80
  0
LINE
  8
0
 10
5
 20
80
 11
5
 21
72
  0
LINE
  8
0
 10
5
 20
72
 11
0
 21
72
  0
LINE
  8
0
 10
0
 20
72
 11
0
 21
64
  0
LINE
  8
0
 10
0
 20
64
 11
5
 21
64
  0
LINE
  8
0
 10
5
 20
64
 11
5
 21
56
  0
LINE
  8
0
 10
5
 20
56
 11
0
 21
56
  0
LINE
  8
0
 10
0
 20
56
 11
0
 21
48
  0
LINE
  8
0
 10
0
 20
48
 11
5
 21
48
  0
LINE
  8
0
 10
5
 20
48
 11
5
 21
40
  0
LINE
  8
0
 10
5
 20
40
 11
0
 21
40
  0
LINE
  8
0
 10
0
 20
40
 11
0
 21
32
  0
LINE
  8
0
 10
0
 20
32
 11
5
 21
32
  0
LINE
  8
0
 10
5
 20
32
 11
5
 21
24
  0
LINE
  8
0
 10
5
 20
24
 11
0
 21
24
  0
LINE
  8
0
 10
0
 20
24
 11
0
 21
16
  0
ENDSEC
  0
SECTION
  2
OBJECTS
  0
DICTIONARY
  0
ENDSEC
  0
EOF
