  0
SECTION
  2
BLOCKS
  0
ENDSEC
  0
SECTION
  2
ENTITIES
  0
LINE
  8
0
 10
0
 20
16
 11
5
 21
16
  0
LINE
  8
0
 10
5
 20
16
 11
5
 21
5
  0
LINE
  8
0
 10
5
 20
5
 11
16.2791
 21
5
  0
LINE
  8
0
 10
16.2791
 20
5
 11
16.2791
 21
0
  0
LINE
  8
0
 10
16.2791
 20
0
 11
24.4186
 21
0
  0
LINE
  8
0
 10
24.4186
 20
0
 11
24.4186
 21
5
  0
LINE
  8
0
 10
24.4186
 20
5
 11
32.5581
 21
5
  0
LINE
  8
0
 10
32.5581
 20
5
 11
32.5581
 21
0
  0
LINE
  8
0
 10
32.5581
 20
0
 11
40.6977
 21
0
  0
LINE
  8
0
 10
40.6977
 20
0
 11
40.6977
 21
5
  0
LINE
  8
0
 10
40.6977
 20
5
 11
48.8372
 21
5
  0
LINE
  8
0
 10
48.8372
 20
5
 11
48.8372
 21
0
  0
LINE
  8
0
 10
48.8372
 20
0
 11
56.9767
 21
0
  0
LINE
  8
0
 10
56.9767
 20
0
 11
56.9767
 21
5
  0
LINE
  8
0
 10
56.9767
 20
5
 11
65.1163
 21
5
  0
LINE
  8
0
 10
65.1163
 20
5
 11
65.1163
 21
0
  0
LINE
  8
0
 10
65.1163
 20
0
 11
73.2558
 21
0
  0
LINE
  8
0
 10
73.2558
 20
0
 11
73.2558
 21
5
  0
LINE
  8
0
 10
73.2558
 20
5
 11
81.3953
 21
5
  0
LINE
  8
0
 10
81.3953
 20
5
 11
81.3953
 21
0
  0
LINE
  8
0
 10
81.3953
 20
0
 11
89.5349
 21
0
  0
LINE
  8
0
 10
89.5349
 20
0
 11
89.5349
 21
5
  0
LINE
  8
0
 10
89.5349
 20
5
 11
97.6744
 21
5
  0
LINE
  8
0
 10
97.6744
 20
5
 11
97.6744
 21
0
  0
LINE
  8
0
 10
97.6744
 20
0
 11
105.814
 21
0
  0
LINE
  8
0
 10
105.814
 20
0
 11
105.814
 21
5
  0
LINE
  8
0
 10
105.814
 20
5
 11
113.953
 21
5
  0
LINE
  8
0
 10
113.953
 20
5
 11
113.953
 21
0
  0
LINE
  8
0
 10
113.953
 20
0
 11
122.093
 21
0
  0
LINE
  8
0
 10
122.093
 20
0
 11
122.093
 21
5
  0
LINE
  8
0
 10
122.093
 20
5
 11
130.233
 21
5
  0
LINE
  8
0
 10
130.233
 20
5
 11
130.233
 21
0
  0
LINE
  8
0
 10
130.233
 20
0
 11
138.372
 21
0
  0
LINE
  8
0
 10
138.372
 20
0
 11
138.372
 21
5
  0
LINE
  8
0
 10
138.372
 20
5
 11
146.512
 21
5
  0
LINE
  8
0
 10
146.512
 20
5
 11
146.512
 21
0
  0
LINE
  8
0
 10
146.512
 20
0
 11
154.651
 21
0
  0
LINE
  8
0
 10
154.651
 20
0
 11
154.651
 21
5
  0
LINE
  8
0
 10
154.651
 20
5
 11
162.791
 21
5
  0
LINE
  8
0
 10
162.791
 20
5
 11
162.791
 21
0
  0
LINE
  8
0
 10
162.791
 20
0
 11
170.93
 21
0
  0
LINE
  8
0
 10
170.93
 20
0
 11
170.93
 21
5
  0
LINE
  8
0
 10
170.93
 20
5
 11
179.07
 21
5
  0
LINE
  8
0
 10
179.07
 20
5
 11
179.07
 21
0
  0
LINE
  8
0
 10
179.07
 20
0
 11
187.209
 21
0
  0
LINE
  8
0
 10
187.209
 20
0
 11
187.209
 21
5
  0
LINE
  8
0
 10
187.209
 20
5
 11
195.349
 21
5
  0
LINE
  8
0
 10
195.349
 20
5
 11
195.349
 21
0
  0
LINE
  8
0
 10
195.349
 20
0
 11
203.488
 21
0
  0
LINE
  8
0
 10
203.488
 20
0
 11
203.488
 21
5
  0
LINE
  8
0
 10
203.488
 20
5
 11
211.628
 21
5
  0
LINE
  8
0
 10
211.628
 20
5
 11
211.628
 21
0
  0
LINE
  8
0
 10
211.628
 20
0
 11
219.767
 21
0
  0
LINE
  8
0
 10
219.767
 20
0
 11
219.767
 21
5
  0
LINE
  8
0
 10
219.767
 20
5
 11
227.907
 21
5
  0
LINE
  8
0
 10
227.907
 20
5
 11
227.907
 21
0
  0
LINE
  8
0
 10
227.907
 20
0
 11
236.047
 21
0
  0
LINE
  8
0
 10
236.047
 20
0
 11
236.047
 21
5
  0
LINE
  8
0
 10
236.047
 20
5
 11
244.186
 21
5
  0
LINE
  8
0
 10
244.186
 20
5
 11
244.186
 21
0
  0
LINE
  8
0
 10
244.186
 20
0
 11
252.326
 21
0
  0
LINE
  8
0
 10
252.326
 20
0
 11
252.326
 21
5
  0
LINE
  8
0
 10
252.326
 20
5
 11
260.465
 21
5
  0
LINE
  8
0
 10
260.465
 20
5
 11
260.465
 21
0
  0
LINE
  8
0
 10
260.465
 20
0
 11
268.605
 21
0
  0
LINE
  8
0
 10
268.605
 20
0
 11
268.605
 21
5
  0
LINE
  8
0
 10
268.605
 20
5
 11
276.744
 21
5
  0
LINE
  8
0
 10
276.744
 20
5
 11
276.744
 21
0
  0
LINE
  8
0
 10
276.744
 20
0
 11
284.884
 21
0
  0
LINE
  8
0
 10
284.884
 20
0
 11
284.884
 21
5
  0
LINE
  8
0
 10
284.884
 20
5
 11
293.023
 21
5
  0
LINE
  8
0
 10
293.023
 20
5
 11
293.023
 21
0
  0
LINE
  8
0
 10
293.023
 20
0
 11
301.163
 21
0
  0
LINE
  8
0
 10
301.163
 20
0
 11
301.163
 21
5
  0
LINE
  8
0
 10
301.163
 20
5
 11
309.302
 21
5
  0
LINE
  8
0
 10
309.302
 20
5
 11
309.302
 21
0
  0
LINE
  8
0
 10
309.302
 20
0
 11
317.442
 21
0
  0
LINE
  8
0
 10
317.442
 20
0
 11
317.442
 21
5
  0
LINE
  8
0
 10
317.442
 20
5
 11
325.581
 21
5
  0
LINE
  8
0
 10
325.581
 20
5
 11
325.581
 21
0
  0
LINE
  8
0
 10
325.581
 20
0
 11
333.721
 21
0
  0
LINE
  8
0
 10
333.721
 20
0
 11
333.721
 21
5
  0
LINE
  8
0
 10
333.721
 20
5
 11
345
 21
5
  0
LINE
  8
0
 10
345
 20
5
 11
345
 21
16
  0
LINE
  8
0
 10
345
 20
16
 11
350
 21
16
  0
LINE
  8
0
 10
350
 20
16
 11
350
 21
24
  0
LINE
  8
0
 10
350
 20
24
 11
345
 21
24
  0
LINE
  8
0
 10
345
 20
24
 11
345
 21
32
  0
LINE
  8
0
 10
345
 20
32
 11
350
 21
32
  0
LINE
  8
0
 10
350
 20
32
 11
350
 21
40
  0
LINE
  8
0
 10
350
 20
40
 11
345
 21
40
  0
LINE
  8
0
 10
345
 20
40
 11
345
 21
48
  0
LINE
  8
0
 10
345
 20
48
 11
350
 21
48
  0
LINE
  8
0
 10
350
 20
48
 11
350
 21
56
  0
LINE
  8
0
 10
350
 20
56
 11
345
 21
56
  0
LINE
  8
0
 10
345
 20
56
 11
345
 21
64
  0
LINE
  8
0
 10
345
 20
64
 11
350
 21
64
  0
LINE
  8
0
 10
350
 20
64
 11
350
 21
72
  0
LINE
  8
0
 10
350
 20
72
 11
345
 21
72
  0
LINE
  8
0
 10
345
 20
72
 11
345
 21
80
  0
LINE
  8
0
 10
345
 20
80
 11
350
 21
80
  0
LINE
  8
0
 10
350
 20
80
 11
350
 21
88
  0
LINE
  8
0
 10
350
 20
88
 11
345
 21
88
  0
LINE
  8
0
 10
345
 20
88
 11
345
 21
96
  0
LINE
  8
0
 10
345
 20
96
 11
350
 21
96
  0
LINE
  8
0
 10
350
 20
96
 11
350
 21
104
  0
LINE
  8
0
 10
350
 20
104
 11
345
 21
104
  0
LINE
  8
0
 10
345
 20
104
 11
345
 21
112
  0
LINE
  8
0
 10
345
 20
112
 11
350
 21
112
  0
LINE
  8
0
 10
350
 20
112
 11
350
 21
120
  0
LINE
  8
0
 10
350
 20
120
 11
345
 21
120
  0
LINE
  8
0
 10
345
 20
120
 11
345
 21
128
  0
LINE
  8
0
 10
345
 20
128
 11
350
 21
128
  0
LINE
  8
0
 10
350
 20
128
 11
350
 21
136
  0
LINE
  8
0
 10
350
 20
136
 11
345
 21
136
  0
LINE
  8
0
 10
345
 20
136
 11
345
 21
144
  0
LINE
  8
0
 10
345
 20
144
 11
350
 21
144
  0
LINE
  8
0
 10
350
 20
144
 11
350
 21
152
  0
LINE
  8
0
 10
350
 20
152
 11
345
 21
152
  0
LINE
  8
0
 10
345
 20
152
 11
345
 21
160
  0
LINE
  8
0
 10
345
 20
160
 11
350
 21
160
  0
LINE
  8
0
 10
350
 20
160
 11
350
 21
168
  0
LINE
  8
0
 10
350
 20
168
 11
345
 21
168
  0
LINE
  8
0
 10
345
 20
168
 11
345
 21
176
  0
LINE
  8
0
 10
345
 20
176
 11
350
 21
176
  0
LINE
  8
0
 10
350
 20
176
 11
350
 21
184
  0
LINE
  8
0
 10
350
 20
184
 11
345
 21
184
  0
LINE
  8
0
 10
345
 20
184
 11
345
 21
195
  0
LINE
  8
0
 10
345
 20
195
 11
333.721
 21
195
  0
LINE
  8
0
 10
333.721
 20
195
 11
333.721
 21
200
  0
LINE
  8
0
 10
333.721
 20
200
 11
325.581
 21
200
  0
LINE
  8
0
 10
325.581
 20
200
 11
325.581
 21
195
  0
LINE
  8
0
 10
325.581
 20
195
 11
317.442
 21
195
  0
LINE
  8
0
 10
317.442
 20
195
 11
317.442
 21
200
  0
LINE
  8
0
 10
317.442
 20
200
 11
309.302
 21
200
  0
LINE
  8
0
 10
309.302
 20
200
 11
309.302
 21
195
  0
LINE
  8
0
 10
309.302
 20
195
 11
301.163
 21
195
  0
LINE
  8
0
 10
301.163
 20
195
 11
301.163
 21
200
  0
LINE
  8
0
 10
301.163
 20
200
 11
293.023
 21
200
  0
LINE
  8
0
 10
293.023
 20
200
 11
293.023
 21
195
  0
LINE
  8
0
 10
293.023
 20
195
 11
284.884
 21
195
  0
LINE
  8
0
 10
284.884
 20
195
 11
284.884
 21
200
  0
LINE
  8
0
 10
284.884
 20
200
 11
276.744
 21
200
  0
LINE
  8
0
 10
276.744
 20
200
 11
276.744
 21
195
  0
LINE
  8
0
 10
276.744
 20
195
 11
268.605
 21
195
  0
LINE
  8
0
 10
268.605
 20
195
 11
268.605
 21
200
  0
LINE
  8
0
 10
268.605
 20
200
 11
260.465
 21
200
  0
LINE
  8
0
 10
260.465
 20
200
 11
260.465
 21
195
  0
LINE
  8
0
 10
260.465
 20
195
 11
252.326
 21
195
  0
LINE
  8
0
 10
252.326
 20
195
 11
252.326
 21
200
  0
LINE
  8
0
 10
252.326
 20
200
 11
244.186
 21
200
  0
LINE
  8
0
 10
244.186
 20
200
 11
244.186
 21
195
  0
LINE
  8
0
 10
244.186
 20
195
 11
236.047
 21
195
  0
LINE
  8
0
 10
236.047
 20
195
 11
236.047
 21
200
  0
LINE
  8
0
 10
236.047
 20
200
 11
227.907
 21
200
  0
LINE
  8
0
 10
227.907
 20
200
 11
227.907
 21
195
  0
LINE
  8
0
 10
227.907
 20
195
 11
219.767
 21
195
  0
LINE
  8
0
 10
219.767
 20
195
 11
219.767
 21
200
  0
LINE
  8
0
 10
219.767
 20
200
 11
211.628
 21
200
  0
LINE
  8
0
 10
211.628
 20
200
 11
211.628
 21
195
  0
LINE
  8
0
 10
211.628
 20
195
 11
203.488
 21
195
  0
LINE
  8
0
 10
203.488
 20
195
 11
203.488
 21
200
  0
LINE
  8
0
 10
203.488
 20
200
 11
195.349
 21
200
  0
LINE
  8
0
 10
195.349
 20
200
 11
195.349
 21
195
  0
LINE
  8
0
 10
195.349
 20
195
 11
187.209
 21
195
  0
LINE
  8
0
 10
187.209
 20
195
 11
187.209
 21
200
  0
LINE
  8
0
 10
187.209
 20
200
 11
179.07
 21
200
  0
LINE
  8
0
 10
179.07
 20
200
 11
179.07
 21
195
  0
LINE
  8
0
 10
179.07
 20
195
 11
170.93
 21
195
  0
LINE
  8
0
 10
170.93
 20
195
 11
170.93
 21
200
  0
LINE
  8
0
 10
170.93
 20
200
 11
162.791
 21
200
  0
LINE
  8
0
 10
162.791
 20
200
 11
162.791
 21
195
  0
LINE
  8
0
 10
162.791
 20
195
 11
154.651
 21
195
  0
LINE
  8
0
 10
154.651
 20
195
 11
154.651
 21
200
  0
LINE
  8
0
 10
154.651
 20
200
 11
146.512
 21
200
  0
LINE
  8
0
 10
146.512
 20
200
 11
146.512
 21
195
  0
LINE
  8
0
 10
146.512
 20
195
 11
138.372
 21
195
  0
LINE
  8
0
 10
138.372
 20
195
 11
138.372
 21
200
  0
LINE
  8
0
 10
138.372
 20
200
 11
130.233
 21
200
  0
LINE
  8
0
 10
130.233
 20
200
 11
130.233
 21
195
  0
LINE
  8
0
 10
130.233
 20
195
 11
122.093
 21
195
  0
LINE
  8
0
 10
122.093
 20
195
 11
122.093
 21
200
  0
LINE
  8
0
 10
122.093
 20
200
 11
113.953
 21
200
  0
LINE
  8
0
 10
113.953
 20
200
 11
113.953
 21
195
  0
LINE
  8
0
 10
113.953
 20
195
 11
105.814
 21
195
  0
LINE
  8
0
 10
105.814
 20
195
 11
105.814
 21
200
  0
LINE
  8
0
 10
105.814
 20
200
 11
97.6744
 21
200
  0
LINE
  8
0
 10
97.6744
 20
200
 11
97.6744
 21
195
  0
LINE
  8
0
 10
97.6744
 20
195
 11
89.5349
 21
195
  0
LINE
  8
0
 10
89.5349
 20
195
 11
89.5349
 21
200
  0
LINE
  8
0
 10
89.5349
 20
200
 11
81.3953
 21
200
  0
LINE
  8
0
 10
81.3953
 20
200
 11
81.3953
 21
195
  0
LINE
  8
0
 10
81.3953
 20
195
 11
73.2558
 21
195
  0
LINE
  8
0
 10
73.2558
 20
195
 11
73.2558
 21
200
  0
LINE
  8
0
 10
73.2558
 20
200
 11
65.1163
 21
200
  0
LINE
  8
0
 10
65.1163
 20
200
 11
65.1163
 21
195
  0
LINE
  8
0
 10
65.1163
 20
195
 11
56.9767
 21
195
  0
LINE
  8
0
 10
56.9767
 20
195
 11
56.9767
 21
200
  0
LINE
  8
0
 10
56.9767
 20
200
 11
48.8372
 21
200
  0
LINE
  8
0
 10
48.8372
 20
200
 11
48.8372
 21
195
  0
LINE
  8
0
 10
48.8372
 20
195
 11
40.6977
 21
195
  0
LINE
  8
0
 10
40.6977
 20
195
 11
40.6977
 21
200
  0
LINE
  8
0
 10
40.6977
 20
200
 11
32.5581
 21
200
  0
LINE
  8
0
 10
32.5581
 20
200
 11
32.5581
 21
195
  0
LINE
  8
0
 10
32.5581
 20
195
 11
24.4186
 21
195
  0
LINE
  8
0
 10
24.4186
 20
195
 11
24.4186
 21
200
  0
LINE
  8
0
 10
24.4186
 20
200
 11
16.2791
 21
200
  0
LINE
  8
0
 10
16.2791
 20
200
 11
16.2791
 21
195
  0
LINE
  8
0
 10
16.2791
 20
195
 11
5
 21
195
  0
LINE
  8
0
 10
5
 20
195
 11
5
 21
184
  0
LINE
  8
0
 10
5
 20
184
 11
0
 21
184
  0
LINE
  8
0
 10
0
 20
184
 11
0
 21
176
  0
LINE
  8
0
 10
0
 20
176
 11
5
 21
176
  0
LINE
  8
0
 10
5
 20
176
 11
5
 21
168
  0
LINE
  8
0
 10
5
 20
168
 11
0
 21
168
  0
LINE
  8
0
 10
0
 20
168
 11
0
 21
160
  0
LINE
  8
0
 10
0
 20
160
 11
5
 21
160
  0
LINE
  8
0
 10
5
 20
160
 11
5
 21
152
  0
LINE
  8
0
 10
5
 20
152
 11
0
 21
152
  0
LINE
  8
0
 10
0
 20
152
 11
0
 21
144
  0
LINE
  8
0
 10
0
 20
144
 11
5
 21
144
  0
LINE
  8
0
 10
5
 20
144
 11
5
 21
136
  0
LINE
  8
0
 10
5
 20
136
 11
0
 21
136
  0
LINE
  8
0
 10
0
 20
136
 11
0
 21
128
  0
LINE
  8
0
 10
0
 20
128
 11
5
 21
128
  0
LINE
  8
0
 10
5
 20
128
 11
5
 21
120
  0
LINE
  8
0
 10
5
 20
120
 11
0
 21
120
  0
LINE
  8
0
 10
0
 20
120
 11
0
 21
112
  0
LINE
  8
0
 10
0
 20
112
 11
5
 21
112
  0
LINE
  8
0
 10
5
 20
112
 11
5
 21
104
  0
LINE
  8
0
 10
5
 20
104
 11
0
 21
104
  0
LINE
  8
0
 10
0
 20
104
 11
0
 21
96
  0
LINE
  8
0
 10
0
 20
96
 11
5
 21
96
  0
LINE
  8
0
 10
5
 20
96
 11
5
 21
88
  0
LINE
  8
0
 10
5
 20
88
 11
0
 21
88
  0
LINE
  8
0
 10
0
 20
88
 11
0
 21
80
  0
LINE
  8
0
 10
0
 20
80
 11
5
 21
80
  0
LINE
  8
0
 10
5
 20
80
 11
5
 21
72
  0
LINE
  8
0
 10
5
 20
72
 11
0
 21
72
  0
LINE
  8
0
 10
0
 20
72
 11
0
 21
64
  0
LINE
  8
0
 10
0
 20
64
 11
5
 21
64
  0
LINE
  8
0
 10
5
 20
64
 11
5
 21
56
  0
LINE
  8
0
 10
5
 20
56
 11
0
 21
56
  0
LINE
  8
0
 10
0
 20
56
 11
0
 21
48
  0
LINE
  8
0
 10
0
 20
48
 11
5
 21
48
  0
LINE
  8
0
 10
5
 20
48
 11
5
 21
40
  0
LINE
  8
0
 10
5
 20
40
 11
0
 21
40
  0
LINE
  8
0
 10
0
 20
40
 11
0
 21
32
  0
LINE
  8
0
 10
0
 20
32
 11
5
 21
32
  0
LINE
  8
0
 10
5
 20
32
 11
5
 21
24
  0
LINE
  8
0
 10
5
 20
24
 11
0
 21
24
  0
LINE
  8
0
 10
0
 20
24
 11
0
 21
16
  0
ENDSEC
  0
SECTION
  2
OBJECTS
  0
DICTIONARY
  0
ENDSEC
  0
EOF
