<?xml version="1.0" standalone="no"?>
<!DOCTYPE svg PUBLIC "-//W3C//DTD SVG 1.1//EN" "http://www.w3.org/Graphics/SVG/1.1/DTD/svg11.dtd">
<svg width="350mm" height="200mm" viewBox="0 -200 350 200" xmlns="http://www.w3.org/2000/svg" version="1.1">
<title>OpenSCAD Model</title>
<path d="
M 0,-18.1818 L 5,-18.1818 L 5,-0 L 20.5882,-0 L 20.5882,-5 L 41.1765,-5
 L 41.1765,-0 L 61.7647,-0 L 61.7647,-5 L 82.3529,-5 L 82.3529,-0 L 102.941,-0
 L 102.941,-5 L 123.529,-5 L 123.529,-0 L 144.118,-0 L 144.118,-5 L 164.706,-5
 L 164.706,-0 L 185.294,-0 L 185.294,-5 L 205.882,-5 L 205.882,-0 L 226.471,-0
 L 226.471,-5 L 247.059,-5 L 247.059,-0 L 267.647,-0 L 267.647,-5 L 288.235,-5
 L 288.235,-0 L 308.824,-0 L 308.824,-5 L 329.412,-5 L 329.412,-0 L 345,-0
 L 345,-18.1818 L 350,-18.1818 L 350,-36.3636 L 345,-36.3636 L 345,-54.5455 L 350,-54.5455
 L 350,-72.7273 L 345,-72.7273 L 345,-90.9091 L 350,-90.9091 L 350,-109.091 L 345,-109.091
 L 345,-127.273 L 350,-127.273 L 350,-145.455 L 345,-145.455 L 345,-163.636 L 350,-163.636
 L 350,-181.818 L 345,-181.818 L 345,-200 L 329.412,-200 L 329.412,-195 L 308.824,-195
 L 308.824,-200 L 288.235,-200 L 288.235,-195 L 267.647,-195 L 267.647,-200 L 247.059,-200
 L 247.059,-195 L 226.471,-195 L 226.471,-200 L 205.882,-200 L 205.882,-195 L 185.294,-195
 L 185.294,-200 L 164.706,-200 L 164.706,-195 L 144.118,-195 L 144.118,-200 L 123.529,-200
 L 123.529,-195 L 102.941,-195 L 102.941,-200 L 82.3529,-200 L 82.3529,-195 L 61.7647,-195
 L 61.7647,-200 L 41.1765,-200 L 41.1765,-195 L 20.5882,-195 L 20.5882,-200 L 5,-200
 L 5,-181.818 L 0,-181.818 L 0,-163.636 L 5,-163.636 L 5,-145.455 L 0,-145.455
 L 0,-127.273 L 5,-127.273 L 5,-109.091 L 0,-109.091 L 0,-90.9091 L 5,-90.9091
 L 5,-72.7273 L 0,-72.7273 L 0,-54.5455 L 5,-54.5455 L 5,-36.3636 L 0,-36.3636
 z
" stroke="black" fill="lightgray" stroke-width="0.5"/>
</svg>
