<?xml version="1.0" standalone="no"?>
<!DOCTYPE svg PUBLIC "-//W3C//DTD SVG 1.1//EN" "http://www.w3.org/Graphics/SVG/1.1/DTD/svg11.dtd">
<svg width="360mm" height="210mm" viewBox="0 -210 360 210" xmlns="http://www.w3.org/2000/svg" version="1.1">
<title>OpenSCAD Model</title>
<path d="
M 0,-16.8 L 5,-16.8 L 5,-5 L 13.1395,-5 L 13.1395,-0 L 21.2791,-0
 L 21.2791,-5 L 29.4186,-5 L 29.4186,-0 L 37.5581,-0 L 37.5581,-5 L 45.6977,-5
 L 45.6977,-0 L 53.8372,-0 L 53.8372,-5 L 61.9767,-5 L 61.9767,-0 L 70.1163,-0
 L 70.1163,-5 L 78.2558,-5 L 78.2558,-0 L 86.3953,-0 L 86.3953,-5 L 94.5349,-5
 L 94.5349,-0 L 102.674,-0 L 102.674,-5 L 110.814,-5 L 110.814,-0 L 118.953,-0
 L 118.953,-5 L 127.093,-5 L 127.093,-0 L 135.233,-0 L 135.233,-5 L 143.372,-5
 L 143.372,-0 L 151.512,-0 L 151.512,-5 L 159.651,-5 L 159.651,-0 L 167.791,-0
 L 167.791,-5 L 175.93,-5 L 175.93,-0 L 184.07,-0 L 184.07,-5 L 192.209,-5
 L 192.209,-0 L 200.349,-0 L 200.349,-5 L 208.488,-5 L 208.488,-0 L 216.628,-0
 L 216.628,-5 L 224.767,-5 L 224.767,-0 L 232.907,-0 L 232.907,-5 L 241.047,-5
 L 241.047,-0 L 249.186,-0 L 249.186,-5 L 257.326,-5 L 257.326,-0 L 265.465,-0
 L 265.465,-5 L 273.605,-5 L 273.605,-0 L 281.744,-0 L 281.744,-5 L 289.884,-5
 L 289.884,-0 L 298.023,-0 L 298.023,-5 L 306.163,-5 L 306.163,-0 L 314.302,-0
 L 314.302,-5 L 322.442,-5 L 322.442,-0 L 330.581,-0 L 330.581,-5 L 338.721,-5
 L 338.721,-0 L 346.86,-0 L 346.86,-5 L 355,-5 L 355,-16.8 L 360,-16.8
 L 360,-25.2 L 355,-25.2 L 355,-33.6 L 360,-33.6 L 360,-42 L 355,-42
 L 355,-50.4 L 360,-50.4 L 360,-58.8 L 355,-58.8 L 355,-67.2 L 360,-67.2
 L 360,-75.6 L 355,-75.6 L 355,-84 L 360,-84 L 360,-92.4 L 355,-92.4
 L 355,-100.8 L 360,-100.8 L 360,-109.2 L 355,-109.2 L 355,-117.6 L 360,-117.6
 L 360,-126 L 355,-126 L 355,-134.4 L 360,-134.4 L 360,-142.8 L 355,-142.8
 L 355,-151.2 L 360,-151.2 L 360,-159.6 L 355,-159.6 L 355,-168 L 360,-168
 L 360,-176.4 L 355,-176.4 L 355,-184.8 L 360,-184.8 L 360,-193.2 L 355,-193.2
 L 355,-205 L 346.86,-205 L 346.86,-210 L 338.721,-210 L 338.721,-205 L 330.581,-205
 L 330.581,-210 L 322.442,-210 L 322.442,-205 L 314.302,-205 L 314.302,-210 L 306.163,-210
 L 306.163,-205 L 298.023,-205 L 298.023,-210 L 289.884,-210 L 289.884,-205 L 281.744,-205
 L 281.744,-210 L 273.605,-210 L 273.605,-205 L 265.465,-205 L 265.465,-210 L 257.326,-210
 L 257.326,-205 L 249.186,-205 L 249.186,-210 L 241.047,-210 L 241.047,-205 L 232.907,-205
 L 232.907,-210 L 224.767,-210 L 224.767,-205 L 216.628,-205 L 216.628,-210 L 208.488,-210
 L 208.488,-205 L 200.349,-205 L 200.349,-210 L 192.209,-210 L 192.209,-205 L 184.07,-205
 L 184.07,-210 L 175.93,-210 L 175.93,-205 L 167.791,-205 L 167.791,-210 L 159.651,-210
 L 159.651,-205 L 151.512,-205 L 151.512,-210 L 143.372,-210 L 143.372,-205 L 135.233,-205
 L 135.233,-210 L 127.093,-210 L 127.093,-205 L 118.953,-205 L 118.953,-210 L 110.814,-210
 L 110.814,-205 L 102.674,-205 L 102.674,-210 L 94.5349,-210 L 94.5349,-205 L 86.3953,-205
 L 86.3953,-210 L 78.2558,-210 L 78.2558,-205 L 70.1163,-205 L 70.1163,-210 L 61.9767,-210
 L 61.9767,-205 L 53.8372,-205 L 53.8372,-210 L 45.6977,-210 L 45.6977,-205 L 37.5581,-205
 L 37.5581,-210 L 29.4186,-210 L 29.4186,-205 L 21.2791,-205 L 21.2791,-210 L 13.1395,-210
 L 13.1395,-205 L 5,-205 L 5,-193.2 L 0,-193.2 L 0,-184.8 L 5,-184.8
 L 5,-176.4 L 0,-176.4 L 0,-168 L 5,-168 L 5,-159.6 L 0,-159.6
 L 0,-151.2 L 5,-151.2 L 5,-142.8 L 0,-142.8 L 0,-134.4 L 5,-134.4
 L 5,-126 L 0,-126 L 0,-117.6 L 5,-117.6 L 5,-109.2 L 0,-109.2
 L 0,-100.8 L 5,-100.8 L 5,-92.4 L 0,-92.4 L 0,-84 L 5,-84
 L 5,-75.6 L 0,-75.6 L 0,-67.2 L 5,-67.2 L 5,-58.8 L 0,-58.8
 L 0,-50.4 L 5,-50.4 L 5,-42 L 0,-42 L 0,-33.6 L 5,-33.6
 L 5,-25.2 L 0,-25.2 z
" stroke="black" fill="lightgray" stroke-width="0.5"/>
</svg>
