<?xml version="1.0" standalone="no"?>
<!DOCTYPE svg PUBLIC "-//W3C//DTD SVG 1.1//EN" "http://www.w3.org/Graphics/SVG/1.1/DTD/svg11.dtd">
<svg width="361mm" height="211mm" viewBox="0 -211 361 211" xmlns="http://www.w3.org/2000/svg" version="1.1">
<title>OpenSCAD Model</title>
<path d="
M 0,-16.598 L 5.05,-16.598 L 5.05,-5.05 L 12.9035,-5.05 L 12.9035,-0 L 21.557,-0
 L 21.557,-5.05 L 29.2105,-5.05 L 29.2105,-0 L 37.864,-0 L 37.864,-5.05 L 45.5174,-5.05
 L 45.5174,-0 L 54.1709,-0 L 54.1709,-5.05 L 61.8244,-5.05 L 61.8244,-0 L 70.4779,-0
 L 70.4779,-5.05 L 78.1314,-5.05 L 78.1314,-0 L 86.7849,-0 L 86.7849,-5.05 L 94.4384,-5.05
 L 94.4384,-0 L 103.092,-0 L 103.092,-5.05 L 110.745,-5.05 L 110.745,-0 L 119.399,-0
 L 119.399,-5.05 L 127.052,-5.05 L 127.052,-0 L 135.706,-0 L 135.706,-5.05 L 143.359,-5.05
 L 143.359,-0 L 152.013,-0 L 152.013,-5.05 L 159.666,-5.05 L 159.666,-0 L 168.32,-0
 L 168.32,-5.05 L 175.973,-5.05 L 175.973,-0 L 184.627,-0 L 184.627,-5.05 L 192.28,-5.05
 L 192.28,-0 L 200.934,-0 L 200.934,-5.05 L 208.587,-5.05 L 208.587,-0 L 217.241,-0
 L 217.241,-5.05 L 224.894,-5.05 L 224.894,-0 L 233.548,-0 L 233.548,-5.05 L 241.201,-5.05
 L 241.201,-0 L 249.855,-0 L 249.855,-5.05 L 257.508,-5.05 L 257.508,-0 L 266.162,-0
 L 266.162,-5.05 L 273.815,-5.05 L 273.815,-0 L 282.469,-0 L 282.469,-5.05 L 290.122,-5.05
 L 290.122,-0 L 298.776,-0 L 298.776,-5.05 L 306.429,-5.05 L 306.429,-0 L 315.083,-0
 L 315.083,-5.05 L 322.736,-5.05 L 322.736,-0 L 331.39,-0 L 331.39,-5.05 L 339.043,-5.05
 L 339.043,-0 L 347.697,-0 L 347.697,-5.05 L 355.55,-5.05 L 355.55,-16.598 L 360.6,-16.598
 L 360.6,-25.522 L 355.55,-25.522 L 355.55,-33.446 L 360.6,-33.446 L 360.6,-42.37 L 355.55,-42.37
 L 355.55,-50.294 L 360.6,-50.294 L 360.6,-59.218 L 355.55,-59.218 L 355.55,-67.142 L 360.6,-67.142
 L 360.6,-76.066 L 355.55,-76.066 L 355.55,-83.99 L 360.6,-83.99 L 360.6,-92.914 L 355.55,-92.914
 L 355.55,-100.838 L 360.6,-100.838 L 360.6,-109.762 L 355.55,-109.762 L 355.55,-117.686 L 360.6,-117.686
 L 360.6,-126.61 L 355.55,-126.61 L 355.55,-134.534 L 360.6,-134.534 L 360.6,-143.458 L 355.55,-143.458
 L 355.55,-151.382 L 360.6,-151.382 L 360.6,-160.306 L 355.55,-160.306 L 355.55,-168.23 L 360.6,-168.23
 L 360.6,-177.154 L 355.55,-177.154 L 355.55,-185.078 L 360.6,-185.078 L 360.6,-194.002 L 355.55,-194.002
 L 355.55,-205.55 L 347.697,-205.55 L 347.697,-210.6 L 339.043,-210.6 L 339.043,-205.55 L 331.39,-205.55
 L 331.39,-210.6 L 322.736,-210.6 L 322.736,-205.55 L 315.083,-205.55 L 315.083,-210.6 L 306.429,-210.6
 L 306.429,-205.55 L 298.776,-205.55 L 298.776,-210.6 L 290.122,-210.6 L 290.122,-205.55 L 282.469,-205.55
 L 282.469,-210.6 L 273.815,-210.6 L 273.815,-205.55 L 266.162,-205.55 L 266.162,-210.6 L 257.508,-210.6
 L 257.508,-205.55 L 249.855,-205.55 L 249.855,-210.6 L 241.201,-210.6 L 241.201,-205.55 L 233.548,-205.55
 L 233.548,-210.6 L 224.894,-210.6 L 224.894,-205.55 L 217.241,-205.55 L 217.241,-210.6 L 208.587,-210.6
 L 208.587,-205.55 L 200.934,-205.55 L 200.934,-210.6 L 192.28,-210.6 L 192.28,-205.55 L 184.627,-205.55
 L 184.627,-210.6 L 175.973,-210.6 L 175.973,-205.55 L 168.32,-205.55 L 168.32,-210.6 L 159.666,-210.6
 L 159.666,-205.55 L 152.013,-205.55 L 152.013,-210.6 L 143.359,-210.6 L 143.359,-205.55 L 135.706,-205.55
 L 135.706,-210.6 L 127.052,-210.6 L 127.052,-205.55 L 119.399,-205.55 L 119.399,-210.6 L 110.745,-210.6
 L 110.745,-205.55 L 103.092,-205.55 L 103.092,-210.6 L 94.4384,-210.6 L 94.4384,-205.55 L 86.7849,-205.55
 L 86.7849,-210.6 L 78.1314,-210.6 L 78.1314,-205.55 L 70.4779,-205.55 L 70.4779,-210.6 L 61.8244,-210.6
 L 61.8244,-205.55 L 54.1709,-205.55 L 54.1709,-210.6 L 45.5174,-210.6 L 45.5174,-205.55 L 37.864,-205.55
 L 37.864,-210.6 L 29.2105,-210.6 L 29.2105,-205.55 L 21.557,-205.55 L 21.557,-210.6 L 12.9035,-210.6
 L 12.9035,-205.55 L 5.05,-205.55 L 5.05,-194.002 L 0,-194.002 L 0,-185.078 L 5.05,-185.078
 L 5.05,-177.154 L 0,-177.154 L 0,-168.23 L 5.05,-168.23 L 5.05,-160.306 L 0,-160.306
 L 0,-151.382 L 5.05,-151.382 L 5.05,-143.458 L 0,-143.458 L 0,-134.534 L 5.05,-134.534
 L 5.05,-126.61 L 0,-126.61 L 0,-117.686 L 5.05,-117.686 L 5.05,-109.762 L 0,-109.762
 L 0,-100.838 L 5.05,-100.838 L 5.05,-92.914 L 0,-92.914 L 0,-83.99 L 5.05,-83.99
 L 5.05,-76.066 L 0,-76.066 L 0,-67.142 L 5.05,-67.142 L 5.05,-59.218 L 0,-59.218
 L 0,-50.294 L 5.05,-50.294 L 5.05,-42.37 L 0,-42.37 L 0,-33.446 L 5.05,-33.446
 L 5.05,-25.522 L 0,-25.522 z
" stroke="black" fill="lightgray" stroke-width="0.5"/>
</svg>
