  0
SECTION
  2
BLOCKS
  0
ENDSEC
  0
SECTION
  2
ENTITIES
  0
LINE
  8
0
 10
0
 20
16.65
 11
5.85
 21
16.65
  0
LINE
  8
0
 10
5.85
 20
16.65
 11
5.85
 21
5.85
  0
LINE
  8
0
 10
5.85
 20
5.85
 11
13.036
 21
5.85
  0
LINE
  8
0
 10
13.036
 20
5.85
 11
13.036
 21
0
  0
LINE
  8
0
 10
13.036
 20
0
 11
21.5221
 21
0
  0
LINE
  8
0
 10
21.5221
 20
0
 11
21.5221
 21
5.85
  0
LINE
  8
0
 10
21.5221
 20
5.85
 11
29.4081
 21
5.85
  0
LINE
  8
0
 10
29.4081
 20
5.85
 11
29.4081
 21
0
  0
LINE
  8
0
 10
29.4081
 20
0
 11
37.8942
 21
0
  0
LINE
  8
0
 10
37.8942
 20
0
 11
37.8942
 21
5.85
  0
LINE
  8
0
 10
37.8942
 20
5.85
 11
45.7802
 21
5.85
  0
LINE
  8
0
 10
45.7802
 20
5.85
 11
45.7802
 21
0
  0
LINE
  8
0
 10
45.7802
 20
0
 11
54.2663
 21
0
  0
LINE
  8
0
 10
54.2663
 20
0
 11
54.2663
 21
5.85
  0
LINE
  8
0
 10
54.2663
 20
5.85
 11
62.1523
 21
5.85
  0
LINE
  8
0
 10
62.1523
 20
5.85
 11
62.1523
 21
0
  0
LINE
  8
0
 10
62.1523
 20
0
 11
70.6384
 21
0
  0
LINE
  8
0
 10
70.6384
 20
0
 11
70.6384
 21
5.85
  0
LINE
  8
0
 10
70.6384
 20
5.85
 11
78.5244
 21
5.85
  0
LINE
  8
0
 10
78.5244
 20
5.85
 11
78.5244
 21
0
  0
LINE
  8
0
 10
78.5244
 20
0
 11
87.0105
 21
0
  0
LINE
  8
0
 10
87.0105
 20
0
 11
87.0105
 21
5.85
  0
LINE
  8
0
 10
87.0105
 20
5.85
 11
94.8965
 21
5.85
  0
LINE
  8
0
 10
94.8965
 20
5.85
 11
94.8965
 21
0
  0
LINE
  8
0
 10
94.8965
 20
0
 11
103.383
 21
0
  0
LINE
  8
0
 10
103.383
 20
0
 11
103.383
 21
5.85
  0
LINE
  8
0
 10
103.383
 20
5.85
 11
111.269
 21
5.85
  0
LINE
  8
0
 10
111.269
 20
5.85
 11
111.269
 21
0
  0
LINE
  8
0
 10
111.269
 20
0
 11
119.755
 21
0
  0
LINE
  8
0
 10
119.755
 20
0
 11
119.755
 21
5.85
  0
LINE
  8
0
 10
119.755
 20
5.85
 11
127.641
 21
5.85
  0
LINE
  8
0
 10
127.641
 20
5.85
 11
127.641
 21
0
  0
LINE
  8
0
 10
127.641
 20
0
 11
136.127
 21
0
  0
LINE
  8
0
 10
136.127
 20
0
 11
136.127
 21
5.85
  0
LINE
  8
0
 10
136.127
 20
5.85
 11
144.013
 21
5.85
  0
LINE
  8
0
 10
144.013
 20
5.85
 11
144.013
 21
0
  0
LINE
  8
0
 10
144.013
 20
0
 11
152.499
 21
0
  0
LINE
  8
0
 10
152.499
 20
0
 11
152.499
 21
5.85
  0
LINE
  8
0
 10
152.499
 20
5.85
 11
160.385
 21
5.85
  0
LINE
  8
0
 10
160.385
 20
5.85
 11
160.385
 21
0
  0
LINE
  8
0
 10
160.385
 20
0
 11
168.871
 21
0
  0
LINE
  8
0
 10
168.871
 20
0
 11
168.871
 21
5.85
  0
LINE
  8
0
 10
168.871
 20
5.85
 11
176.757
 21
5.85
  0
LINE
  8
0
 10
176.757
 20
5.85
 11
176.757
 21
0
  0
LINE
  8
0
 10
176.757
 20
0
 11
185.243
 21
0
  0
LINE
  8
0
 10
185.243
 20
0
 11
185.243
 21
5.85
  0
LINE
  8
0
 10
185.243
 20
5.85
 11
193.129
 21
5.85
  0
LINE
  8
0
 10
193.129
 20
5.85
 11
193.129
 21
0
  0
LINE
  8
0
 10
193.129
 20
0
 11
201.615
 21
0
  0
LINE
  8
0
 10
201.615
 20
0
 11
201.615
 21
5.85
  0
LINE
  8
0
 10
201.615
 20
5.85
 11
209.501
 21
5.85
  0
LINE
  8
0
 10
209.501
 20
5.85
 11
209.501
 21
0
  0
LINE
  8
0
 10
209.501
 20
0
 11
217.987
 21
0
  0
LINE
  8
0
 10
217.987
 20
0
 11
217.987
 21
5.85
  0
LINE
  8
0
 10
217.987
 20
5.85
 11
225.873
 21
5.85
  0
LINE
  8
0
 10
225.873
 20
5.85
 11
225.873
 21
0
  0
LINE
  8
0
 10
225.873
 20
0
 11
234.359
 21
0
  0
LINE
  8
0
 10
234.359
 20
0
 11
234.359
 21
5.85
  0
LINE
  8
0
 10
234.359
 20
5.85
 11
242.245
 21
5.85
  0
LINE
  8
0
 10
242.245
 20
5.85
 11
242.245
 21
0
  0
LINE
  8
0
 10
242.245
 20
0
 11
250.731
 21
0
  0
LINE
  8
0
 10
250.731
 20
0
 11
250.731
 21
5.85
  0
LINE
  8
0
 10
250.731
 20
5.85
 11
258.617
 21
5.85
  0
LINE
  8
0
 10
258.617
 20
5.85
 11
258.617
 21
0
  0
LINE
  8
0
 10
258.617
 20
0
 11
267.103
 21
0
  0
LINE
  8
0
 10
267.103
 20
0
 11
267.103
 21
5.85
  0
LINE
  8
0
 10
267.103
 20
5.85
 11
274.99
 21
5.85
  0
LINE
  8
0
 10
274.99
 20
5.85
 11
274.99
 21
0
  0
LINE
  8
0
 10
274.99
 20
0
 11
283.476
 21
0
  0
LINE
  8
0
 10
283.476
 20
0
 11
283.476
 21
5.85
  0
LINE
  8
0
 10
283.476
 20
5.85
 11
291.362
 21
5.85
  0
LINE
  8
0
 10
291.362
 20
5.85
 11
291.362
 21
0
  0
LINE
  8
0
 10
291.362
 20
0
 11
299.848
 21
0
  0
LINE
  8
0
 10
299.848
 20
0
 11
299.848
 21
5.85
  0
LINE
  8
0
 10
299.848
 20
5.85
 11
307.734
 21
5.85
  0
LINE
  8
0
 10
307.734
 20
5.85
 11
307.734
 21
0
  0
LINE
  8
0
 10
307.734
 20
0
 11
316.22
 21
0
  0
LINE
  8
0
 10
316.22
 20
0
 11
316.22
 21
5.85
  0
LINE
  8
0
 10
316.22
 20
5.85
 11
324.106
 21
5.85
  0
LINE
  8
0
 10
324.106
 20
5.85
 11
324.106
 21
0
  0
LINE
  8
0
 10
324.106
 20
0
 11
332.592
 21
0
  0
LINE
  8
0
 10
332.592
 20
0
 11
332.592
 21
5.85
  0
LINE
  8
0
 10
332.592
 20
5.85
 11
340.478
 21
5.85
  0
LINE
  8
0
 10
340.478
 20
5.85
 11
340.478
 21
0
  0
LINE
  8
0
 10
340.478
 20
0
 11
348.964
 21
0
  0
LINE
  8
0
 10
348.964
 20
0
 11
348.964
 21
5.85
  0
LINE
  8
0
 10
348.964
 20
5.85
 11
356.15
 21
5.85
  0
LINE
  8
0
 10
356.15
 20
5.85
 11
356.15
 21
16.65
  0
LINE
  8
0
 10
356.15
 20
16.65
 11
362
 21
16.65
  0
LINE
  8
0
 10
362
 20
16.65
 11
362
 21
25.35
  0
LINE
  8
0
 10
362
 20
25.35
 11
356.15
 21
25.35
  0
LINE
  8
0
 10
356.15
 20
25.35
 11
356.15
 21
33.45
  0
LINE
  8
0
 10
356.15
 20
33.45
 11
362
 21
33.45
  0
LINE
  8
0
 10
362
 20
33.45
 11
362
 21
42.15
  0
LINE
  8
0
 10
362
 20
42.15
 11
356.15
 21
42.15
  0
LINE
  8
0
 10
356.15
 20
42.15
 11
356.15
 21
50.25
  0
LINE
  8
0
 10
356.15
 20
50.25
 11
362
 21
50.25
  0
LINE
  8
0
 10
362
 20
50.25
 11
362
 21
58.95
  0
LINE
  8
0
 10
362
 20
58.95
 11
356.15
 21
58.95
  0
LINE
  8
0
 10
356.15
 20
58.95
 11
356.15
 21
67.05
  0
LINE
  8
0
 10
356.15
 20
67.05
 11
362
 21
67.05
  0
LINE
  8
0
 10
362
 20
67.05
 11
362
 21
75.75
  0
LINE
  8
0
 10
362
 20
75.75
 11
356.15
 21
75.75
  0
LINE
  8
0
 10
356.15
 20
75.75
 11
356.15
 21
83.85
  0
LINE
  8
0
 10
356.15
 20
83.85
 11
362
 21
83.85
  0
LINE
  8
0
 10
362
 20
83.85
 11
362
 21
92.55
  0
LINE
  8
0
 10
362
 20
92.55
 11
356.15
 21
92.55
  0
LINE
  8
0
 10
356.15
 20
92.55
 11
356.15
 21
100.65
  0
LINE
  8
0
 10
356.15
 20
100.65
 11
362
 21
100.65
  0
LINE
  8
0
 10
362
 20
100.65
 11
362
 21
109.35
  0
LINE
  8
0
 10
362
 20
109.35
 11
356.15
 21
109.35
  0
LINE
  8
0
 10
356.15
 20
109.35
 11
356.15
 21
117.45
  0
LINE
  8
0
 10
356.15
 20
117.45
 11
362
 21
117.45
  0
LINE
  8
0
 10
362
 20
117.45
 11
362
 21
126.15
  0
LINE
  8
0
 10
362
 20
126.15
 11
356.15
 21
126.15
  0
LINE
  8
0
 10
356.15
 20
126.15
 11
356.15
 21
134.25
  0
LINE
  8
0
 10
356.15
 20
134.25
 11
362
 21
134.25
  0
LINE
  8
0
 10
362
 20
134.25
 11
362
 21
142.95
  0
LINE
  8
0
 10
362
 20
142.95
 11
356.15
 21
142.95
  0
LINE
  8
0
 10
356.15
 20
142.95
 11
356.15
 21
151.05
  0
LINE
  8
0
 10
356.15
 20
151.05
 11
362
 21
151.05
  0
LINE
  8
0
 10
362
 20
151.05
 11
362
 21
159.75
  0
LINE
  8
0
 10
362
 20
159.75
 11
356.15
 21
159.75
  0
LINE
  8
0
 10
356.15
 20
159.75
 11
356.15
 21
167.85
  0
LINE
  8
0
 10
356.15
 20
167.85
 11
362
 21
167.85
  0
LINE
  8
0
 10
362
 20
167.85
 11
362
 21
176.55
  0
LINE
  8
0
 10
362
 20
176.55
 11
356.15
 21
176.55
  0
LINE
  8
0
 10
356.15
 20
176.55
 11
356.15
 21
184.65
  0
LINE
  8
0
 10
356.15
 20
184.65
 11
362
 21
184.65
  0
LINE
  8
0
 10
362
 20
184.65
 11
362
 21
193.35
  0
LINE
  8
0
 10
362
 20
193.35
 11
356.15
 21
193.35
  0
LINE
  8
0
 10
356.15
 20
193.35
 11
356.15
 21
204.15
  0
LINE
  8
0
 10
356.15
 20
204.15
 11
348.964
 21
204.15
  0
LINE
  8
0
 10
348.964
 20
204.15
 11
348.964
 21
210
  0
LINE
  8
0
 10
348.964
 20
210
 11
340.478
 21
210
  0
LINE
  8
0
 10
340.478
 20
210
 11
340.478
 21
204.15
  0
LINE
  8
0
 10
340.478
 20
204.15
 11
332.592
 21
204.15
  0
LINE
  8
0
 10
332.592
 20
204.15
 11
332.592
 21
210
  0
LINE
  8
0
 10
332.592
 20
210
 11
324.106
 21
210
  0
LINE
  8
0
 10
324.106
 20
210
 11
324.106
 21
204.15
  0
LINE
  8
0
 10
324.106
 20
204.15
 11
316.22
 21
204.15
  0
LINE
  8
0
 10
316.22
 20
204.15
 11
316.22
 21
210
  0
LINE
  8
0
 10
316.22
 20
210
 11
307.734
 21
210
  0
LINE
  8
0
 10
307.734
 20
210
 11
307.734
 21
204.15
  0
LINE
  8
0
 10
307.734
 20
204.15
 11
299.848
 21
204.15
  0
LINE
  8
0
 10
299.848
 20
204.15
 11
299.848
 21
210
  0
LINE
  8
0
 10
299.848
 20
210
 11
291.362
 21
210
  0
LINE
  8
0
 10
291.362
 20
210
 11
291.362
 21
204.15
  0
LINE
  8
0
 10
291.362
 20
204.15
 11
283.476
 21
204.15
  0
LINE
  8
0
 10
283.476
 20
204.15
 11
283.476
 21
210
  0
LINE
  8
0
 10
283.476
 20
210
 11
274.99
 21
210
  0
LINE
  8
0
 10
274.99
 20
210
 11
274.99
 21
204.15
  0
LINE
  8
0
 10
274.99
 20
204.15
 11
267.103
 21
204.15
  0
LINE
  8
0
 10
267.103
 20
204.15
 11
267.103
 21
210
  0
LINE
  8
0
 10
267.103
 20
210
 11
258.617
 21
210
  0
LINE
  8
0
 10
258.617
 20
210
 11
258.617
 21
204.15
  0
LINE
  8
0
 10
258.617
 20
204.15
 11
250.731
 21
204.15
  0
LINE
  8
0
 10
250.731
 20
204.15
 11
250.731
 21
210
  0
LINE
  8
0
 10
250.731
 20
210
 11
242.245
 21
210
  0
LINE
  8
0
 10
242.245
 20
210
 11
242.245
 21
204.15
  0
LINE
  8
0
 10
242.245
 20
204.15
 11
234.359
 21
204.15
  0
LINE
  8
0
 10
234.359
 20
204.15
 11
234.359
 21
210
  0
LINE
  8
0
 10
234.359
 20
210
 11
225.873
 21
210
  0
LINE
  8
0
 10
225.873
 20
210
 11
225.873
 21
204.15
  0
LINE
  8
0
 10
225.873
 20
204.15
 11
217.987
 21
204.15
  0
LINE
  8
0
 10
217.987
 20
204.15
 11
217.987
 21
210
  0
LINE
  8
0
 10
217.987
 20
210
 11
209.501
 21
210
  0
LINE
  8
0
 10
209.501
 20
210
 11
209.501
 21
204.15
  0
LINE
  8
0
 10
209.501
 20
204.15
 11
201.615
 21
204.15
  0
LINE
  8
0
 10
201.615
 20
204.15
 11
201.615
 21
210
  0
LINE
  8
0
 10
201.615
 20
210
 11
193.129
 21
210
  0
LINE
  8
0
 10
193.129
 20
210
 11
193.129
 21
204.15
  0
LINE
  8
0
 10
193.129
 20
204.15
 11
185.243
 21
204.15
  0
LINE
  8
0
 10
185.243
 20
204.15
 11
185.243
 21
210
  0
LINE
  8
0
 10
185.243
 20
210
 11
176.757
 21
210
  0
LINE
  8
0
 10
176.757
 20
210
 11
176.757
 21
204.15
  0
LINE
  8
0
 10
176.757
 20
204.15
 11
168.871
 21
204.15
  0
LINE
  8
0
 10
168.871
 20
204.15
 11
168.871
 21
210
  0
LINE
  8
0
 10
168.871
 20
210
 11
160.385
 21
210
  0
LINE
  8
0
 10
160.385
 20
210
 11
160.385
 21
204.15
  0
LINE
  8
0
 10
160.385
 20
204.15
 11
152.499
 21
204.15
  0
LINE
  8
0
 10
152.499
 20
204.15
 11
152.499
 21
210
  0
LINE
  8
0
 10
152.499
 20
210
 11
144.013
 21
210
  0
LINE
  8
0
 10
144.013
 20
210
 11
144.013
 21
204.15
  0
LINE
  8
0
 10
144.013
 20
204.15
 11
136.127
 21
204.15
  0
LINE
  8
0
 10
136.127
 20
204.15
 11
136.127
 21
210
  0
LINE
  8
0
 10
136.127
 20
210
 11
127.641
 21
210
  0
LINE
  8
0
 10
127.641
 20
210
 11
127.641
 21
204.15
  0
LINE
  8
0
 10
127.641
 20
204.15
 11
119.755
 21
204.15
  0
LINE
  8
0
 10
119.755
 20
204.15
 11
119.755
 21
210
  0
LINE
  8
0
 10
119.755
 20
210
 11
111.269
 21
210
  0
LINE
  8
0
 10
111.269
 20
210
 11
111.269
 21
204.15
  0
LINE
  8
0
 10
111.269
 20
204.15
 11
103.383
 21
204.15
  0
LINE
  8
0
 10
103.383
 20
204.15
 11
103.383
 21
210
  0
LINE
  8
0
 10
103.383
 20
210
 11
94.8965
 21
210
  0
LINE
  8
0
 10
94.8965
 20
210
 11
94.8965
 21
204.15
  0
LINE
  8
0
 10
94.8965
 20
204.15
 11
87.0105
 21
204.15
  0
LINE
  8
0
 10
87.0105
 20
204.15
 11
87.0105
 21
210
  0
LINE
  8
0
 10
87.0105
 20
210
 11
78.5244
 21
210
  0
LINE
  8
0
 10
78.5244
 20
210
 11
78.5244
 21
204.15
  0
LINE
  8
0
 10
78.5244
 20
204.15
 11
70.6384
 21
204.15
  0
LINE
  8
0
 10
70.6384
 20
204.15
 11
70.6384
 21
210
  0
LINE
  8
0
 10
70.6384
 20
210
 11
62.1523
 21
210
  0
LINE
  8
0
 10
62.1523
 20
210
 11
62.1523
 21
204.15
  0
LINE
  8
0
 10
62.1523
 20
204.15
 11
54.2663
 21
204.15
  0
LINE
  8
0
 10
54.2663
 20
204.15
 11
54.2663
 21
210
  0
LINE
  8
0
 10
54.2663
 20
210
 11
45.7802
 21
210
  0
LINE
  8
0
 10
45.7802
 20
210
 11
45.7802
 21
204.15
  0
LINE
  8
0
 10
45.7802
 20
204.15
 11
37.8942
 21
204.15
  0
LINE
  8
0
 10
37.8942
 20
204.15
 11
37.8942
 21
210
  0
LINE
  8
0
 10
37.8942
 20
210
 11
29.4081
 21
210
  0
LINE
  8
0
 10
29.4081
 20
210
 11
29.4081
 21
204.15
  0
LINE
  8
0
 10
29.4081
 20
204.15
 11
21.5221
 21
204.15
  0
LINE
  8
0
 10
21.5221
 20
204.15
 11
21.5221
 21
210
  0
LINE
  8
0
 10
21.5221
 20
210
 11
13.036
 21
210
  0
LINE
  8
0
 10
13.036
 20
210
 11
13.036
 21
204.15
  0
LINE
  8
0
 10
13.036
 20
204.15
 11
5.85
 21
204.15
  0
LINE
  8
0
 10
5.85
 20
204.15
 11
5.85
 21
193.35
  0
LINE
  8
0
 10
5.85
 20
193.35
 11
0
 21
193.35
  0
LINE
  8
0
 10
0
 20
193.35
 11
0
 21
184.65
  0
LINE
  8
0
 10
0
 20
184.65
 11
5.85
 21
184.65
  0
LINE
  8
0
 10
5.85
 20
184.65
 11
5.85
 21
176.55
  0
LINE
  8
0
 10
5.85
 20
176.55
 11
0
 21
176.55
  0
LINE
  8
0
 10
0
 20
176.55
 11
0
 21
167.85
  0
LINE
  8
0
 10
0
 20
167.85
 11
5.85
 21
167.85
  0
LINE
  8
0
 10
5.85
 20
167.85
 11
5.85
 21
159.75
  0
LINE
  8
0
 10
5.85
 20
159.75
 11
0
 21
159.75
  0
LINE
  8
0
 10
0
 20
159.75
 11
0
 21
151.05
  0
LINE
  8
0
 10
0
 20
151.05
 11
5.85
 21
151.05
  0
LINE
  8
0
 10
5.85
 20
151.05
 11
5.85
 21
142.95
  0
LINE
  8
0
 10
5.85
 20
142.95
 11
0
 21
142.95
  0
LINE
  8
0
 10
0
 20
142.95
 11
0
 21
134.25
  0
LINE
  8
0
 10
0
 20
134.25
 11
5.85
 21
134.25
  0
LINE
  8
0
 10
5.85
 20
134.25
 11
5.85
 21
126.15
  0
LINE
  8
0
 10
5.85
 20
126.15
 11
0
 21
126.15
  0
LINE
  8
0
 10
0
 20
126.15
 11
0
 21
117.45
  0
LINE
  8
0
 10
0
 20
117.45
 11
5.85
 21
117.45
  0
LINE
  8
0
 10
5.85
 20
117.45
 11
5.85
 21
109.35
  0
LINE
  8
0
 10
5.85
 20
109.35
 11
0
 21
109.35
  0
LINE
  8
0
 10
0
 20
109.35
 11
0
 21
100.65
  0
LINE
  8
0
 10
0
 20
100.65
 11
5.85
 21
100.65
  0
LINE
  8
0
 10
5.85
 20
100.65
 11
5.85
 21
92.55
  0
LINE
  8
0
 10
5.85
 20
92.55
 11
0
 21
92.55
  0
LINE
  8
0
 10
0
 20
92.55
 11
0
 21
83.85
  0
LINE
  8
0
 10
0
 20
83.85
 11
5.85
 21
83.85
  0
LINE
  8
0
 10
5.85
 20
83.85
 11
5.85
 21
75.75
  0
LINE
  8
0
 10
5.85
 20
75.75
 11
0
 21
75.75
  0
LINE
  8
0
 10
0
 20
75.75
 11
0
 21
67.05
  0
LINE
  8
0
 10
0
 20
67.05
 11
5.85
 21
67.05
  0
LINE
  8
0
 10
5.85
 20
67.05
 11
5.85
 21
58.95
  0
LINE
  8
0
 10
5.85
 20
58.95
 11
0
 21
58.95
  0
LINE
  8
0
 10
0
 20
58.95
 11
0
 21
50.25
  0
LINE
  8
0
 10
0
 20
50.25
 11
5.85
 21
50.25
  0
LINE
  8
0
 10
5.85
 20
50.25
 11
5.85
 21
42.15
  0
LINE
  8
0
 10
5.85
 20
42.15
 11
0
 21
42.15
  0
LINE
  8
0
 10
0
 20
42.15
 11
0
 21
33.45
  0
LINE
  8
0
 10
0
 20
33.45
 11
5.85
 21
33.45
  0
LINE
  8
0
 10
5.85
 20
33.45
 11
5.85
 21
25.35
  0
LINE
  8
0
 10
5.85
 20
25.35
 11
0
 21
25.35
  0
LINE
  8
0
 10
0
 20
25.35
 11
0
 21
16.65
  0
ENDSEC
  0
SECTION
  2
OBJECTS
  0
DICTIONARY
  0
ENDSEC
  0
EOF
