<?xml version="1.0" standalone="no"?>
<!DOCTYPE svg PUBLIC "-//W3C//DTD SVG 1.1//EN" "http://www.w3.org/Graphics/SVG/1.1/DTD/svg11.dtd">
<svg width="350mm" height="200mm" viewBox="0 -200 350 200" xmlns="http://www.w3.org/2000/svg" version="1.1">
<title>OpenSCAD Model</title>
<path d="
M 0,-16 L 5,-16 L 5,-5 L 16.2791,-5 L 16.2791,-0 L 24.4186,-0
 L 24.4186,-5 L 32.5581,-5 L 32.5581,-0 L 40.6977,-0 L 40.6977,-5 L 48.8372,-5
 L 48.8372,-0 L 56.9767,-0 L 56.9767,-5 L 65.1163,-5 L 65.1163,-0 L 73.2558,-0
 L 73.2558,-5 L 81.3953,-5 L 81.3953,-0 L 89.5349,-0 L 89.5349,-5 L 97.6744,-5
 L 97.6744,-0 L 105.814,-0 L 105.814,-5 L 113.953,-5 L 113.953,-0 L 122.093,-0
 L 122.093,-5 L 130.233,-5 L 130.233,-0 L 138.372,-0 L 138.372,-5 L 146.512,-5
 L 146.512,-0 L 154.651,-0 L 154.651,-5 L 162.791,-5 L 162.791,-0 L 170.93,-0
 L 170.93,-5 L 179.07,-5 L 179.07,-0 L 187.209,-0 L 187.209,-5 L 195.349,-5
 L 195.349,-0 L 203.488,-0 L 203.488,-5 L 211.628,-5 L 211.628,-0 L 219.767,-0
 L 219.767,-5 L 227.907,-5 L 227.907,-0 L 236.047,-0 L 236.047,-5 L 244.186,-5
 L 244.186,-0 L 252.326,-0 L 252.326,-5 L 260.465,-5 L 260.465,-0 L 268.605,-0
 L 268.605,-5 L 276.744,-5 L 276.744,-0 L 284.884,-0 L 284.884,-5 L 293.023,-5
 L 293.023,-0 L 301.163,-0 L 301.163,-5 L 309.302,-5 L 309.302,-0 L 317.442,-0
 L 317.442,-5 L 325.581,-5 L 325.581,-0 L 333.721,-0 L 333.721,-5 L 345,-5
 L 345,-16 L 350,-16 L 350,-24 L 345,-24 L 345,-32 L 350,-32
 L 350,-40 L 345,-40 L 345,-48 L 350,-48 L 350,-56 L 345,-56
 L 345,-64 L 350,-64 L 350,-72 L 345,-72 L 345,-80 L 350,-80
 L 350,-88 L 345,-88 L 345,-96 L 350,-96 L 350,-104 L 345,-104
 L 345,-112 L 350,-112 L 350,-120 L 345,-120 L 345,-128 L 350,-128
 L 350,-136 L 345,-136 L 345,-144 L 350,-144 L 350,-152 L 345,-152
 L 345,-160 L 350,-160 L 350,-168 L 345,-168 L 345,-176 L 350,-176
 L 350,-184 L 345,-184 L 345,-195 L 333.721,-195 L 333.721,-200 L 325.581,-200
 L 325.581,-195 L 317.442,-195 L 317.442,-200 L 309.302,-200 L 309.302,-195 L 301.163,-195
 L 301.163,-200 L 293.023,-200 L 293.023,-195 L 284.884,-195 L 284.884,-200 L 276.744,-200
 L 276.744,-195 L 268.605,-195 L 268.605,-200 L 260.465,-200 L 260.465,-195 L 252.326,-195
 L 252.326,-200 L 244.186,-200 L 244.186,-195 L 236.047,-195 L 236.047,-200 L 227.907,-200
 L 227.907,-195 L 219.767,-195 L 219.767,-200 L 211.628,-200 L 211.628,-195 L 203.488,-195
 L 203.488,-200 L 195.349,-200 L 195.349,-195 L 187.209,-195 L 187.209,-200 L 179.07,-200
 L 179.07,-195 L 170.93,-195 L 170.93,-200 L 162.791,-200 L 162.791,-195 L 154.651,-195
 L 154.651,-200 L 146.512,-200 L 146.512,-195 L 138.372,-195 L 138.372,-200 L 130.233,-200
 L 130.233,-195 L 122.093,-195 L 122.093,-200 L 113.953,-200 L 113.953,-195 L 105.814,-195
 L 105.814,-200 L 97.6744,-200 L 97.6744,-195 L 89.5349,-195 L 89.5349,-200 L 81.3953,-200
 L 81.3953,-195 L 73.2558,-195 L 73.2558,-200 L 65.1163,-200 L 65.1163,-195 L 56.9767,-195
 L 56.9767,-200 L 48.8372,-200 L 48.8372,-195 L 40.6977,-195 L 40.6977,-200 L 32.5581,-200
 L 32.5581,-195 L 24.4186,-195 L 24.4186,-200 L 16.2791,-200 L 16.2791,-195 L 5,-195
 L 5,-184 L 0,-184 L 0,-176 L 5,-176 L 5,-168 L 0,-168
 L 0,-160 L 5,-160 L 5,-152 L 0,-152 L 0,-144 L 5,-144
 L 5,-136 L 0,-136 L 0,-128 L 5,-128 L 5,-120 L 0,-120
 L 0,-112 L 5,-112 L 5,-104 L 0,-104 L 0,-96 L 5,-96
 L 5,-88 L 0,-88 L 0,-80 L 5,-80 L 5,-72 L 0,-72
 L 0,-64 L 5,-64 L 5,-56 L 0,-56 L 0,-48 L 5,-48
 L 5,-40 L 0,-40 L 0,-32 L 5,-32 L 5,-24 L 0,-24
 z
" stroke="black" fill="lightgray" stroke-width="0.5"/>
</svg>
