<?xml version="1.0" standalone="no"?>
<!DOCTYPE svg PUBLIC "-//W3C//DTD SVG 1.1//EN" "http://www.w3.org/Graphics/SVG/1.1/DTD/svg11.dtd">
<svg width="350mm" height="200mm" viewBox="0 -200 350 200" xmlns="http://www.w3.org/2000/svg" version="1.1">
<title>OpenSCAD Model</title>
<path d="
M 0,-16 L 5,-16 L 5,-5 L 13.2927,-5 L 13.2927,-0 L 21.5854,-0
 L 21.5854,-5 L 29.878,-5 L 29.878,-0 L 38.1707,-0 L 38.1707,-5 L 46.4634,-5
 L 46.4634,-0 L 54.7561,-0 L 54.7561,-5 L 63.0488,-5 L 63.0488,-0 L 71.3415,-0
 L 71.3415,-5 L 79.6341,-5 L 79.6341,-0 L 87.9268,-0 L 87.9268,-5 L 96.2195,-5
 L 96.2195,-0 L 104.512,-0 L 104.512,-5 L 112.805,-5 L 112.805,-0 L 121.098,-0
 L 121.098,-5 L 129.39,-5 L 129.39,-0 L 137.683,-0 L 137.683,-5 L 145.976,-5
 L 145.976,-0 L 154.268,-0 L 154.268,-5 L 162.561,-5 L 162.561,-0 L 170.854,-0
 L 170.854,-5 L 179.146,-5 L 179.146,-0 L 187.439,-0 L 187.439,-5 L 195.732,-5
 L 195.732,-0 L 204.024,-0 L 204.024,-5 L 212.317,-5 L 212.317,-0 L 220.61,-0
 L 220.61,-5 L 228.902,-5 L 228.902,-0 L 237.195,-0 L 237.195,-5 L 245.488,-5
 L 245.488,-0 L 253.78,-0 L 253.78,-5 L 262.073,-5 L 262.073,-0 L 270.366,-0
 L 270.366,-5 L 278.659,-5 L 278.659,-0 L 286.951,-0 L 286.951,-5 L 295.244,-5
 L 295.244,-0 L 303.537,-0 L 303.537,-5 L 311.829,-5 L 311.829,-0 L 320.122,-0
 L 320.122,-5 L 328.415,-5 L 328.415,-0 L 336.707,-0 L 336.707,-5 L 345,-5
 L 345,-16 L 350,-16 L 350,-24 L 345,-24 L 345,-32 L 350,-32
 L 350,-40 L 345,-40 L 345,-48 L 350,-48 L 350,-56 L 345,-56
 L 345,-64 L 350,-64 L 350,-72 L 345,-72 L 345,-80 L 350,-80
 L 350,-88 L 345,-88 L 345,-96 L 350,-96 L 350,-104 L 345,-104
 L 345,-112 L 350,-112 L 350,-120 L 345,-120 L 345,-128 L 350,-128
 L 350,-136 L 345,-136 L 345,-144 L 350,-144 L 350,-152 L 345,-152
 L 345,-160 L 350,-160 L 350,-168 L 345,-168 L 345,-176 L 350,-176
 L 350,-184 L 345,-184 L 345,-195 L 336.707,-195 L 336.707,-200 L 328.415,-200
 L 328.415,-195 L 320.122,-195 L 320.122,-200 L 311.829,-200 L 311.829,-195 L 303.537,-195
 L 303.537,-200 L 295.244,-200 L 295.244,-195 L 286.951,-195 L 286.951,-200 L 278.659,-200
 L 278.659,-195 L 270.366,-195 L 270.366,-200 L 262.073,-200 L 262.073,-195 L 253.78,-195
 L 253.78,-200 L 245.488,-200 L 245.488,-195 L 237.195,-195 L 237.195,-200 L 228.902,-200
 L 228.902,-195 L 220.61,-195 L 220.61,-200 L 212.317,-200 L 212.317,-195 L 204.024,-195
 L 204.024,-200 L 195.732,-200 L 195.732,-195 L 187.439,-195 L 187.439,-200 L 179.146,-200
 L 179.146,-195 L 170.854,-195 L 170.854,-200 L 162.561,-200 L 162.561,-195 L 154.268,-195
 L 154.268,-200 L 145.976,-200 L 145.976,-195 L 137.683,-195 L 137.683,-200 L 129.39,-200
 L 129.39,-195 L 121.098,-195 L 121.098,-200 L 112.805,-200 L 112.805,-195 L 104.512,-195
 L 104.512,-200 L 96.2195,-200 L 96.2195,-195 L 87.9268,-195 L 87.9268,-200 L 79.6341,-200
 L 79.6341,-195 L 71.3415,-195 L 71.3415,-200 L 63.0488,-200 L 63.0488,-195 L 54.7561,-195
 L 54.7561,-200 L 46.4634,-200 L 46.4634,-195 L 38.1707,-195 L 38.1707,-200 L 29.878,-200
 L 29.878,-195 L 21.5854,-195 L 21.5854,-200 L 13.2927,-200 L 13.2927,-195 L 5,-195
 L 5,-184 L 0,-184 L 0,-176 L 5,-176 L 5,-168 L 0,-168
 L 0,-160 L 5,-160 L 5,-152 L 0,-152 L 0,-144 L 5,-144
 L 5,-136 L 0,-136 L 0,-128 L 5,-128 L 5,-120 L 0,-120
 L 0,-112 L 5,-112 L 5,-104 L 0,-104 L 0,-96 L 5,-96
 L 5,-88 L 0,-88 L 0,-80 L 5,-80 L 5,-72 L 0,-72
 L 0,-64 L 5,-64 L 5,-56 L 0,-56 L 0,-48 L 5,-48
 L 5,-40 L 0,-40 L 0,-32 L 5,-32 L 5,-24 L 0,-24
 z
" stroke="black" fill="lightgray" stroke-width="0.5"/>
</svg>
