  0
SECTION
  2
BLOCKS
  0
ENDSEC
  0
SECTION
  2
ENTITIES
  0
LINE
  8
0
 10
0
 20
18.1818
 11
5
 21
18.1818
  0
LINE
  8
0
 10
5
 20
18.1818
 11
5
 21
0
  0
LINE
  8
0
 10
5
 20
0
 11
20.5882
 21
0
  0
LINE
  8
0
 10
20.5882
 20
0
 11
20.5882
 21
5
  0
LINE
  8
0
 10
20.5882
 20
5
 11
41.1765
 21
5
  0
LINE
  8
0
 10
41.1765
 20
5
 11
41.1765
 21
0
  0
LINE
  8
0
 10
41.1765
 20
0
 11
61.7647
 21
0
  0
LINE
  8
0
 10
61.7647
 20
0
 11
61.7647
 21
5
  0
LINE
  8
0
 10
61.7647
 20
5
 11
82.3529
 21
5
  0
LINE
  8
0
 10
82.3529
 20
5
 11
82.3529
 21
0
  0
LINE
  8
0
 10
82.3529
 20
0
 11
102.941
 21
0
  0
LINE
  8
0
 10
102.941
 20
0
 11
102.941
 21
5
  0
LINE
  8
0
 10
102.941
 20
5
 11
123.529
 21
5
  0
LINE
  8
0
 10
123.529
 20
5
 11
123.529
 21
0
  0
LINE
  8
0
 10
123.529
 20
0
 11
144.118
 21
0
  0
LINE
  8
0
 10
144.118
 20
0
 11
144.118
 21
5
  0
LINE
  8
0
 10
144.118
 20
5
 11
164.706
 21
5
  0
LINE
  8
0
 10
164.706
 20
5
 11
164.706
 21
0
  0
LINE
  8
0
 10
164.706
 20
0
 11
185.294
 21
0
  0
LINE
  8
0
 10
185.294
 20
0
 11
185.294
 21
5
  0
LINE
  8
0
 10
185.294
 20
5
 11
205.882
 21
5
  0
LINE
  8
0
 10
205.882
 20
5
 11
205.882
 21
0
  0
LINE
  8
0
 10
205.882
 20
0
 11
226.471
 21
0
  0
LINE
  8
0
 10
226.471
 20
0
 11
226.471
 21
5
  0
LINE
  8
0
 10
226.471
 20
5
 11
247.059
 21
5
  0
LINE
  8
0
 10
247.059
 20
5
 11
247.059
 21
0
  0
LINE
  8
0
 10
247.059
 20
0
 11
267.647
 21
0
  0
LINE
  8
0
 10
267.647
 20
0
 11
267.647
 21
5
  0
LINE
  8
0
 10
267.647
 20
5
 11
288.235
 21
5
  0
LINE
  8
0
 10
288.235
 20
5
 11
288.235
 21
0
  0
LINE
  8
0
 10
288.235
 20
0
 11
308.824
 21
0
  0
LINE
  8
0
 10
308.824
 20
0
 11
308.824
 21
5
  0
LINE
  8
0
 10
308.824
 20
5
 11
329.412
 21
5
  0
LINE
  8
0
 10
329.412
 20
5
 11
329.412
 21
0
  0
LINE
  8
0
 10
329.412
 20
0
 11
345
 21
0
  0
LINE
  8
0
 10
345
 20
0
 11
345
 21
18.1818
  0
LINE
  8
0
 10
345
 20
18.1818
 11
350
 21
18.1818
  0
LINE
  8
0
 10
350
 20
18.1818
 11
350
 21
36.3636
  0
LINE
  8
0
 10
350
 20
36.3636
 11
345
 21
36.3636
  0
LINE
  8
0
 10
345
 20
36.3636
 11
345
 21
54.5455
  0
LINE
  8
0
 10
345
 20
54.5455
 11
350
 21
54.5455
  0
LINE
  8
0
 10
350
 20
54.5455
 11
350
 21
72.7273
  0
LINE
  8
0
 10
350
 20
72.7273
 11
345
 21
72.7273
  0
LINE
  8
0
 10
345
 20
72.7273
 11
345
 21
90.9091
  0
LINE
  8
0
 10
345
 20
90.9091
 11
350
 21
90.9091
  0
LINE
  8
0
 10
350
 20
90.9091
 11
350
 21
109.091
  0
LINE
  8
0
 10
350
 20
109.091
 11
345
 21
109.091
  0
LINE
  8
0
 10
345
 20
109.091
 11
345
 21
127.273
  0
LINE
  8
0
 10
345
 20
127.273
 11
350
 21
127.273
  0
LINE
  8
0
 10
350
 20
127.273
 11
350
 21
145.455
  0
LINE
  8
0
 10
350
 20
145.455
 11
345
 21
145.455
  0
LINE
  8
0
 10
345
 20
145.455
 11
345
 21
163.636
  0
LINE
  8
0
 10
345
 20
163.636
 11
350
 21
163.636
  0
LINE
  8
0
 10
350
 20
163.636
 11
350
 21
181.818
  0
LINE
  8
0
 10
350
 20
181.818
 11
345
 21
181.818
  0
LINE
  8
0
 10
345
 20
181.818
 11
345
 21
200
  0
LINE
  8
0
 10
345
 20
200
 11
329.412
 21
200
  0
LINE
  8
0
 10
329.412
 20
200
 11
329.412
 21
195
  0
LINE
  8
0
 10
329.412
 20
195
 11
308.824
 21
195
  0
LINE
  8
0
 10
308.824
 20
195
 11
308.824
 21
200
  0
LINE
  8
0
 10
308.824
 20
200
 11
288.235
 21
200
  0
LINE
  8
0
 10
288.235
 20
200
 11
288.235
 21
195
  0
LINE
  8
0
 10
288.235
 20
195
 11
267.647
 21
195
  0
LINE
  8
0
 10
267.647
 20
195
 11
267.647
 21
200
  0
LINE
  8
0
 10
267.647
 20
200
 11
247.059
 21
200
  0
LINE
  8
0
 10
247.059
 20
200
 11
247.059
 21
195
  0
LINE
  8
0
 10
247.059
 20
195
 11
226.471
 21
195
  0
LINE
  8
0
 10
226.471
 20
195
 11
226.471
 21
200
  0
LINE
  8
0
 10
226.471
 20
200
 11
205.882
 21
200
  0
LINE
  8
0
 10
205.882
 20
200
 11
205.882
 21
195
  0
LINE
  8
0
 10
205.882
 20
195
 11
185.294
 21
195
  0
LINE
  8
0
 10
185.294
 20
195
 11
185.294
 21
200
  0
LINE
  8
0
 10
185.294
 20
200
 11
164.706
 21
200
  0
LINE
  8
0
 10
164.706
 20
200
 11
164.706
 21
195
  0
LINE
  8
0
 10
164.706
 20
195
 11
144.118
 21
195
  0
LINE
  8
0
 10
144.118
 20
195
 11
144.118
 21
200
  0
LINE
  8
0
 10
144.118
 20
200
 11
123.529
 21
200
  0
LINE
  8
0
 10
123.529
 20
200
 11
123.529
 21
195
  0
LINE
  8
0
 10
123.529
 20
195
 11
102.941
 21
195
  0
LINE
  8
0
 10
102.941
 20
195
 11
102.941
 21
200
  0
LINE
  8
0
 10
102.941
 20
200
 11
82.3529
 21
200
  0
LINE
  8
0
 10
82.3529
 20
200
 11
82.3529
 21
195
  0
LINE
  8
0
 10
82.3529
 20
195
 11
61.7647
 21
195
  0
LINE
  8
0
 10
61.7647
 20
195
 11
61.7647
 21
200
  0
LINE
  8
0
 10
61.7647
 20
200
 11
41.1765
 21
200
  0
LINE
  8
0
 10
41.1765
 20
200
 11
41.1765
 21
195
  0
LINE
  8
0
 10
41.1765
 20
195
 11
20.5882
 21
195
  0
LINE
  8
0
 10
20.5882
 20
195
 11
20.5882
 21
200
  0
LINE
  8
0
 10
20.5882
 20
200
 11
5
 21
200
  0
LINE
  8
0
 10
5
 20
200
 11
5
 21
181.818
  0
LINE
  8
0
 10
5
 20
181.818
 11
0
 21
181.818
  0
LINE
  8
0
 10
0
 20
181.818
 11
0
 21
163.636
  0
LINE
  8
0
 10
0
 20
163.636
 11
5
 21
163.636
  0
LINE
  8
0
 10
5
 20
163.636
 11
5
 21
145.455
  0
LINE
  8
0
 10
5
 20
145.455
 11
0
 21
145.455
  0
LINE
  8
0
 10
0
 20
145.455
 11
0
 21
127.273
  0
LINE
  8
0
 10
0
 20
127.273
 11
5
 21
127.273
  0
LINE
  8
0
 10
5
 20
127.273
 11
5
 21
109.091
  0
LINE
  8
0
 10
5
 20
109.091
 11
0
 21
109.091
  0
LINE
  8
0
 10
0
 20
109.091
 11
0
 21
90.9091
  0
LINE
  8
0
 10
0
 20
90.9091
 11
5
 21
90.9091
  0
LINE
  8
0
 10
5
 20
90.9091
 11
5
 21
72.7273
  0
LINE
  8
0
 10
5
 20
72.7273
 11
0
 21
72.7273
  0
LINE
  8
0
 10
0
 20
72.7273
 11
0
 21
54.5455
  0
LINE
  8
0
 10
0
 20
54.5455
 11
5
 21
54.5455
  0
LINE
  8
0
 10
5
 20
54.5455
 11
5
 21
36.3636
  0
LINE
  8
0
 10
5
 20
36.3636
 11
0
 21
36.3636
  0
LINE
  8
0
 10
0
 20
36.3636
 11
0
 21
18.1818
  0
ENDSEC
  0
SECTION
  2
OBJECTS
  0
DICTIONARY
  0
ENDSEC
  0
EOF
