  0
SECTION
  2
BLOCKS
  0
ENDSEC
  0
SECTION
  2
ENTITIES
  0
LINE
  8
0
 10
0
 20
16.8
 11
5
 21
16.8
  0
LINE
  8
0
 10
5
 20
16.8
 11
5
 21
5
  0
LINE
  8
0
 10
5
 20
5
 11
13.1395
 21
5
  0
LINE
  8
0
 10
13.1395
 20
5
 11
13.1395
 21
0
  0
LINE
  8
0
 10
13.1395
 20
0
 11
21.2791
 21
0
  0
LINE
  8
0
 10
21.2791
 20
0
 11
21.2791
 21
5
  0
LINE
  8
0
 10
21.2791
 20
5
 11
29.4186
 21
5
  0
LINE
  8
0
 10
29.4186
 20
5
 11
29.4186
 21
0
  0
LINE
  8
0
 10
29.4186
 20
0
 11
37.5581
 21
0
  0
LINE
  8
0
 10
37.5581
 20
0
 11
37.5581
 21
5
  0
LINE
  8
0
 10
37.5581
 20
5
 11
45.6977
 21
5
  0
LINE
  8
0
 10
45.6977
 20
5
 11
45.6977
 21
0
  0
LINE
  8
0
 10
45.6977
 20
0
 11
53.8372
 21
0
  0
LINE
  8
0
 10
53.8372
 20
0
 11
53.8372
 21
5
  0
LINE
  8
0
 10
53.8372
 20
5
 11
61.9767
 21
5
  0
LINE
  8
0
 10
61.9767
 20
5
 11
61.9767
 21
0
  0
LINE
  8
0
 10
61.9767
 20
0
 11
70.1163
 21
0
  0
LINE
  8
0
 10
70.1163
 20
0
 11
70.1163
 21
5
  0
LINE
  8
0
 10
70.1163
 20
5
 11
78.2558
 21
5
  0
LINE
  8
0
 10
78.2558
 20
5
 11
78.2558
 21
0
  0
LINE
  8
0
 10
78.2558
 20
0
 11
86.3953
 21
0
  0
LINE
  8
0
 10
86.3953
 20
0
 11
86.3953
 21
5
  0
LINE
  8
0
 10
86.3953
 20
5
 11
94.5349
 21
5
  0
LINE
  8
0
 10
94.5349
 20
5
 11
94.5349
 21
0
  0
LINE
  8
0
 10
94.5349
 20
0
 11
102.674
 21
0
  0
LINE
  8
0
 10
102.674
 20
0
 11
102.674
 21
5
  0
LINE
  8
0
 10
102.674
 20
5
 11
110.814
 21
5
  0
LINE
  8
0
 10
110.814
 20
5
 11
110.814
 21
0
  0
LINE
  8
0
 10
110.814
 20
0
 11
118.953
 21
0
  0
LINE
  8
0
 10
118.953
 20
0
 11
118.953
 21
5
  0
LINE
  8
0
 10
118.953
 20
5
 11
127.093
 21
5
  0
LINE
  8
0
 10
127.093
 20
5
 11
127.093
 21
0
  0
LINE
  8
0
 10
127.093
 20
0
 11
135.233
 21
0
  0
LINE
  8
0
 10
135.233
 20
0
 11
135.233
 21
5
  0
LINE
  8
0
 10
135.233
 20
5
 11
143.372
 21
5
  0
LINE
  8
0
 10
143.372
 20
5
 11
143.372
 21
0
  0
LINE
  8
0
 10
143.372
 20
0
 11
151.512
 21
0
  0
LINE
  8
0
 10
151.512
 20
0
 11
151.512
 21
5
  0
LINE
  8
0
 10
151.512
 20
5
 11
159.651
 21
5
  0
LINE
  8
0
 10
159.651
 20
5
 11
159.651
 21
0
  0
LINE
  8
0
 10
159.651
 20
0
 11
167.791
 21
0
  0
LINE
  8
0
 10
167.791
 20
0
 11
167.791
 21
5
  0
LINE
  8
0
 10
167.791
 20
5
 11
175.93
 21
5
  0
LINE
  8
0
 10
175.93
 20
5
 11
175.93
 21
0
  0
LINE
  8
0
 10
175.93
 20
0
 11
184.07
 21
0
  0
LINE
  8
0
 10
184.07
 20
0
 11
184.07
 21
5
  0
LINE
  8
0
 10
184.07
 20
5
 11
192.209
 21
5
  0
LINE
  8
0
 10
192.209
 20
5
 11
192.209
 21
0
  0
LINE
  8
0
 10
192.209
 20
0
 11
200.349
 21
0
  0
LINE
  8
0
 10
200.349
 20
0
 11
200.349
 21
5
  0
LINE
  8
0
 10
200.349
 20
5
 11
208.488
 21
5
  0
LINE
  8
0
 10
208.488
 20
5
 11
208.488
 21
0
  0
LINE
  8
0
 10
208.488
 20
0
 11
216.628
 21
0
  0
LINE
  8
0
 10
216.628
 20
0
 11
216.628
 21
5
  0
LINE
  8
0
 10
216.628
 20
5
 11
224.767
 21
5
  0
LINE
  8
0
 10
224.767
 20
5
 11
224.767
 21
0
  0
LINE
  8
0
 10
224.767
 20
0
 11
232.907
 21
0
  0
LINE
  8
0
 10
232.907
 20
0
 11
232.907
 21
5
  0
LINE
  8
0
 10
232.907
 20
5
 11
241.047
 21
5
  0
LINE
  8
0
 10
241.047
 20
5
 11
241.047
 21
0
  0
LINE
  8
0
 10
241.047
 20
0
 11
249.186
 21
0
  0
LINE
  8
0
 10
249.186
 20
0
 11
249.186
 21
5
  0
LINE
  8
0
 10
249.186
 20
5
 11
257.326
 21
5
  0
LINE
  8
0
 10
257.326
 20
5
 11
257.326
 21
0
  0
LINE
  8
0
 10
257.326
 20
0
 11
265.465
 21
0
  0
LINE
  8
0
 10
265.465
 20
0
 11
265.465
 21
5
  0
LINE
  8
0
 10
265.465
 20
5
 11
273.605
 21
5
  0
LINE
  8
0
 10
273.605
 20
5
 11
273.605
 21
0
  0
LINE
  8
0
 10
273.605
 20
0
 11
281.744
 21
0
  0
LINE
  8
0
 10
281.744
 20
0
 11
281.744
 21
5
  0
LINE
  8
0
 10
281.744
 20
5
 11
289.884
 21
5
  0
LINE
  8
0
 10
289.884
 20
5
 11
289.884
 21
0
  0
LINE
  8
0
 10
289.884
 20
0
 11
298.023
 21
0
  0
LINE
  8
0
 10
298.023
 20
0
 11
298.023
 21
5
  0
LINE
  8
0
 10
298.023
 20
5
 11
306.163
 21
5
  0
LINE
  8
0
 10
306.163
 20
5
 11
306.163
 21
0
  0
LINE
  8
0
 10
306.163
 20
0
 11
314.302
 21
0
  0
LINE
  8
0
 10
314.302
 20
0
 11
314.302
 21
5
  0
LINE
  8
0
 10
314.302
 20
5
 11
322.442
 21
5
  0
LINE
  8
0
 10
322.442
 20
5
 11
322.442
 21
0
  0
LINE
  8
0
 10
322.442
 20
0
 11
330.581
 21
0
  0
LINE
  8
0
 10
330.581
 20
0
 11
330.581
 21
5
  0
LINE
  8
0
 10
330.581
 20
5
 11
338.721
 21
5
  0
LINE
  8
0
 10
338.721
 20
5
 11
338.721
 21
0
  0
LINE
  8
0
 10
338.721
 20
0
 11
346.86
 21
0
  0
LINE
  8
0
 10
346.86
 20
0
 11
346.86
 21
5
  0
LINE
  8
0
 10
346.86
 20
5
 11
355
 21
5
  0
LINE
  8
0
 10
355
 20
5
 11
355
 21
16.8
  0
LINE
  8
0
 10
355
 20
16.8
 11
360
 21
16.8
  0
LINE
  8
0
 10
360
 20
16.8
 11
360
 21
25.2
  0
LINE
  8
0
 10
360
 20
25.2
 11
355
 21
25.2
  0
LINE
  8
0
 10
355
 20
25.2
 11
355
 21
33.6
  0
LINE
  8
0
 10
355
 20
33.6
 11
360
 21
33.6
  0
LINE
  8
0
 10
360
 20
33.6
 11
360
 21
42
  0
LINE
  8
0
 10
360
 20
42
 11
355
 21
42
  0
LINE
  8
0
 10
355
 20
42
 11
355
 21
50.4
  0
LINE
  8
0
 10
355
 20
50.4
 11
360
 21
50.4
  0
LINE
  8
0
 10
360
 20
50.4
 11
360
 21
58.8
  0
LINE
  8
0
 10
360
 20
58.8
 11
355
 21
58.8
  0
LINE
  8
0
 10
355
 20
58.8
 11
355
 21
67.2
  0
LINE
  8
0
 10
355
 20
67.2
 11
360
 21
67.2
  0
LINE
  8
0
 10
360
 20
67.2
 11
360
 21
75.6
  0
LINE
  8
0
 10
360
 20
75.6
 11
355
 21
75.6
  0
LINE
  8
0
 10
355
 20
75.6
 11
355
 21
84
  0
LINE
  8
0
 10
355
 20
84
 11
360
 21
84
  0
LINE
  8
0
 10
360
 20
84
 11
360
 21
92.4
  0
LINE
  8
0
 10
360
 20
92.4
 11
355
 21
92.4
  0
LINE
  8
0
 10
355
 20
92.4
 11
355
 21
100.8
  0
LINE
  8
0
 10
355
 20
100.8
 11
360
 21
100.8
  0
LINE
  8
0
 10
360
 20
100.8
 11
360
 21
109.2
  0
LINE
  8
0
 10
360
 20
109.2
 11
355
 21
109.2
  0
LINE
  8
0
 10
355
 20
109.2
 11
355
 21
117.6
  0
LINE
  8
0
 10
355
 20
117.6
 11
360
 21
117.6
  0
LINE
  8
0
 10
360
 20
117.6
 11
360
 21
126
  0
LINE
  8
0
 10
360
 20
126
 11
355
 21
126
  0
LINE
  8
0
 10
355
 20
126
 11
355
 21
134.4
  0
LINE
  8
0
 10
355
 20
134.4
 11
360
 21
134.4
  0
LINE
  8
0
 10
360
 20
134.4
 11
360
 21
142.8
  0
LINE
  8
0
 10
360
 20
142.8
 11
355
 21
142.8
  0
LINE
  8
0
 10
355
 20
142.8
 11
355
 21
151.2
  0
LINE
  8
0
 10
355
 20
151.2
 11
360
 21
151.2
  0
LINE
  8
0
 10
360
 20
151.2
 11
360
 21
159.6
  0
LINE
  8
0
 10
360
 20
159.6
 11
355
 21
159.6
  0
LINE
  8
0
 10
355
 20
159.6
 11
355
 21
168
  0
LINE
  8
0
 10
355
 20
168
 11
360
 21
168
  0
LINE
  8
0
 10
360
 20
168
 11
360
 21
176.4
  0
LINE
  8
0
 10
360
 20
176.4
 11
355
 21
176.4
  0
LINE
  8
0
 10
355
 20
176.4
 11
355
 21
184.8
  0
LINE
  8
0
 10
355
 20
184.8
 11
360
 21
184.8
  0
LINE
  8
0
 10
360
 20
184.8
 11
360
 21
193.2
  0
LINE
  8
0
 10
360
 20
193.2
 11
355
 21
193.2
  0
LINE
  8
0
 10
355
 20
193.2
 11
355
 21
205
  0
LINE
  8
0
 10
355
 20
205
 11
346.86
 21
205
  0
LINE
  8
0
 10
346.86
 20
205
 11
346.86
 21
210
  0
LINE
  8
0
 10
346.86
 20
210
 11
338.721
 21
210
  0
LINE
  8
0
 10
338.721
 20
210
 11
338.721
 21
205
  0
LINE
  8
0
 10
338.721
 20
205
 11
330.581
 21
205
  0
LINE
  8
0
 10
330.581
 20
205
 11
330.581
 21
210
  0
LINE
  8
0
 10
330.581
 20
210
 11
322.442
 21
210
  0
LINE
  8
0
 10
322.442
 20
210
 11
322.442
 21
205
  0
LINE
  8
0
 10
322.442
 20
205
 11
314.302
 21
205
  0
LINE
  8
0
 10
314.302
 20
205
 11
314.302
 21
210
  0
LINE
  8
0
 10
314.302
 20
210
 11
306.163
 21
210
  0
LINE
  8
0
 10
306.163
 20
210
 11
306.163
 21
205
  0
LINE
  8
0
 10
306.163
 20
205
 11
298.023
 21
205
  0
LINE
  8
0
 10
298.023
 20
205
 11
298.023
 21
210
  0
LINE
  8
0
 10
298.023
 20
210
 11
289.884
 21
210
  0
LINE
  8
0
 10
289.884
 20
210
 11
289.884
 21
205
  0
LINE
  8
0
 10
289.884
 20
205
 11
281.744
 21
205
  0
LINE
  8
0
 10
281.744
 20
205
 11
281.744
 21
210
  0
LINE
  8
0
 10
281.744
 20
210
 11
273.605
 21
210
  0
LINE
  8
0
 10
273.605
 20
210
 11
273.605
 21
205
  0
LINE
  8
0
 10
273.605
 20
205
 11
265.465
 21
205
  0
LINE
  8
0
 10
265.465
 20
205
 11
265.465
 21
210
  0
LINE
  8
0
 10
265.465
 20
210
 11
257.326
 21
210
  0
LINE
  8
0
 10
257.326
 20
210
 11
257.326
 21
205
  0
LINE
  8
0
 10
257.326
 20
205
 11
249.186
 21
205
  0
LINE
  8
0
 10
249.186
 20
205
 11
249.186
 21
210
  0
LINE
  8
0
 10
249.186
 20
210
 11
241.047
 21
210
  0
LINE
  8
0
 10
241.047
 20
210
 11
241.047
 21
205
  0
LINE
  8
0
 10
241.047
 20
205
 11
232.907
 21
205
  0
LINE
  8
0
 10
232.907
 20
205
 11
232.907
 21
210
  0
LINE
  8
0
 10
232.907
 20
210
 11
224.767
 21
210
  0
LINE
  8
0
 10
224.767
 20
210
 11
224.767
 21
205
  0
LINE
  8
0
 10
224.767
 20
205
 11
216.628
 21
205
  0
LINE
  8
0
 10
216.628
 20
205
 11
216.628
 21
210
  0
LINE
  8
0
 10
216.628
 20
210
 11
208.488
 21
210
  0
LINE
  8
0
 10
208.488
 20
210
 11
208.488
 21
205
  0
LINE
  8
0
 10
208.488
 20
205
 11
200.349
 21
205
  0
LINE
  8
0
 10
200.349
 20
205
 11
200.349
 21
210
  0
LINE
  8
0
 10
200.349
 20
210
 11
192.209
 21
210
  0
LINE
  8
0
 10
192.209
 20
210
 11
192.209
 21
205
  0
LINE
  8
0
 10
192.209
 20
205
 11
184.07
 21
205
  0
LINE
  8
0
 10
184.07
 20
205
 11
184.07
 21
210
  0
LINE
  8
0
 10
184.07
 20
210
 11
175.93
 21
210
  0
LINE
  8
0
 10
175.93
 20
210
 11
175.93
 21
205
  0
LINE
  8
0
 10
175.93
 20
205
 11
167.791
 21
205
  0
LINE
  8
0
 10
167.791
 20
205
 11
167.791
 21
210
  0
LINE
  8
0
 10
167.791
 20
210
 11
159.651
 21
210
  0
LINE
  8
0
 10
159.651
 20
210
 11
159.651
 21
205
  0
LINE
  8
0
 10
159.651
 20
205
 11
151.512
 21
205
  0
LINE
  8
0
 10
151.512
 20
205
 11
151.512
 21
210
  0
LINE
  8
0
 10
151.512
 20
210
 11
143.372
 21
210
  0
LINE
  8
0
 10
143.372
 20
210
 11
143.372
 21
205
  0
LINE
  8
0
 10
143.372
 20
205
 11
135.233
 21
205
  0
LINE
  8
0
 10
135.233
 20
205
 11
135.233
 21
210
  0
LINE
  8
0
 10
135.233
 20
210
 11
127.093
 21
210
  0
LINE
  8
0
 10
127.093
 20
210
 11
127.093
 21
205
  0
LINE
  8
0
 10
127.093
 20
205
 11
118.953
 21
205
  0
LINE
  8
0
 10
118.953
 20
205
 11
118.953
 21
210
  0
LINE
  8
0
 10
118.953
 20
210
 11
110.814
 21
210
  0
LINE
  8
0
 10
110.814
 20
210
 11
110.814
 21
205
  0
LINE
  8
0
 10
110.814
 20
205
 11
102.674
 21
205
  0
LINE
  8
0
 10
102.674
 20
205
 11
102.674
 21
210
  0
LINE
  8
0
 10
102.674
 20
210
 11
94.5349
 21
210
  0
LINE
  8
0
 10
94.5349
 20
210
 11
94.5349
 21
205
  0
LINE
  8
0
 10
94.5349
 20
205
 11
86.3953
 21
205
  0
LINE
  8
0
 10
86.3953
 20
205
 11
86.3953
 21
210
  0
LINE
  8
0
 10
86.3953
 20
210
 11
78.2558
 21
210
  0
LINE
  8
0
 10
78.2558
 20
210
 11
78.2558
 21
205
  0
LINE
  8
0
 10
78.2558
 20
205
 11
70.1163
 21
205
  0
LINE
  8
0
 10
70.1163
 20
205
 11
70.1163
 21
210
  0
LINE
  8
0
 10
70.1163
 20
210
 11
61.9767
 21
210
  0
LINE
  8
0
 10
61.9767
 20
210
 11
61.9767
 21
205
  0
LINE
  8
0
 10
61.9767
 20
205
 11
53.8372
 21
205
  0
LINE
  8
0
 10
53.8372
 20
205
 11
53.8372
 21
210
  0
LINE
  8
0
 10
53.8372
 20
210
 11
45.6977
 21
210
  0
LINE
  8
0
 10
45.6977
 20
210
 11
45.6977
 21
205
  0
LINE
  8
0
 10
45.6977
 20
205
 11
37.5581
 21
205
  0
LINE
  8
0
 10
37.5581
 20
205
 11
37.5581
 21
210
  0
LINE
  8
0
 10
37.5581
 20
210
 11
29.4186
 21
210
  0
LINE
  8
0
 10
29.4186
 20
210
 11
29.4186
 21
205
  0
LINE
  8
0
 10
29.4186
 20
205
 11
21.2791
 21
205
  0
LINE
  8
0
 10
21.2791
 20
205
 11
21.2791
 21
210
  0
LINE
  8
0
 10
21.2791
 20
210
 11
13.1395
 21
210
  0
LINE
  8
0
 10
13.1395
 20
210
 11
13.1395
 21
205
  0
LINE
  8
0
 10
13.1395
 20
205
 11
5
 21
205
  0
LINE
  8
0
 10
5
 20
205
 11
5
 21
193.2
  0
LINE
  8
0
 10
5
 20
193.2
 11
0
 21
193.2
  0
LINE
  8
0
 10
0
 20
193.2
 11
0
 21
184.8
  0
LINE
  8
0
 10
0
 20
184.8
 11
5
 21
184.8
  0
LINE
  8
0
 10
5
 20
184.8
 11
5
 21
176.4
  0
LINE
  8
0
 10
5
 20
176.4
 11
0
 21
176.4
  0
LINE
  8
0
 10
0
 20
176.4
 11
0
 21
168
  0
LINE
  8
0
 10
0
 20
168
 11
5
 21
168
  0
LINE
  8
0
 10
5
 20
168
 11
5
 21
159.6
  0
LINE
  8
0
 10
5
 20
159.6
 11
0
 21
159.6
  0
LINE
  8
0
 10
0
 20
159.6
 11
0
 21
151.2
  0
LINE
  8
0
 10
0
 20
151.2
 11
5
 21
151.2
  0
LINE
  8
0
 10
5
 20
151.2
 11
5
 21
142.8
  0
LINE
  8
0
 10
5
 20
142.8
 11
0
 21
142.8
  0
LINE
  8
0
 10
0
 20
142.8
 11
0
 21
134.4
  0
LINE
  8
0
 10
0
 20
134.4
 11
5
 21
134.4
  0
LINE
  8
0
 10
5
 20
134.4
 11
5
 21
126
  0
LINE
  8
0
 10
5
 20
126
 11
0
 21
126
  0
LINE
  8
0
 10
0
 20
126
 11
0
 21
117.6
  0
LINE
  8
0
 10
0
 20
117.6
 11
5
 21
117.6
  0
LINE
  8
0
 10
5
 20
117.6
 11
5
 21
109.2
  0
LINE
  8
0
 10
5
 20
109.2
 11
0
 21
109.2
  0
LINE
  8
0
 10
0
 20
109.2
 11
0
 21
100.8
  0
LINE
  8
0
 10
0
 20
100.8
 11
5
 21
100.8
  0
LINE
  8
0
 10
5
 20
100.8
 11
5
 21
92.4
  0
LINE
  8
0
 10
5
 20
92.4
 11
0
 21
92.4
  0
LINE
  8
0
 10
0
 20
92.4
 11
0
 21
84
  0
LINE
  8
0
 10
0
 20
84
 11
5
 21
84
  0
LINE
  8
0
 10
5
 20
84
 11
5
 21
75.6
  0
LINE
  8
0
 10
5
 20
75.6
 11
0
 21
75.6
  0
LINE
  8
0
 10
0
 20
75.6
 11
0
 21
67.2
  0
LINE
  8
0
 10
0
 20
67.2
 11
5
 21
67.2
  0
LINE
  8
0
 10
5
 20
67.2
 11
5
 21
58.8
  0
LINE
  8
0
 10
5
 20
58.8
 11
0
 21
58.8
  0
LINE
  8
0
 10
0
 20
58.8
 11
0
 21
50.4
  0
LINE
  8
0
 10
0
 20
50.4
 11
5
 21
50.4
  0
LINE
  8
0
 10
5
 20
50.4
 11
5
 21
42
  0
LINE
  8
0
 10
5
 20
42
 11
0
 21
42
  0
LINE
  8
0
 10
0
 20
42
 11
0
 21
33.6
  0
LINE
  8
0
 10
0
 20
33.6
 11
5
 21
33.6
  0
LINE
  8
0
 10
5
 20
33.6
 11
5
 21
25.2
  0
LINE
  8
0
 10
5
 20
25.2
 11
0
 21
25.2
  0
LINE
  8
0
 10
0
 20
25.2
 11
0
 21
16.8
  0
ENDSEC
  0
SECTION
  2
OBJECTS
  0
DICTIONARY
  0
ENDSEC
  0
EOF
