  0
SECTION
  2
BLOCKS
  0
ENDSEC
  0
SECTION
  2
ENTITIES
  0
LINE
  8
0
 10
0
 20
16.598
 11
5.05
 21
16.598
  0
LINE
  8
0
 10
5.05
 20
16.598
 11
5.05
 21
5.05
  0
LINE
  8
0
 10
5.05
 20
5.05
 11
12.9035
 21
5.05
  0
LINE
  8
0
 10
12.9035
 20
5.05
 11
12.9035
 21
0
  0
LINE
  8
0
 10
12.9035
 20
0
 11
21.557
 21
0
  0
LINE
  8
0
 10
21.557
 20
0
 11
21.557
 21
5.05
  0
LINE
  8
0
 10
21.557
 20
5.05
 11
29.2105
 21
5.05
  0
LINE
  8
0
 10
29.2105
 20
5.05
 11
29.2105
 21
0
  0
LINE
  8
0
 10
29.2105
 20
0
 11
37.864
 21
0
  0
LINE
  8
0
 10
37.864
 20
0
 11
37.864
 21
5.05
  0
LINE
  8
0
 10
37.864
 20
5.05
 11
45.5174
 21
5.05
  0
LINE
  8
0
 10
45.5174
 20
5.05
 11
45.5174
 21
0
  0
LINE
  8
0
 10
45.5174
 20
0
 11
54.1709
 21
0
  0
LINE
  8
0
 10
54.1709
 20
0
 11
54.1709
 21
5.05
  0
LINE
  8
0
 10
54.1709
 20
5.05
 11
61.8244
 21
5.05
  0
LINE
  8
0
 10
61.8244
 20
5.05
 11
61.8244
 21
0
  0
LINE
  8
0
 10
61.8244
 20
0
 11
70.4779
 21
0
  0
LINE
  8
0
 10
70.4779
 20
0
 11
70.4779
 21
5.05
  0
LINE
  8
0
 10
70.4779
 20
5.05
 11
78.1314
 21
5.05
  0
LINE
  8
0
 10
78.1314
 20
5.05
 11
78.1314
 21
0
  0
LINE
  8
0
 10
78.1314
 20
0
 11
86.7849
 21
0
  0
LINE
  8
0
 10
86.7849
 20
0
 11
86.7849
 21
5.05
  0
LINE
  8
0
 10
86.7849
 20
5.05
 11
94.4384
 21
5.05
  0
LINE
  8
0
 10
94.4384
 20
5.05
 11
94.4384
 21
0
  0
LINE
  8
0
 10
94.4384
 20
0
 11
103.092
 21
0
  0
LINE
  8
0
 10
103.092
 20
0
 11
103.092
 21
5.05
  0
LINE
  8
0
 10
103.092
 20
5.05
 11
110.745
 21
5.05
  0
LINE
  8
0
 10
110.745
 20
5.05
 11
110.745
 21
0
  0
LINE
  8
0
 10
110.745
 20
0
 11
119.399
 21
0
  0
LINE
  8
0
 10
119.399
 20
0
 11
119.399
 21
5.05
  0
LINE
  8
0
 10
119.399
 20
5.05
 11
127.052
 21
5.05
  0
LINE
  8
0
 10
127.052
 20
5.05
 11
127.052
 21
0
  0
LINE
  8
0
 10
127.052
 20
0
 11
135.706
 21
0
  0
LINE
  8
0
 10
135.706
 20
0
 11
135.706
 21
5.05
  0
LINE
  8
0
 10
135.706
 20
5.05
 11
143.359
 21
5.05
  0
LINE
  8
0
 10
143.359
 20
5.05
 11
143.359
 21
0
  0
LINE
  8
0
 10
143.359
 20
0
 11
152.013
 21
0
  0
LINE
  8
0
 10
152.013
 20
0
 11
152.013
 21
5.05
  0
LINE
  8
0
 10
152.013
 20
5.05
 11
159.666
 21
5.05
  0
LINE
  8
0
 10
159.666
 20
5.05
 11
159.666
 21
0
  0
LINE
  8
0
 10
159.666
 20
0
 11
168.32
 21
0
  0
LINE
  8
0
 10
168.32
 20
0
 11
168.32
 21
5.05
  0
LINE
  8
0
 10
168.32
 20
5.05
 11
175.973
 21
5.05
  0
LINE
  8
0
 10
175.973
 20
5.05
 11
175.973
 21
0
  0
LINE
  8
0
 10
175.973
 20
0
 11
184.627
 21
0
  0
LINE
  8
0
 10
184.627
 20
0
 11
184.627
 21
5.05
  0
LINE
  8
0
 10
184.627
 20
5.05
 11
192.28
 21
5.05
  0
LINE
  8
0
 10
192.28
 20
5.05
 11
192.28
 21
0
  0
LINE
  8
0
 10
192.28
 20
0
 11
200.934
 21
0
  0
LINE
  8
0
 10
200.934
 20
0
 11
200.934
 21
5.05
  0
LINE
  8
0
 10
200.934
 20
5.05
 11
208.587
 21
5.05
  0
LINE
  8
0
 10
208.587
 20
5.05
 11
208.587
 21
0
  0
LINE
  8
0
 10
208.587
 20
0
 11
217.241
 21
0
  0
LINE
  8
0
 10
217.241
 20
0
 11
217.241
 21
5.05
  0
LINE
  8
0
 10
217.241
 20
5.05
 11
224.894
 21
5.05
  0
LINE
  8
0
 10
224.894
 20
5.05
 11
224.894
 21
0
  0
LINE
  8
0
 10
224.894
 20
0
 11
233.548
 21
0
  0
LINE
  8
0
 10
233.548
 20
0
 11
233.548
 21
5.05
  0
LINE
  8
0
 10
233.548
 20
5.05
 11
241.201
 21
5.05
  0
LINE
  8
0
 10
241.201
 20
5.05
 11
241.201
 21
0
  0
LINE
  8
0
 10
241.201
 20
0
 11
249.855
 21
0
  0
LINE
  8
0
 10
249.855
 20
0
 11
249.855
 21
5.05
  0
LINE
  8
0
 10
249.855
 20
5.05
 11
257.508
 21
5.05
  0
LINE
  8
0
 10
257.508
 20
5.05
 11
257.508
 21
0
  0
LINE
  8
0
 10
257.508
 20
0
 11
266.162
 21
0
  0
LINE
  8
0
 10
266.162
 20
0
 11
266.162
 21
5.05
  0
LINE
  8
0
 10
266.162
 20
5.05
 11
273.815
 21
5.05
  0
LINE
  8
0
 10
273.815
 20
5.05
 11
273.815
 21
0
  0
LINE
  8
0
 10
273.815
 20
0
 11
282.469
 21
0
  0
LINE
  8
0
 10
282.469
 20
0
 11
282.469
 21
5.05
  0
LINE
  8
0
 10
282.469
 20
5.05
 11
290.122
 21
5.05
  0
LINE
  8
0
 10
290.122
 20
5.05
 11
290.122
 21
0
  0
LINE
  8
0
 10
290.122
 20
0
 11
298.776
 21
0
  0
LINE
  8
0
 10
298.776
 20
0
 11
298.776
 21
5.05
  0
LINE
  8
0
 10
298.776
 20
5.05
 11
306.429
 21
5.05
  0
LINE
  8
0
 10
306.429
 20
5.05
 11
306.429
 21
0
  0
LINE
  8
0
 10
306.429
 20
0
 11
315.083
 21
0
  0
LINE
  8
0
 10
315.083
 20
0
 11
315.083
 21
5.05
  0
LINE
  8
0
 10
315.083
 20
5.05
 11
322.736
 21
5.05
  0
LINE
  8
0
 10
322.736
 20
5.05
 11
322.736
 21
0
  0
LINE
  8
0
 10
322.736
 20
0
 11
331.39
 21
0
  0
LINE
  8
0
 10
331.39
 20
0
 11
331.39
 21
5.05
  0
LINE
  8
0
 10
331.39
 20
5.05
 11
339.043
 21
5.05
  0
LINE
  8
0
 10
339.043
 20
5.05
 11
339.043
 21
0
  0
LINE
  8
0
 10
339.043
 20
0
 11
347.697
 21
0
  0
LINE
  8
0
 10
347.697
 20
0
 11
347.697
 21
5.05
  0
LINE
  8
0
 10
347.697
 20
5.05
 11
355.55
 21
5.05
  0
LINE
  8
0
 10
355.55
 20
5.05
 11
355.55
 21
16.598
  0
LINE
  8
0
 10
355.55
 20
16.598
 11
360.6
 21
16.598
  0
LINE
  8
0
 10
360.6
 20
16.598
 11
360.6
 21
25.522
  0
LINE
  8
0
 10
360.6
 20
25.522
 11
355.55
 21
25.522
  0
LINE
  8
0
 10
355.55
 20
25.522
 11
355.55
 21
33.446
  0
LINE
  8
0
 10
355.55
 20
33.446
 11
360.6
 21
33.446
  0
LINE
  8
0
 10
360.6
 20
33.446
 11
360.6
 21
42.37
  0
LINE
  8
0
 10
360.6
 20
42.37
 11
355.55
 21
42.37
  0
LINE
  8
0
 10
355.55
 20
42.37
 11
355.55
 21
50.294
  0
LINE
  8
0
 10
355.55
 20
50.294
 11
360.6
 21
50.294
  0
LINE
  8
0
 10
360.6
 20
50.294
 11
360.6
 21
59.218
  0
LINE
  8
0
 10
360.6
 20
59.218
 11
355.55
 21
59.218
  0
LINE
  8
0
 10
355.55
 20
59.218
 11
355.55
 21
67.142
  0
LINE
  8
0
 10
355.55
 20
67.142
 11
360.6
 21
67.142
  0
LINE
  8
0
 10
360.6
 20
67.142
 11
360.6
 21
76.066
  0
LINE
  8
0
 10
360.6
 20
76.066
 11
355.55
 21
76.066
  0
LINE
  8
0
 10
355.55
 20
76.066
 11
355.55
 21
83.99
  0
LINE
  8
0
 10
355.55
 20
83.99
 11
360.6
 21
83.99
  0
LINE
  8
0
 10
360.6
 20
83.99
 11
360.6
 21
92.914
  0
LINE
  8
0
 10
360.6
 20
92.914
 11
355.55
 21
92.914
  0
LINE
  8
0
 10
355.55
 20
92.914
 11
355.55
 21
100.838
  0
LINE
  8
0
 10
355.55
 20
100.838
 11
360.6
 21
100.838
  0
LINE
  8
0
 10
360.6
 20
100.838
 11
360.6
 21
109.762
  0
LINE
  8
0
 10
360.6
 20
109.762
 11
355.55
 21
109.762
  0
LINE
  8
0
 10
355.55
 20
109.762
 11
355.55
 21
117.686
  0
LINE
  8
0
 10
355.55
 20
117.686
 11
360.6
 21
117.686
  0
LINE
  8
0
 10
360.6
 20
117.686
 11
360.6
 21
126.61
  0
LINE
  8
0
 10
360.6
 20
126.61
 11
355.55
 21
126.61
  0
LINE
  8
0
 10
355.55
 20
126.61
 11
355.55
 21
134.534
  0
LINE
  8
0
 10
355.55
 20
134.534
 11
360.6
 21
134.534
  0
LINE
  8
0
 10
360.6
 20
134.534
 11
360.6
 21
143.458
  0
LINE
  8
0
 10
360.6
 20
143.458
 11
355.55
 21
143.458
  0
LINE
  8
0
 10
355.55
 20
143.458
 11
355.55
 21
151.382
  0
LINE
  8
0
 10
355.55
 20
151.382
 11
360.6
 21
151.382
  0
LINE
  8
0
 10
360.6
 20
151.382
 11
360.6
 21
160.306
  0
LINE
  8
0
 10
360.6
 20
160.306
 11
355.55
 21
160.306
  0
LINE
  8
0
 10
355.55
 20
160.306
 11
355.55
 21
168.23
  0
LINE
  8
0
 10
355.55
 20
168.23
 11
360.6
 21
168.23
  0
LINE
  8
0
 10
360.6
 20
168.23
 11
360.6
 21
177.154
  0
LINE
  8
0
 10
360.6
 20
177.154
 11
355.55
 21
177.154
  0
LINE
  8
0
 10
355.55
 20
177.154
 11
355.55
 21
185.078
  0
LINE
  8
0
 10
355.55
 20
185.078
 11
360.6
 21
185.078
  0
LINE
  8
0
 10
360.6
 20
185.078
 11
360.6
 21
194.002
  0
LINE
  8
0
 10
360.6
 20
194.002
 11
355.55
 21
194.002
  0
LINE
  8
0
 10
355.55
 20
194.002
 11
355.55
 21
205.55
  0
LINE
  8
0
 10
355.55
 20
205.55
 11
347.697
 21
205.55
  0
LINE
  8
0
 10
347.697
 20
205.55
 11
347.697
 21
210.6
  0
LINE
  8
0
 10
347.697
 20
210.6
 11
339.043
 21
210.6
  0
LINE
  8
0
 10
339.043
 20
210.6
 11
339.043
 21
205.55
  0
LINE
  8
0
 10
339.043
 20
205.55
 11
331.39
 21
205.55
  0
LINE
  8
0
 10
331.39
 20
205.55
 11
331.39
 21
210.6
  0
LINE
  8
0
 10
331.39
 20
210.6
 11
322.736
 21
210.6
  0
LINE
  8
0
 10
322.736
 20
210.6
 11
322.736
 21
205.55
  0
LINE
  8
0
 10
322.736
 20
205.55
 11
315.083
 21
205.55
  0
LINE
  8
0
 10
315.083
 20
205.55
 11
315.083
 21
210.6
  0
LINE
  8
0
 10
315.083
 20
210.6
 11
306.429
 21
210.6
  0
LINE
  8
0
 10
306.429
 20
210.6
 11
306.429
 21
205.55
  0
LINE
  8
0
 10
306.429
 20
205.55
 11
298.776
 21
205.55
  0
LINE
  8
0
 10
298.776
 20
205.55
 11
298.776
 21
210.6
  0
LINE
  8
0
 10
298.776
 20
210.6
 11
290.122
 21
210.6
  0
LINE
  8
0
 10
290.122
 20
210.6
 11
290.122
 21
205.55
  0
LINE
  8
0
 10
290.122
 20
205.55
 11
282.469
 21
205.55
  0
LINE
  8
0
 10
282.469
 20
205.55
 11
282.469
 21
210.6
  0
LINE
  8
0
 10
282.469
 20
210.6
 11
273.815
 21
210.6
  0
LINE
  8
0
 10
273.815
 20
210.6
 11
273.815
 21
205.55
  0
LINE
  8
0
 10
273.815
 20
205.55
 11
266.162
 21
205.55
  0
LINE
  8
0
 10
266.162
 20
205.55
 11
266.162
 21
210.6
  0
LINE
  8
0
 10
266.162
 20
210.6
 11
257.508
 21
210.6
  0
LINE
  8
0
 10
257.508
 20
210.6
 11
257.508
 21
205.55
  0
LINE
  8
0
 10
257.508
 20
205.55
 11
249.855
 21
205.55
  0
LINE
  8
0
 10
249.855
 20
205.55
 11
249.855
 21
210.6
  0
LINE
  8
0
 10
249.855
 20
210.6
 11
241.201
 21
210.6
  0
LINE
  8
0
 10
241.201
 20
210.6
 11
241.201
 21
205.55
  0
LINE
  8
0
 10
241.201
 20
205.55
 11
233.548
 21
205.55
  0
LINE
  8
0
 10
233.548
 20
205.55
 11
233.548
 21
210.6
  0
LINE
  8
0
 10
233.548
 20
210.6
 11
224.894
 21
210.6
  0
LINE
  8
0
 10
224.894
 20
210.6
 11
224.894
 21
205.55
  0
LINE
  8
0
 10
224.894
 20
205.55
 11
217.241
 21
205.55
  0
LINE
  8
0
 10
217.241
 20
205.55
 11
217.241
 21
210.6
  0
LINE
  8
0
 10
217.241
 20
210.6
 11
208.587
 21
210.6
  0
LINE
  8
0
 10
208.587
 20
210.6
 11
208.587
 21
205.55
  0
LINE
  8
0
 10
208.587
 20
205.55
 11
200.934
 21
205.55
  0
LINE
  8
0
 10
200.934
 20
205.55
 11
200.934
 21
210.6
  0
LINE
  8
0
 10
200.934
 20
210.6
 11
192.28
 21
210.6
  0
LINE
  8
0
 10
192.28
 20
210.6
 11
192.28
 21
205.55
  0
LINE
  8
0
 10
192.28
 20
205.55
 11
184.627
 21
205.55
  0
LINE
  8
0
 10
184.627
 20
205.55
 11
184.627
 21
210.6
  0
LINE
  8
0
 10
184.627
 20
210.6
 11
175.973
 21
210.6
  0
LINE
  8
0
 10
175.973
 20
210.6
 11
175.973
 21
205.55
  0
LINE
  8
0
 10
175.973
 20
205.55
 11
168.32
 21
205.55
  0
LINE
  8
0
 10
168.32
 20
205.55
 11
168.32
 21
210.6
  0
LINE
  8
0
 10
168.32
 20
210.6
 11
159.666
 21
210.6
  0
LINE
  8
0
 10
159.666
 20
210.6
 11
159.666
 21
205.55
  0
LINE
  8
0
 10
159.666
 20
205.55
 11
152.013
 21
205.55
  0
LINE
  8
0
 10
152.013
 20
205.55
 11
152.013
 21
210.6
  0
LINE
  8
0
 10
152.013
 20
210.6
 11
143.359
 21
210.6
  0
LINE
  8
0
 10
143.359
 20
210.6
 11
143.359
 21
205.55
  0
LINE
  8
0
 10
143.359
 20
205.55
 11
135.706
 21
205.55
  0
LINE
  8
0
 10
135.706
 20
205.55
 11
135.706
 21
210.6
  0
LINE
  8
0
 10
135.706
 20
210.6
 11
127.052
 21
210.6
  0
LINE
  8
0
 10
127.052
 20
210.6
 11
127.052
 21
205.55
  0
LINE
  8
0
 10
127.052
 20
205.55
 11
119.399
 21
205.55
  0
LINE
  8
0
 10
119.399
 20
205.55
 11
119.399
 21
210.6
  0
LINE
  8
0
 10
119.399
 20
210.6
 11
110.745
 21
210.6
  0
LINE
  8
0
 10
110.745
 20
210.6
 11
110.745
 21
205.55
  0
LINE
  8
0
 10
110.745
 20
205.55
 11
103.092
 21
205.55
  0
LINE
  8
0
 10
103.092
 20
205.55
 11
103.092
 21
210.6
  0
LINE
  8
0
 10
103.092
 20
210.6
 11
94.4384
 21
210.6
  0
LINE
  8
0
 10
94.4384
 20
210.6
 11
94.4384
 21
205.55
  0
LINE
  8
0
 10
94.4384
 20
205.55
 11
86.7849
 21
205.55
  0
LINE
  8
0
 10
86.7849
 20
205.55
 11
86.7849
 21
210.6
  0
LINE
  8
0
 10
86.7849
 20
210.6
 11
78.1314
 21
210.6
  0
LINE
  8
0
 10
78.1314
 20
210.6
 11
78.1314
 21
205.55
  0
LINE
  8
0
 10
78.1314
 20
205.55
 11
70.4779
 21
205.55
  0
LINE
  8
0
 10
70.4779
 20
205.55
 11
70.4779
 21
210.6
  0
LINE
  8
0
 10
70.4779
 20
210.6
 11
61.8244
 21
210.6
  0
LINE
  8
0
 10
61.8244
 20
210.6
 11
61.8244
 21
205.55
  0
LINE
  8
0
 10
61.8244
 20
205.55
 11
54.1709
 21
205.55
  0
LINE
  8
0
 10
54.1709
 20
205.55
 11
54.1709
 21
210.6
  0
LINE
  8
0
 10
54.1709
 20
210.6
 11
45.5174
 21
210.6
  0
LINE
  8
0
 10
45.5174
 20
210.6
 11
45.5174
 21
205.55
  0
LINE
  8
0
 10
45.5174
 20
205.55
 11
37.864
 21
205.55
  0
LINE
  8
0
 10
37.864
 20
205.55
 11
37.864
 21
210.6
  0
LINE
  8
0
 10
37.864
 20
210.6
 11
29.2105
 21
210.6
  0
LINE
  8
0
 10
29.2105
 20
210.6
 11
29.2105
 21
205.55
  0
LINE
  8
0
 10
29.2105
 20
205.55
 11
21.557
 21
205.55
  0
LINE
  8
0
 10
21.557
 20
205.55
 11
21.557
 21
210.6
  0
LINE
  8
0
 10
21.557
 20
210.6
 11
12.9035
 21
210.6
  0
LINE
  8
0
 10
12.9035
 20
210.6
 11
12.9035
 21
205.55
  0
LINE
  8
0
 10
12.9035
 20
205.55
 11
5.05
 21
205.55
  0
LINE
  8
0
 10
5.05
 20
205.55
 11
5.05
 21
194.002
  0
LINE
  8
0
 10
5.05
 20
194.002
 11
0
 21
194.002
  0
LINE
  8
0
 10
0
 20
194.002
 11
0
 21
185.078
  0
LINE
  8
0
 10
0
 20
185.078
 11
5.05
 21
185.078
  0
LINE
  8
0
 10
5.05
 20
185.078
 11
5.05
 21
177.154
  0
LINE
  8
0
 10
5.05
 20
177.154
 11
0
 21
177.154
  0
LINE
  8
0
 10
0
 20
177.154
 11
0
 21
168.23
  0
LINE
  8
0
 10
0
 20
168.23
 11
5.05
 21
168.23
  0
LINE
  8
0
 10
5.05
 20
168.23
 11
5.05
 21
160.306
  0
LINE
  8
0
 10
5.05
 20
160.306
 11
0
 21
160.306
  0
LINE
  8
0
 10
0
 20
160.306
 11
0
 21
151.382
  0
LINE
  8
0
 10
0
 20
151.382
 11
5.05
 21
151.382
  0
LINE
  8
0
 10
5.05
 20
151.382
 11
5.05
 21
143.458
  0
LINE
  8
0
 10
5.05
 20
143.458
 11
0
 21
143.458
  0
LINE
  8
0
 10
0
 20
143.458
 11
0
 21
134.534
  0
LINE
  8
0
 10
0
 20
134.534
 11
5.05
 21
134.534
  0
LINE
  8
0
 10
5.05
 20
134.534
 11
5.05
 21
126.61
  0
LINE
  8
0
 10
5.05
 20
126.61
 11
0
 21
126.61
  0
LINE
  8
0
 10
0
 20
126.61
 11
0
 21
117.686
  0
LINE
  8
0
 10
0
 20
117.686
 11
5.05
 21
117.686
  0
LINE
  8
0
 10
5.05
 20
117.686
 11
5.05
 21
109.762
  0
LINE
  8
0
 10
5.05
 20
109.762
 11
0
 21
109.762
  0
LINE
  8
0
 10
0
 20
109.762
 11
0
 21
100.838
  0
LINE
  8
0
 10
0
 20
100.838
 11
5.05
 21
100.838
  0
LINE
  8
0
 10
5.05
 20
100.838
 11
5.05
 21
92.914
  0
LINE
  8
0
 10
5.05
 20
92.914
 11
0
 21
92.914
  0
LINE
  8
0
 10
0
 20
92.914
 11
0
 21
83.99
  0
LINE
  8
0
 10
0
 20
83.99
 11
5.05
 21
83.99
  0
LINE
  8
0
 10
5.05
 20
83.99
 11
5.05
 21
76.066
  0
LINE
  8
0
 10
5.05
 20
76.066
 11
0
 21
76.066
  0
LINE
  8
0
 10
0
 20
76.066
 11
0
 21
67.142
  0
LINE
  8
0
 10
0
 20
67.142
 11
5.05
 21
67.142
  0
LINE
  8
0
 10
5.05
 20
67.142
 11
5.05
 21
59.218
  0
LINE
  8
0
 10
5.05
 20
59.218
 11
0
 21
59.218
  0
LINE
  8
0
 10
0
 20
59.218
 11
0
 21
50.294
  0
LINE
  8
0
 10
0
 20
50.294
 11
5.05
 21
50.294
  0
LINE
  8
0
 10
5.05
 20
50.294
 11
5.05
 21
42.37
  0
LINE
  8
0
 10
5.05
 20
42.37
 11
0
 21
42.37
  0
LINE
  8
0
 10
0
 20
42.37
 11
0
 21
33.446
  0
LINE
  8
0
 10
0
 20
33.446
 11
5.05
 21
33.446
  0
LINE
  8
0
 10
5.05
 20
33.446
 11
5.05
 21
25.522
  0
LINE
  8
0
 10
5.05
 20
25.522
 11
0
 21
25.522
  0
LINE
  8
0
 10
0
 20
25.522
 11
0
 21
16.598
  0
ENDSEC
  0
SECTION
  2
OBJECTS
  0
DICTIONARY
  0
ENDSEC
  0
EOF
