<?xml version="1.0" standalone="no"?>
<!DOCTYPE svg PUBLIC "-//W3C//DTD SVG 1.1//EN" "http://www.w3.org/Graphics/SVG/1.1/DTD/svg11.dtd">
<svg width="360mm" height="210mm" viewBox="0 -210 360 210" xmlns="http://www.w3.org/2000/svg" version="1.1">
<title>OpenSCAD Model</title>
<path d="
M 0,-16.55 L 4.75,-16.55 L 4.75,-4.75 L 12.8895,-4.75 L 12.8895,-0 L 21.5291,-0
 L 21.5291,-4.75 L 29.1686,-4.75 L 29.1686,-0 L 37.8081,-0 L 37.8081,-4.75 L 45.4477,-4.75
 L 45.4477,-0 L 54.0872,-0 L 54.0872,-4.75 L 61.7267,-4.75 L 61.7267,-0 L 70.3663,-0
 L 70.3663,-4.75 L 78.0058,-4.75 L 78.0058,-0 L 86.6453,-0 L 86.6453,-4.75 L 94.2849,-4.75
 L 94.2849,-0 L 102.924,-0 L 102.924,-4.75 L 110.564,-4.75 L 110.564,-0 L 119.203,-0
 L 119.203,-4.75 L 126.843,-4.75 L 126.843,-0 L 135.483,-0 L 135.483,-4.75 L 143.122,-4.75
 L 143.122,-0 L 151.762,-0 L 151.762,-4.75 L 159.401,-4.75 L 159.401,-0 L 168.041,-0
 L 168.041,-4.75 L 175.68,-4.75 L 175.68,-0 L 184.32,-0 L 184.32,-4.75 L 191.959,-4.75
 L 191.959,-0 L 200.599,-0 L 200.599,-4.75 L 208.238,-4.75 L 208.238,-0 L 216.878,-0
 L 216.878,-4.75 L 224.517,-4.75 L 224.517,-0 L 233.157,-0 L 233.157,-4.75 L 240.797,-4.75
 L 240.797,-0 L 249.436,-0 L 249.436,-4.75 L 257.076,-4.75 L 257.076,-0 L 265.715,-0
 L 265.715,-4.75 L 273.355,-4.75 L 273.355,-0 L 281.994,-0 L 281.994,-4.75 L 289.634,-4.75
 L 289.634,-0 L 298.273,-0 L 298.273,-4.75 L 305.913,-4.75 L 305.913,-0 L 314.552,-0
 L 314.552,-4.75 L 322.192,-4.75 L 322.192,-0 L 330.831,-0 L 330.831,-4.75 L 338.471,-4.75
 L 338.471,-0 L 347.11,-0 L 347.11,-4.75 L 355.25,-4.75 L 355.25,-16.55 L 360,-16.55
 L 360,-25.45 L 355.25,-25.45 L 355.25,-33.35 L 360,-33.35 L 360,-42.25 L 355.25,-42.25
 L 355.25,-50.15 L 360,-50.15 L 360,-59.05 L 355.25,-59.05 L 355.25,-66.95 L 360,-66.95
 L 360,-75.85 L 355.25,-75.85 L 355.25,-83.75 L 360,-83.75 L 360,-92.65 L 355.25,-92.65
 L 355.25,-100.55 L 360,-100.55 L 360,-109.45 L 355.25,-109.45 L 355.25,-117.35 L 360,-117.35
 L 360,-126.25 L 355.25,-126.25 L 355.25,-134.15 L 360,-134.15 L 360,-143.05 L 355.25,-143.05
 L 355.25,-150.95 L 360,-150.95 L 360,-159.85 L 355.25,-159.85 L 355.25,-167.75 L 360,-167.75
 L 360,-176.65 L 355.25,-176.65 L 355.25,-184.55 L 360,-184.55 L 360,-193.45 L 355.25,-193.45
 L 355.25,-205.25 L 347.11,-205.25 L 347.11,-210 L 338.471,-210 L 338.471,-205.25 L 330.831,-205.25
 L 330.831,-210 L 322.192,-210 L 322.192,-205.25 L 314.552,-205.25 L 314.552,-210 L 305.913,-210
 L 305.913,-205.25 L 298.273,-205.25 L 298.273,-210 L 289.634,-210 L 289.634,-205.25 L 281.994,-205.25
 L 281.994,-210 L 273.355,-210 L 273.355,-205.25 L 265.715,-205.25 L 265.715,-210 L 257.076,-210
 L 257.076,-205.25 L 249.436,-205.25 L 249.436,-210 L 240.797,-210 L 240.797,-205.25 L 233.157,-205.25
 L 233.157,-210 L 224.517,-210 L 224.517,-205.25 L 216.878,-205.25 L 216.878,-210 L 208.238,-210
 L 208.238,-205.25 L 200.599,-205.25 L 200.599,-210 L 191.959,-210 L 191.959,-205.25 L 184.32,-205.25
 L 184.32,-210 L 175.68,-210 L 175.68,-205.25 L 168.041,-205.25 L 168.041,-210 L 159.401,-210
 L 159.401,-205.25 L 151.762,-205.25 L 151.762,-210 L 143.122,-210 L 143.122,-205.25 L 135.483,-205.25
 L 135.483,-210 L 126.843,-210 L 126.843,-205.25 L 119.203,-205.25 L 119.203,-210 L 110.564,-210
 L 110.564,-205.25 L 102.924,-205.25 L 102.924,-210 L 94.2849,-210 L 94.2849,-205.25 L 86.6453,-205.25
 L 86.6453,-210 L 78.0058,-210 L 78.0058,-205.25 L 70.3663,-205.25 L 70.3663,-210 L 61.7267,-210
 L 61.7267,-205.25 L 54.0872,-205.25 L 54.0872,-210 L 45.4477,-210 L 45.4477,-205.25 L 37.8081,-205.25
 L 37.8081,-210 L 29.1686,-210 L 29.1686,-205.25 L 21.5291,-205.25 L 21.5291,-210 L 12.8895,-210
 L 12.8895,-205.25 L 4.75,-205.25 L 4.75,-193.45 L 0,-193.45 L 0,-184.55 L 4.75,-184.55
 L 4.75,-176.65 L 0,-176.65 L 0,-167.75 L 4.75,-167.75 L 4.75,-159.85 L 0,-159.85
 L 0,-150.95 L 4.75,-150.95 L 4.75,-143.05 L 0,-143.05 L 0,-134.15 L 4.75,-134.15
 L 4.75,-126.25 L 0,-126.25 L 0,-117.35 L 4.75,-117.35 L 4.75,-109.45 L 0,-109.45
 L 0,-100.55 L 4.75,-100.55 L 4.75,-92.65 L 0,-92.65 L 0,-83.75 L 4.75,-83.75
 L 4.75,-75.85 L 0,-75.85 L 0,-66.95 L 4.75,-66.95 L 4.75,-59.05 L 0,-59.05
 L 0,-50.15 L 4.75,-50.15 L 4.75,-42.25 L 0,-42.25 L 0,-33.35 L 4.75,-33.35
 L 4.75,-25.45 L 0,-25.45 z
" stroke="black" fill="lightgray" stroke-width="0.5"/>
</svg>
