  0
SECTION
  2
BLOCKS
  0
ENDSEC
  0
SECTION
  2
ENTITIES
  0
LINE
  8
0
 10
0
 20
16.55
 11
4.75
 21
16.55
  0
LINE
  8
0
 10
4.75
 20
16.55
 11
4.75
 21
4.75
  0
LINE
  8
0
 10
4.75
 20
4.75
 11
12.8895
 21
4.75
  0
LINE
  8
0
 10
12.8895
 20
4.75
 11
12.8895
 21
0
  0
LINE
  8
0
 10
12.8895
 20
0
 11
21.5291
 21
0
  0
LINE
  8
0
 10
21.5291
 20
0
 11
21.5291
 21
4.75
  0
LINE
  8
0
 10
21.5291
 20
4.75
 11
29.1686
 21
4.75
  0
LINE
  8
0
 10
29.1686
 20
4.75
 11
29.1686
 21
0
  0
LINE
  8
0
 10
29.1686
 20
0
 11
37.8081
 21
0
  0
LINE
  8
0
 10
37.8081
 20
0
 11
37.8081
 21
4.75
  0
LINE
  8
0
 10
37.8081
 20
4.75
 11
45.4477
 21
4.75
  0
LINE
  8
0
 10
45.4477
 20
4.75
 11
45.4477
 21
0
  0
LINE
  8
0
 10
45.4477
 20
0
 11
54.0872
 21
0
  0
LINE
  8
0
 10
54.0872
 20
0
 11
54.0872
 21
4.75
  0
LINE
  8
0
 10
54.0872
 20
4.75
 11
61.7267
 21
4.75
  0
LINE
  8
0
 10
61.7267
 20
4.75
 11
61.7267
 21
0
  0
LINE
  8
0
 10
61.7267
 20
0
 11
70.3663
 21
0
  0
LINE
  8
0
 10
70.3663
 20
0
 11
70.3663
 21
4.75
  0
LINE
  8
0
 10
70.3663
 20
4.75
 11
78.0058
 21
4.75
  0
LINE
  8
0
 10
78.0058
 20
4.75
 11
78.0058
 21
0
  0
LINE
  8
0
 10
78.0058
 20
0
 11
86.6453
 21
0
  0
LINE
  8
0
 10
86.6453
 20
0
 11
86.6453
 21
4.75
  0
LINE
  8
0
 10
86.6453
 20
4.75
 11
94.2849
 21
4.75
  0
LINE
  8
0
 10
94.2849
 20
4.75
 11
94.2849
 21
0
  0
LINE
  8
0
 10
94.2849
 20
0
 11
102.924
 21
0
  0
LINE
  8
0
 10
102.924
 20
0
 11
102.924
 21
4.75
  0
LINE
  8
0
 10
102.924
 20
4.75
 11
110.564
 21
4.75
  0
LINE
  8
0
 10
110.564
 20
4.75
 11
110.564
 21
0
  0
LINE
  8
0
 10
110.564
 20
0
 11
119.203
 21
0
  0
LINE
  8
0
 10
119.203
 20
0
 11
119.203
 21
4.75
  0
LINE
  8
0
 10
119.203
 20
4.75
 11
126.843
 21
4.75
  0
LINE
  8
0
 10
126.843
 20
4.75
 11
126.843
 21
0
  0
LINE
  8
0
 10
126.843
 20
0
 11
135.483
 21
0
  0
LINE
  8
0
 10
135.483
 20
0
 11
135.483
 21
4.75
  0
LINE
  8
0
 10
135.483
 20
4.75
 11
143.122
 21
4.75
  0
LINE
  8
0
 10
143.122
 20
4.75
 11
143.122
 21
0
  0
LINE
  8
0
 10
143.122
 20
0
 11
151.762
 21
0
  0
LINE
  8
0
 10
151.762
 20
0
 11
151.762
 21
4.75
  0
LINE
  8
0
 10
151.762
 20
4.75
 11
159.401
 21
4.75
  0
LINE
  8
0
 10
159.401
 20
4.75
 11
159.401
 21
0
  0
LINE
  8
0
 10
159.401
 20
0
 11
168.041
 21
0
  0
LINE
  8
0
 10
168.041
 20
0
 11
168.041
 21
4.75
  0
LINE
  8
0
 10
168.041
 20
4.75
 11
175.68
 21
4.75
  0
LINE
  8
0
 10
175.68
 20
4.75
 11
175.68
 21
0
  0
LINE
  8
0
 10
175.68
 20
0
 11
184.32
 21
0
  0
LINE
  8
0
 10
184.32
 20
0
 11
184.32
 21
4.75
  0
LINE
  8
0
 10
184.32
 20
4.75
 11
191.959
 21
4.75
  0
LINE
  8
0
 10
191.959
 20
4.75
 11
191.959
 21
0
  0
LINE
  8
0
 10
191.959
 20
0
 11
200.599
 21
0
  0
LINE
  8
0
 10
200.599
 20
0
 11
200.599
 21
4.75
  0
LINE
  8
0
 10
200.599
 20
4.75
 11
208.238
 21
4.75
  0
LINE
  8
0
 10
208.238
 20
4.75
 11
208.238
 21
0
  0
LINE
  8
0
 10
208.238
 20
0
 11
216.878
 21
0
  0
LINE
  8
0
 10
216.878
 20
0
 11
216.878
 21
4.75
  0
LINE
  8
0
 10
216.878
 20
4.75
 11
224.517
 21
4.75
  0
LINE
  8
0
 10
224.517
 20
4.75
 11
224.517
 21
0
  0
LINE
  8
0
 10
224.517
 20
0
 11
233.157
 21
0
  0
LINE
  8
0
 10
233.157
 20
0
 11
233.157
 21
4.75
  0
LINE
  8
0
 10
233.157
 20
4.75
 11
240.797
 21
4.75
  0
LINE
  8
0
 10
240.797
 20
4.75
 11
240.797
 21
0
  0
LINE
  8
0
 10
240.797
 20
0
 11
249.436
 21
0
  0
LINE
  8
0
 10
249.436
 20
0
 11
249.436
 21
4.75
  0
LINE
  8
0
 10
249.436
 20
4.75
 11
257.076
 21
4.75
  0
LINE
  8
0
 10
257.076
 20
4.75
 11
257.076
 21
0
  0
LINE
  8
0
 10
257.076
 20
0
 11
265.715
 21
0
  0
LINE
  8
0
 10
265.715
 20
0
 11
265.715
 21
4.75
  0
LINE
  8
0
 10
265.715
 20
4.75
 11
273.355
 21
4.75
  0
LINE
  8
0
 10
273.355
 20
4.75
 11
273.355
 21
0
  0
LINE
  8
0
 10
273.355
 20
0
 11
281.994
 21
0
  0
LINE
  8
0
 10
281.994
 20
0
 11
281.994
 21
4.75
  0
LINE
  8
0
 10
281.994
 20
4.75
 11
289.634
 21
4.75
  0
LINE
  8
0
 10
289.634
 20
4.75
 11
289.634
 21
0
  0
LINE
  8
0
 10
289.634
 20
0
 11
298.273
 21
0
  0
LINE
  8
0
 10
298.273
 20
0
 11
298.273
 21
4.75
  0
LINE
  8
0
 10
298.273
 20
4.75
 11
305.913
 21
4.75
  0
LINE
  8
0
 10
305.913
 20
4.75
 11
305.913
 21
0
  0
LINE
  8
0
 10
305.913
 20
0
 11
314.552
 21
0
  0
LINE
  8
0
 10
314.552
 20
0
 11
314.552
 21
4.75
  0
LINE
  8
0
 10
314.552
 20
4.75
 11
322.192
 21
4.75
  0
LINE
  8
0
 10
322.192
 20
4.75
 11
322.192
 21
0
  0
LINE
  8
0
 10
322.192
 20
0
 11
330.831
 21
0
  0
LINE
  8
0
 10
330.831
 20
0
 11
330.831
 21
4.75
  0
LINE
  8
0
 10
330.831
 20
4.75
 11
338.471
 21
4.75
  0
LINE
  8
0
 10
338.471
 20
4.75
 11
338.471
 21
0
  0
LINE
  8
0
 10
338.471
 20
0
 11
347.11
 21
0
  0
LINE
  8
0
 10
347.11
 20
0
 11
347.11
 21
4.75
  0
LINE
  8
0
 10
347.11
 20
4.75
 11
355.25
 21
4.75
  0
LINE
  8
0
 10
355.25
 20
4.75
 11
355.25
 21
16.55
  0
LINE
  8
0
 10
355.25
 20
16.55
 11
360
 21
16.55
  0
LINE
  8
0
 10
360
 20
16.55
 11
360
 21
25.45
  0
LINE
  8
0
 10
360
 20
25.45
 11
355.25
 21
25.45
  0
LINE
  8
0
 10
355.25
 20
25.45
 11
355.25
 21
33.35
  0
LINE
  8
0
 10
355.25
 20
33.35
 11
360
 21
33.35
  0
LINE
  8
0
 10
360
 20
33.35
 11
360
 21
42.25
  0
LINE
  8
0
 10
360
 20
42.25
 11
355.25
 21
42.25
  0
LINE
  8
0
 10
355.25
 20
42.25
 11
355.25
 21
50.15
  0
LINE
  8
0
 10
355.25
 20
50.15
 11
360
 21
50.15
  0
LINE
  8
0
 10
360
 20
50.15
 11
360
 21
59.05
  0
LINE
  8
0
 10
360
 20
59.05
 11
355.25
 21
59.05
  0
LINE
  8
0
 10
355.25
 20
59.05
 11
355.25
 21
66.95
  0
LINE
  8
0
 10
355.25
 20
66.95
 11
360
 21
66.95
  0
LINE
  8
0
 10
360
 20
66.95
 11
360
 21
75.85
  0
LINE
  8
0
 10
360
 20
75.85
 11
355.25
 21
75.85
  0
LINE
  8
0
 10
355.25
 20
75.85
 11
355.25
 21
83.75
  0
LINE
  8
0
 10
355.25
 20
83.75
 11
360
 21
83.75
  0
LINE
  8
0
 10
360
 20
83.75
 11
360
 21
92.65
  0
LINE
  8
0
 10
360
 20
92.65
 11
355.25
 21
92.65
  0
LINE
  8
0
 10
355.25
 20
92.65
 11
355.25
 21
100.55
  0
LINE
  8
0
 10
355.25
 20
100.55
 11
360
 21
100.55
  0
LINE
  8
0
 10
360
 20
100.55
 11
360
 21
109.45
  0
LINE
  8
0
 10
360
 20
109.45
 11
355.25
 21
109.45
  0
LINE
  8
0
 10
355.25
 20
109.45
 11
355.25
 21
117.35
  0
LINE
  8
0
 10
355.25
 20
117.35
 11
360
 21
117.35
  0
LINE
  8
0
 10
360
 20
117.35
 11
360
 21
126.25
  0
LINE
  8
0
 10
360
 20
126.25
 11
355.25
 21
126.25
  0
LINE
  8
0
 10
355.25
 20
126.25
 11
355.25
 21
134.15
  0
LINE
  8
0
 10
355.25
 20
134.15
 11
360
 21
134.15
  0
LINE
  8
0
 10
360
 20
134.15
 11
360
 21
143.05
  0
LINE
  8
0
 10
360
 20
143.05
 11
355.25
 21
143.05
  0
LINE
  8
0
 10
355.25
 20
143.05
 11
355.25
 21
150.95
  0
LINE
  8
0
 10
355.25
 20
150.95
 11
360
 21
150.95
  0
LINE
  8
0
 10
360
 20
150.95
 11
360
 21
159.85
  0
LINE
  8
0
 10
360
 20
159.85
 11
355.25
 21
159.85
  0
LINE
  8
0
 10
355.25
 20
159.85
 11
355.25
 21
167.75
  0
LINE
  8
0
 10
355.25
 20
167.75
 11
360
 21
167.75
  0
LINE
  8
0
 10
360
 20
167.75
 11
360
 21
176.65
  0
LINE
  8
0
 10
360
 20
176.65
 11
355.25
 21
176.65
  0
LINE
  8
0
 10
355.25
 20
176.65
 11
355.25
 21
184.55
  0
LINE
  8
0
 10
355.25
 20
184.55
 11
360
 21
184.55
  0
LINE
  8
0
 10
360
 20
184.55
 11
360
 21
193.45
  0
LINE
  8
0
 10
360
 20
193.45
 11
355.25
 21
193.45
  0
LINE
  8
0
 10
355.25
 20
193.45
 11
355.25
 21
205.25
  0
LINE
  8
0
 10
355.25
 20
205.25
 11
347.11
 21
205.25
  0
LINE
  8
0
 10
347.11
 20
205.25
 11
347.11
 21
210
  0
LINE
  8
0
 10
347.11
 20
210
 11
338.471
 21
210
  0
LINE
  8
0
 10
338.471
 20
210
 11
338.471
 21
205.25
  0
LINE
  8
0
 10
338.471
 20
205.25
 11
330.831
 21
205.25
  0
LINE
  8
0
 10
330.831
 20
205.25
 11
330.831
 21
210
  0
LINE
  8
0
 10
330.831
 20
210
 11
322.192
 21
210
  0
LINE
  8
0
 10
322.192
 20
210
 11
322.192
 21
205.25
  0
LINE
  8
0
 10
322.192
 20
205.25
 11
314.552
 21
205.25
  0
LINE
  8
0
 10
314.552
 20
205.25
 11
314.552
 21
210
  0
LINE
  8
0
 10
314.552
 20
210
 11
305.913
 21
210
  0
LINE
  8
0
 10
305.913
 20
210
 11
305.913
 21
205.25
  0
LINE
  8
0
 10
305.913
 20
205.25
 11
298.273
 21
205.25
  0
LINE
  8
0
 10
298.273
 20
205.25
 11
298.273
 21
210
  0
LINE
  8
0
 10
298.273
 20
210
 11
289.634
 21
210
  0
LINE
  8
0
 10
289.634
 20
210
 11
289.634
 21
205.25
  0
LINE
  8
0
 10
289.634
 20
205.25
 11
281.994
 21
205.25
  0
LINE
  8
0
 10
281.994
 20
205.25
 11
281.994
 21
210
  0
LINE
  8
0
 10
281.994
 20
210
 11
273.355
 21
210
  0
LINE
  8
0
 10
273.355
 20
210
 11
273.355
 21
205.25
  0
LINE
  8
0
 10
273.355
 20
205.25
 11
265.715
 21
205.25
  0
LINE
  8
0
 10
265.715
 20
205.25
 11
265.715
 21
210
  0
LINE
  8
0
 10
265.715
 20
210
 11
257.076
 21
210
  0
LINE
  8
0
 10
257.076
 20
210
 11
257.076
 21
205.25
  0
LINE
  8
0
 10
257.076
 20
205.25
 11
249.436
 21
205.25
  0
LINE
  8
0
 10
249.436
 20
205.25
 11
249.436
 21
210
  0
LINE
  8
0
 10
249.436
 20
210
 11
240.797
 21
210
  0
LINE
  8
0
 10
240.797
 20
210
 11
240.797
 21
205.25
  0
LINE
  8
0
 10
240.797
 20
205.25
 11
233.157
 21
205.25
  0
LINE
  8
0
 10
233.157
 20
205.25
 11
233.157
 21
210
  0
LINE
  8
0
 10
233.157
 20
210
 11
224.517
 21
210
  0
LINE
  8
0
 10
224.517
 20
210
 11
224.517
 21
205.25
  0
LINE
  8
0
 10
224.517
 20
205.25
 11
216.878
 21
205.25
  0
LINE
  8
0
 10
216.878
 20
205.25
 11
216.878
 21
210
  0
LINE
  8
0
 10
216.878
 20
210
 11
208.238
 21
210
  0
LINE
  8
0
 10
208.238
 20
210
 11
208.238
 21
205.25
  0
LINE
  8
0
 10
208.238
 20
205.25
 11
200.599
 21
205.25
  0
LINE
  8
0
 10
200.599
 20
205.25
 11
200.599
 21
210
  0
LINE
  8
0
 10
200.599
 20
210
 11
191.959
 21
210
  0
LINE
  8
0
 10
191.959
 20
210
 11
191.959
 21
205.25
  0
LINE
  8
0
 10
191.959
 20
205.25
 11
184.32
 21
205.25
  0
LINE
  8
0
 10
184.32
 20
205.25
 11
184.32
 21
210
  0
LINE
  8
0
 10
184.32
 20
210
 11
175.68
 21
210
  0
LINE
  8
0
 10
175.68
 20
210
 11
175.68
 21
205.25
  0
LINE
  8
0
 10
175.68
 20
205.25
 11
168.041
 21
205.25
  0
LINE
  8
0
 10
168.041
 20
205.25
 11
168.041
 21
210
  0
LINE
  8
0
 10
168.041
 20
210
 11
159.401
 21
210
  0
LINE
  8
0
 10
159.401
 20
210
 11
159.401
 21
205.25
  0
LINE
  8
0
 10
159.401
 20
205.25
 11
151.762
 21
205.25
  0
LINE
  8
0
 10
151.762
 20
205.25
 11
151.762
 21
210
  0
LINE
  8
0
 10
151.762
 20
210
 11
143.122
 21
210
  0
LINE
  8
0
 10
143.122
 20
210
 11
143.122
 21
205.25
  0
LINE
  8
0
 10
143.122
 20
205.25
 11
135.483
 21
205.25
  0
LINE
  8
0
 10
135.483
 20
205.25
 11
135.483
 21
210
  0
LINE
  8
0
 10
135.483
 20
210
 11
126.843
 21
210
  0
LINE
  8
0
 10
126.843
 20
210
 11
126.843
 21
205.25
  0
LINE
  8
0
 10
126.843
 20
205.25
 11
119.203
 21
205.25
  0
LINE
  8
0
 10
119.203
 20
205.25
 11
119.203
 21
210
  0
LINE
  8
0
 10
119.203
 20
210
 11
110.564
 21
210
  0
LINE
  8
0
 10
110.564
 20
210
 11
110.564
 21
205.25
  0
LINE
  8
0
 10
110.564
 20
205.25
 11
102.924
 21
205.25
  0
LINE
  8
0
 10
102.924
 20
205.25
 11
102.924
 21
210
  0
LINE
  8
0
 10
102.924
 20
210
 11
94.2849
 21
210
  0
LINE
  8
0
 10
94.2849
 20
210
 11
94.2849
 21
205.25
  0
LINE
  8
0
 10
94.2849
 20
205.25
 11
86.6453
 21
205.25
  0
LINE
  8
0
 10
86.6453
 20
205.25
 11
86.6453
 21
210
  0
LINE
  8
0
 10
86.6453
 20
210
 11
78.0058
 21
210
  0
LINE
  8
0
 10
78.0058
 20
210
 11
78.0058
 21
205.25
  0
LINE
  8
0
 10
78.0058
 20
205.25
 11
70.3663
 21
205.25
  0
LINE
  8
0
 10
70.3663
 20
205.25
 11
70.3663
 21
210
  0
LINE
  8
0
 10
70.3663
 20
210
 11
61.7267
 21
210
  0
LINE
  8
0
 10
61.7267
 20
210
 11
61.7267
 21
205.25
  0
LINE
  8
0
 10
61.7267
 20
205.25
 11
54.0872
 21
205.25
  0
LINE
  8
0
 10
54.0872
 20
205.25
 11
54.0872
 21
210
  0
LINE
  8
0
 10
54.0872
 20
210
 11
45.4477
 21
210
  0
LINE
  8
0
 10
45.4477
 20
210
 11
45.4477
 21
205.25
  0
LINE
  8
0
 10
45.4477
 20
205.25
 11
37.8081
 21
205.25
  0
LINE
  8
0
 10
37.8081
 20
205.25
 11
37.8081
 21
210
  0
LINE
  8
0
 10
37.8081
 20
210
 11
29.1686
 21
210
  0
LINE
  8
0
 10
29.1686
 20
210
 11
29.1686
 21
205.25
  0
LINE
  8
0
 10
29.1686
 20
205.25
 11
21.5291
 21
205.25
  0
LINE
  8
0
 10
21.5291
 20
205.25
 11
21.5291
 21
210
  0
LINE
  8
0
 10
21.5291
 20
210
 11
12.8895
 21
210
  0
LINE
  8
0
 10
12.8895
 20
210
 11
12.8895
 21
205.25
  0
LINE
  8
0
 10
12.8895
 20
205.25
 11
4.75
 21
205.25
  0
LINE
  8
0
 10
4.75
 20
205.25
 11
4.75
 21
193.45
  0
LINE
  8
0
 10
4.75
 20
193.45
 11
0
 21
193.45
  0
LINE
  8
0
 10
0
 20
193.45
 11
0
 21
184.55
  0
LINE
  8
0
 10
0
 20
184.55
 11
4.75
 21
184.55
  0
LINE
  8
0
 10
4.75
 20
184.55
 11
4.75
 21
176.65
  0
LINE
  8
0
 10
4.75
 20
176.65
 11
0
 21
176.65
  0
LINE
  8
0
 10
0
 20
176.65
 11
0
 21
167.75
  0
LINE
  8
0
 10
0
 20
167.75
 11
4.75
 21
167.75
  0
LINE
  8
0
 10
4.75
 20
167.75
 11
4.75
 21
159.85
  0
LINE
  8
0
 10
4.75
 20
159.85
 11
0
 21
159.85
  0
LINE
  8
0
 10
0
 20
159.85
 11
0
 21
150.95
  0
LINE
  8
0
 10
0
 20
150.95
 11
4.75
 21
150.95
  0
LINE
  8
0
 10
4.75
 20
150.95
 11
4.75
 21
143.05
  0
LINE
  8
0
 10
4.75
 20
143.05
 11
0
 21
143.05
  0
LINE
  8
0
 10
0
 20
143.05
 11
0
 21
134.15
  0
LINE
  8
0
 10
0
 20
134.15
 11
4.75
 21
134.15
  0
LINE
  8
0
 10
4.75
 20
134.15
 11
4.75
 21
126.25
  0
LINE
  8
0
 10
4.75
 20
126.25
 11
0
 21
126.25
  0
LINE
  8
0
 10
0
 20
126.25
 11
0
 21
117.35
  0
LINE
  8
0
 10
0
 20
117.35
 11
4.75
 21
117.35
  0
LINE
  8
0
 10
4.75
 20
117.35
 11
4.75
 21
109.45
  0
LINE
  8
0
 10
4.75
 20
109.45
 11
0
 21
109.45
  0
LINE
  8
0
 10
0
 20
109.45
 11
0
 21
100.55
  0
LINE
  8
0
 10
0
 20
100.55
 11
4.75
 21
100.55
  0
LINE
  8
0
 10
4.75
 20
100.55
 11
4.75
 21
92.65
  0
LINE
  8
0
 10
4.75
 20
92.65
 11
0
 21
92.65
  0
LINE
  8
0
 10
0
 20
92.65
 11
0
 21
83.75
  0
LINE
  8
0
 10
0
 20
83.75
 11
4.75
 21
83.75
  0
LINE
  8
0
 10
4.75
 20
83.75
 11
4.75
 21
75.85
  0
LINE
  8
0
 10
4.75
 20
75.85
 11
0
 21
75.85
  0
LINE
  8
0
 10
0
 20
75.85
 11
0
 21
66.95
  0
LINE
  8
0
 10
0
 20
66.95
 11
4.75
 21
66.95
  0
LINE
  8
0
 10
4.75
 20
66.95
 11
4.75
 21
59.05
  0
LINE
  8
0
 10
4.75
 20
59.05
 11
0
 21
59.05
  0
LINE
  8
0
 10
0
 20
59.05
 11
0
 21
50.15
  0
LINE
  8
0
 10
0
 20
50.15
 11
4.75
 21
50.15
  0
LINE
  8
0
 10
4.75
 20
50.15
 11
4.75
 21
42.25
  0
LINE
  8
0
 10
4.75
 20
42.25
 11
0
 21
42.25
  0
LINE
  8
0
 10
0
 20
42.25
 11
0
 21
33.35
  0
LINE
  8
0
 10
0
 20
33.35
 11
4.75
 21
33.35
  0
LINE
  8
0
 10
4.75
 20
33.35
 11
4.75
 21
25.45
  0
LINE
  8
0
 10
4.75
 20
25.45
 11
0
 21
25.45
  0
LINE
  8
0
 10
0
 20
25.45
 11
0
 21
16.55
  0
ENDSEC
  0
SECTION
  2
OBJECTS
  0
DICTIONARY
  0
ENDSEC
  0
EOF
