<?xml version="1.0" standalone="no"?>
<!DOCTYPE svg PUBLIC "-//W3C//DTD SVG 1.1//EN" "http://www.w3.org/Graphics/SVG/1.1/DTD/svg11.dtd">
<svg width="21mm" height="211mm" viewBox="0 -211 21 211" xmlns="http://www.w3.org/2000/svg" version="1.1">
<title>OpenSCAD Model</title>
<path d="
M 0,-0 L 7.01667,-0 L 7.01667,-5.3 L 13.2833,-5.3 L 13.2833,-0 L 20.3,-0
 L 20.3,-210.6 L 13.2833,-210.6 L 13.2833,-205.3 L 7.01667,-205.3 L 7.01667,-210.6 L 0,-210.6
 L 0,-193.502 L 5.3,-193.502 L 5.3,-185.578 L 0,-185.578 L 0,-176.654 L 5.3,-176.654
 L 5.3,-168.73 L 0,-168.73 L 0,-159.806 L 5.3,-159.806 L 5.3,-151.882 L 0,-151.882
 L 0,-142.958 L 5.3,-142.958 L 5.3,-135.034 L 0,-135.034 L 0,-126.11 L 5.3,-126.11
 L 5.3,-118.186 L 0,-118.186 L 0,-109.262 L 5.3,-109.262 L 5.3,-101.338 L 0,-101.338
 L 0,-92.414 L 5.3,-92.414 L 5.3,-84.49 L 0,-84.49 L 0,-75.566 L 5.3,-75.566
 L 5.3,-67.642 L 0,-67.642 L 0,-58.718 L 5.3,-58.718 L 5.3,-50.794 L 0,-50.794
 L 0,-41.87 L 5.3,-41.87 L 5.3,-33.946 L 0,-33.946 L 0,-25.022 L 5.3,-25.022
 L 5.3,-17.098 L 0,-17.098 z
" stroke="black" fill="lightgray" stroke-width="0.5"/>
</svg>
