  0
SECTION
  2
BLOCKS
  0
ENDSEC
  0
SECTION
  2
ENTITIES
  0
LINE
  8
0
 10
0
 20
0
 11
7.81667
 21
0
  0
LINE
  8
0
 10
7.81667
 20
0
 11
7.81667
 21
6
  0
LINE
  8
0
 10
7.81667
 20
6
 11
15.1833
 21
6
  0
LINE
  8
0
 10
15.1833
 20
6
 11
15.1833
 21
0
  0
LINE
  8
0
 10
15.1833
 20
0
 11
23
 21
0
  0
LINE
  8
0
 10
23
 20
0
 11
23
 21
210
  0
LINE
  8
0
 10
23
 20
210
 11
15.1833
 21
210
  0
LINE
  8
0
 10
15.1833
 20
210
 11
15.1833
 21
204
  0
LINE
  8
0
 10
15.1833
 20
204
 11
7.81667
 21
204
  0
LINE
  8
0
 10
7.81667
 20
204
 11
7.81667
 21
210
  0
LINE
  8
0
 10
7.81667
 20
210
 11
0
 21
210
  0
LINE
  8
0
 10
0
 20
210
 11
0
 21
193.05
  0
LINE
  8
0
 10
0
 20
193.05
 11
6
 21
193.05
  0
LINE
  8
0
 10
6
 20
193.05
 11
6
 21
184.95
  0
LINE
  8
0
 10
6
 20
184.95
 11
0
 21
184.95
  0
LINE
  8
0
 10
0
 20
184.95
 11
0
 21
176.25
  0
LINE
  8
0
 10
0
 20
176.25
 11
6
 21
176.25
  0
LINE
  8
0
 10
6
 20
176.25
 11
6
 21
168.15
  0
LINE
  8
0
 10
6
 20
168.15
 11
0
 21
168.15
  0
LINE
  8
0
 10
0
 20
168.15
 11
0
 21
159.45
  0
LINE
  8
0
 10
0
 20
159.45
 11
6
 21
159.45
  0
LINE
  8
0
 10
6
 20
159.45
 11
6
 21
151.35
  0
LINE
  8
0
 10
6
 20
151.35
 11
0
 21
151.35
  0
LINE
  8
0
 10
0
 20
151.35
 11
0
 21
142.65
  0
LINE
  8
0
 10
0
 20
142.65
 11
6
 21
142.65
  0
LINE
  8
0
 10
6
 20
142.65
 11
6
 21
134.55
  0
LINE
  8
0
 10
6
 20
134.55
 11
0
 21
134.55
  0
LINE
  8
0
 10
0
 20
134.55
 11
0
 21
125.85
  0
LINE
  8
0
 10
0
 20
125.85
 11
6
 21
125.85
  0
LINE
  8
0
 10
6
 20
125.85
 11
6
 21
117.75
  0
LINE
  8
0
 10
6
 20
117.75
 11
0
 21
117.75
  0
LINE
  8
0
 10
0
 20
117.75
 11
0
 21
109.05
  0
LINE
  8
0
 10
0
 20
109.05
 11
6
 21
109.05
  0
LINE
  8
0
 10
6
 20
109.05
 11
6
 21
100.95
  0
LINE
  8
0
 10
6
 20
100.95
 11
0
 21
100.95
  0
LINE
  8
0
 10
0
 20
100.95
 11
0
 21
92.25
  0
LINE
  8
0
 10
0
 20
92.25
 11
6
 21
92.25
  0
LINE
  8
0
 10
6
 20
92.25
 11
6
 21
84.15
  0
LINE
  8
0
 10
6
 20
84.15
 11
0
 21
84.15
  0
LINE
  8
0
 10
0
 20
84.15
 11
0
 21
75.45
  0
LINE
  8
0
 10
0
 20
75.45
 11
6
 21
75.45
  0
LINE
  8
0
 10
6
 20
75.45
 11
6
 21
67.35
  0
LINE
  8
0
 10
6
 20
67.35
 11
0
 21
67.35
  0
LINE
  8
0
 10
0
 20
67.35
 11
0
 21
58.65
  0
LINE
  8
0
 10
0
 20
58.65
 11
6
 21
58.65
  0
LINE
  8
0
 10
6
 20
58.65
 11
6
 21
50.55
  0
LINE
  8
0
 10
6
 20
50.55
 11
0
 21
50.55
  0
LINE
  8
0
 10
0
 20
50.55
 11
0
 21
41.85
  0
LINE
  8
0
 10
0
 20
41.85
 11
6
 21
41.85
  0
LINE
  8
0
 10
6
 20
41.85
 11
6
 21
33.75
  0
LINE
  8
0
 10
6
 20
33.75
 11
0
 21
33.75
  0
LINE
  8
0
 10
0
 20
33.75
 11
0
 21
25.05
  0
LINE
  8
0
 10
0
 20
25.05
 11
6
 21
25.05
  0
LINE
  8
0
 10
6
 20
25.05
 11
6
 21
16.95
  0
LINE
  8
0
 10
6
 20
16.95
 11
0
 21
16.95
  0
LINE
  8
0
 10
0
 20
16.95
 11
0
 21
0
  0
ENDSEC
  0
SECTION
  2
OBJECTS
  0
DICTIONARY
  0
ENDSEC
  0
EOF
