<?xml version="1.0" standalone="no"?>
<!DOCTYPE svg PUBLIC "-//W3C//DTD SVG 1.1//EN" "http://www.w3.org/Graphics/SVG/1.1/DTD/svg11.dtd">
<svg width="20mm" height="210mm" viewBox="0 -210 20 210" xmlns="http://www.w3.org/2000/svg" version="1.1">
<title>OpenSCAD Model</title>
<path d="
M 0,-0 L 6.91667,-0 L 6.91667,-5 L 13.0833,-5 L 13.0833,-0 L 20,-0
 L 20,-210 L 13.0833,-210 L 13.0833,-205 L 6.91667,-205 L 6.91667,-210 L 0,-210
 L 0,-192.95 L 6,-192.95 L 6,-185.05 L 0,-185.05 L 0,-176.15 L 6,-176.15
 L 6,-168.25 L 0,-168.25 L 0,-159.35 L 6,-159.35 L 6,-151.45 L 0,-151.45
 L 0,-142.55 L 6,-142.55 L 6,-134.65 L 0,-134.65 L 0,-125.75 L 6,-125.75
 L 6,-117.85 L 0,-117.85 L 0,-108.95 L 6,-108.95 L 6,-101.05 L 0,-101.05
 L 0,-92.15 L 6,-92.15 L 6,-84.25 L 0,-84.25 L 0,-75.35 L 6,-75.35
 L 6,-67.45 L 0,-67.45 L 0,-58.55 L 6,-58.55 L 6,-50.65 L 0,-50.65
 L 0,-41.75 L 6,-41.75 L 6,-33.85 L 0,-33.85 L 0,-24.95 L 6,-24.95
 L 6,-17.05 L 0,-17.05 z
" stroke="black" fill="lightgray" stroke-width="0.5"/>
</svg>
