  0
SECTION
  2
BLOCKS
  0
ENDSEC
  0
SECTION
  2
ENTITIES
  0
LINE
  8
0
 10
0
 20
0
 11
7.01667
 21
0
  0
LINE
  8
0
 10
7.01667
 20
0
 11
7.01667
 21
5.3
  0
LINE
  8
0
 10
7.01667
 20
5.3
 11
13.2833
 21
5.3
  0
LINE
  8
0
 10
13.2833
 20
5.3
 11
13.2833
 21
0
  0
LINE
  8
0
 10
13.2833
 20
0
 11
20.3
 21
0
  0
LINE
  8
0
 10
20.3
 20
0
 11
20.3
 21
210.6
  0
LINE
  8
0
 10
20.3
 20
210.6
 11
13.2833
 21
210.6
  0
LINE
  8
0
 10
13.2833
 20
210.6
 11
13.2833
 21
205.3
  0
LINE
  8
0
 10
13.2833
 20
205.3
 11
7.01667
 21
205.3
  0
LINE
  8
0
 10
7.01667
 20
205.3
 11
7.01667
 21
210.6
  0
LINE
  8
0
 10
7.01667
 20
210.6
 11
0
 21
210.6
  0
LINE
  8
0
 10
0
 20
210.6
 11
0
 21
193.502
  0
LINE
  8
0
 10
0
 20
193.502
 11
5.3
 21
193.502
  0
LINE
  8
0
 10
5.3
 20
193.502
 11
5.3
 21
185.578
  0
LINE
  8
0
 10
5.3
 20
185.578
 11
0
 21
185.578
  0
LINE
  8
0
 10
0
 20
185.578
 11
0
 21
176.654
  0
LINE
  8
0
 10
0
 20
176.654
 11
5.3
 21
176.654
  0
LINE
  8
0
 10
5.3
 20
176.654
 11
5.3
 21
168.73
  0
LINE
  8
0
 10
5.3
 20
168.73
 11
0
 21
168.73
  0
LINE
  8
0
 10
0
 20
168.73
 11
0
 21
159.806
  0
LINE
  8
0
 10
0
 20
159.806
 11
5.3
 21
159.806
  0
LINE
  8
0
 10
5.3
 20
159.806
 11
5.3
 21
151.882
  0
LINE
  8
0
 10
5.3
 20
151.882
 11
0
 21
151.882
  0
LINE
  8
0
 10
0
 20
151.882
 11
0
 21
142.958
  0
LINE
  8
0
 10
0
 20
142.958
 11
5.3
 21
142.958
  0
LINE
  8
0
 10
5.3
 20
142.958
 11
5.3
 21
135.034
  0
LINE
  8
0
 10
5.3
 20
135.034
 11
0
 21
135.034
  0
LINE
  8
0
 10
0
 20
135.034
 11
0
 21
126.11
  0
LINE
  8
0
 10
0
 20
126.11
 11
5.3
 21
126.11
  0
LINE
  8
0
 10
5.3
 20
126.11
 11
5.3
 21
118.186
  0
LINE
  8
0
 10
5.3
 20
118.186
 11
0
 21
118.186
  0
LINE
  8
0
 10
0
 20
118.186
 11
0
 21
109.262
  0
LINE
  8
0
 10
0
 20
109.262
 11
5.3
 21
109.262
  0
LINE
  8
0
 10
5.3
 20
109.262
 11
5.3
 21
101.338
  0
LINE
  8
0
 10
5.3
 20
101.338
 11
0
 21
101.338
  0
LINE
  8
0
 10
0
 20
101.338
 11
0
 21
92.414
  0
LINE
  8
0
 10
0
 20
92.414
 11
5.3
 21
92.414
  0
LINE
  8
0
 10
5.3
 20
92.414
 11
5.3
 21
84.49
  0
LINE
  8
0
 10
5.3
 20
84.49
 11
0
 21
84.49
  0
LINE
  8
0
 10
0
 20
84.49
 11
0
 21
75.566
  0
LINE
  8
0
 10
0
 20
75.566
 11
5.3
 21
75.566
  0
LINE
  8
0
 10
5.3
 20
75.566
 11
5.3
 21
67.642
  0
LINE
  8
0
 10
5.3
 20
67.642
 11
0
 21
67.642
  0
LINE
  8
0
 10
0
 20
67.642
 11
0
 21
58.718
  0
LINE
  8
0
 10
0
 20
58.718
 11
5.3
 21
58.718
  0
LINE
  8
0
 10
5.3
 20
58.718
 11
5.3
 21
50.794
  0
LINE
  8
0
 10
5.3
 20
50.794
 11
0
 21
50.794
  0
LINE
  8
0
 10
0
 20
50.794
 11
0
 21
41.87
  0
LINE
  8
0
 10
0
 20
41.87
 11
5.3
 21
41.87
  0
LINE
  8
0
 10
5.3
 20
41.87
 11
5.3
 21
33.946
  0
LINE
  8
0
 10
5.3
 20
33.946
 11
0
 21
33.946
  0
LINE
  8
0
 10
0
 20
33.946
 11
0
 21
25.022
  0
LINE
  8
0
 10
0
 20
25.022
 11
5.3
 21
25.022
  0
LINE
  8
0
 10
5.3
 20
25.022
 11
5.3
 21
17.098
  0
LINE
  8
0
 10
5.3
 20
17.098
 11
0
 21
17.098
  0
LINE
  8
0
 10
0
 20
17.098
 11
0
 21
0
  0
ENDSEC
  0
SECTION
  2
OBJECTS
  0
DICTIONARY
  0
ENDSEC
  0
EOF
