<?xml version="1.0" standalone="no"?>
<!DOCTYPE svg PUBLIC "-//W3C//DTD SVG 1.1//EN" "http://www.w3.org/Graphics/SVG/1.1/DTD/svg11.dtd">
<svg width="20mm" height="210mm" viewBox="0 -210 20 210" xmlns="http://www.w3.org/2000/svg" version="1.1">
<title>OpenSCAD Model</title>
<path d="
M 0,-0 L 6.66667,-0 L 6.66667,-5 L 13.3333,-5 L 13.3333,-0 L 20,-0
 L 20,-210 L 13.3333,-210 L 13.3333,-205 L 6.66667,-205 L 6.66667,-210 L 0,-210
 L 0,-193.2 L 6,-193.2 L 6,-184.8 L 0,-184.8 L 0,-176.4 L 6,-176.4
 L 6,-168 L 0,-168 L 0,-159.6 L 6,-159.6 L 6,-151.2 L 0,-151.2
 L 0,-142.8 L 6,-142.8 L 6,-134.4 L 0,-134.4 L 0,-126 L 6,-126
 L 6,-117.6 L 0,-117.6 L 0,-109.2 L 6,-109.2 L 6,-100.8 L 0,-100.8
 L 0,-92.4 L 6,-92.4 L 6,-84 L 0,-84 L 0,-75.6 L 6,-75.6
 L 6,-67.2 L 0,-67.2 L 0,-58.8 L 6,-58.8 L 6,-50.4 L 0,-50.4
 L 0,-42 L 6,-42 L 6,-33.6 L 0,-33.6 L 0,-25.2 L 6,-25.2
 L 6,-16.8 L 0,-16.8 z
" stroke="black" fill="lightgray" stroke-width="0.5"/>
</svg>
