<?xml version="1.0" standalone="no"?>
<!DOCTYPE svg PUBLIC "-//W3C//DTD SVG 1.1//EN" "http://www.w3.org/Graphics/SVG/1.1/DTD/svg11.dtd">
<svg width="23mm" height="210mm" viewBox="0 -210 23 210" xmlns="http://www.w3.org/2000/svg" version="1.1">
<title>OpenSCAD Model</title>
<path d="
M 0,-0 L 7.81667,-0 L 7.81667,-6 L 15.1833,-6 L 15.1833,-0 L 23,-0
 L 23,-210 L 15.1833,-210 L 15.1833,-204 L 7.81667,-204 L 7.81667,-210 L 0,-210
 L 0,-193.05 L 6,-193.05 L 6,-184.95 L 0,-184.95 L 0,-176.25 L 6,-176.25
 L 6,-168.15 L 0,-168.15 L 0,-159.45 L 6,-159.45 L 6,-151.35 L 0,-151.35
 L 0,-142.65 L 6,-142.65 L 6,-134.55 L 0,-134.55 L 0,-125.85 L 6,-125.85
 L 6,-117.75 L 0,-117.75 L 0,-109.05 L 6,-109.05 L 6,-100.95 L 0,-100.95
 L 0,-92.25 L 6,-92.25 L 6,-84.15 L 0,-84.15 L 0,-75.45 L 6,-75.45
 L 6,-67.35 L 0,-67.35 L 0,-58.65 L 6,-58.65 L 6,-50.55 L 0,-50.55
 L 0,-41.85 L 6,-41.85 L 6,-33.75 L 0,-33.75 L 0,-25.05 L 6,-25.05
 L 6,-16.95 L 0,-16.95 z
" stroke="black" fill="lightgray" stroke-width="0.5"/>
</svg>
