  0
SECTION
  2
BLOCKS
  0
ENDSEC
  0
SECTION
  2
ENTITIES
  0
LINE
  8
0
 10
0
 20
0
 11
10
 21
0
  0
LINE
  8
0
 10
10
 20
0
 11
10
 21
5
  0
LINE
  8
0
 10
10
 20
5
 11
20
 21
5
  0
LINE
  8
0
 10
20
 20
5
 11
20
 21
195
  0
LINE
  8
0
 10
20
 20
195
 11
10
 21
195
  0
LINE
  8
0
 10
10
 20
195
 11
10
 21
200
  0
LINE
  8
0
 10
10
 20
200
 11
0
 21
200
  0
LINE
  8
0
 10
0
 20
200
 11
0
 21
181.818
  0
LINE
  8
0
 10
0
 20
181.818
 11
6
 21
181.818
  0
LINE
  8
0
 10
6
 20
181.818
 11
6
 21
163.636
  0
LINE
  8
0
 10
6
 20
163.636
 11
0
 21
163.636
  0
LINE
  8
0
 10
0
 20
163.636
 11
0
 21
145.455
  0
LINE
  8
0
 10
0
 20
145.455
 11
6
 21
145.455
  0
LINE
  8
0
 10
6
 20
145.455
 11
6
 21
127.273
  0
LINE
  8
0
 10
6
 20
127.273
 11
0
 21
127.273
  0
LINE
  8
0
 10
0
 20
127.273
 11
0
 21
109.091
  0
LINE
  8
0
 10
0
 20
109.091
 11
6
 21
109.091
  0
LINE
  8
0
 10
6
 20
109.091
 11
6
 21
90.9091
  0
LINE
  8
0
 10
6
 20
90.9091
 11
0
 21
90.9091
  0
LINE
  8
0
 10
0
 20
90.9091
 11
0
 21
72.7273
  0
LINE
  8
0
 10
0
 20
72.7273
 11
6
 21
72.7273
  0
LINE
  8
0
 10
6
 20
72.7273
 11
6
 21
54.5455
  0
LINE
  8
0
 10
6
 20
54.5455
 11
0
 21
54.5455
  0
LINE
  8
0
 10
0
 20
54.5455
 11
0
 21
36.3636
  0
LINE
  8
0
 10
0
 20
36.3636
 11
6
 21
36.3636
  0
LINE
  8
0
 10
6
 20
36.3636
 11
6
 21
18.1818
  0
LINE
  8
0
 10
6
 20
18.1818
 11
0
 21
18.1818
  0
LINE
  8
0
 10
0
 20
18.1818
 11
0
 21
0
  0
ENDSEC
  0
SECTION
  2
OBJECTS
  0
DICTIONARY
  0
ENDSEC
  0
EOF
