  0
SECTION
  2
BLOCKS
  0
ENDSEC
  0
SECTION
  2
ENTITIES
  0
LINE
  8
0
 10
0
 20
0
 11
6.66667
 21
0
  0
LINE
  8
0
 10
6.66667
 20
0
 11
6.66667
 21
5
  0
LINE
  8
0
 10
6.66667
 20
5
 11
13.3333
 21
5
  0
LINE
  8
0
 10
13.3333
 20
5
 11
13.3333
 21
0
  0
LINE
  8
0
 10
13.3333
 20
0
 11
20
 21
0
  0
LINE
  8
0
 10
20
 20
0
 11
20
 21
210
  0
LINE
  8
0
 10
20
 20
210
 11
13.3333
 21
210
  0
LINE
  8
0
 10
13.3333
 20
210
 11
13.3333
 21
205
  0
LINE
  8
0
 10
13.3333
 20
205
 11
6.66667
 21
205
  0
LINE
  8
0
 10
6.66667
 20
205
 11
6.66667
 21
210
  0
LINE
  8
0
 10
6.66667
 20
210
 11
0
 21
210
  0
LINE
  8
0
 10
0
 20
210
 11
0
 21
193.2
  0
LINE
  8
0
 10
0
 20
193.2
 11
6
 21
193.2
  0
LINE
  8
0
 10
6
 20
193.2
 11
6
 21
184.8
  0
LINE
  8
0
 10
6
 20
184.8
 11
0
 21
184.8
  0
LINE
  8
0
 10
0
 20
184.8
 11
0
 21
176.4
  0
LINE
  8
0
 10
0
 20
176.4
 11
6
 21
176.4
  0
LINE
  8
0
 10
6
 20
176.4
 11
6
 21
168
  0
LINE
  8
0
 10
6
 20
168
 11
0
 21
168
  0
LINE
  8
0
 10
0
 20
168
 11
0
 21
159.6
  0
LINE
  8
0
 10
0
 20
159.6
 11
6
 21
159.6
  0
LINE
  8
0
 10
6
 20
159.6
 11
6
 21
151.2
  0
LINE
  8
0
 10
6
 20
151.2
 11
0
 21
151.2
  0
LINE
  8
0
 10
0
 20
151.2
 11
0
 21
142.8
  0
LINE
  8
0
 10
0
 20
142.8
 11
6
 21
142.8
  0
LINE
  8
0
 10
6
 20
142.8
 11
6
 21
134.4
  0
LINE
  8
0
 10
6
 20
134.4
 11
0
 21
134.4
  0
LINE
  8
0
 10
0
 20
134.4
 11
0
 21
126
  0
LINE
  8
0
 10
0
 20
126
 11
6
 21
126
  0
LINE
  8
0
 10
6
 20
126
 11
6
 21
117.6
  0
LINE
  8
0
 10
6
 20
117.6
 11
0
 21
117.6
  0
LINE
  8
0
 10
0
 20
117.6
 11
0
 21
109.2
  0
LINE
  8
0
 10
0
 20
109.2
 11
6
 21
109.2
  0
LINE
  8
0
 10
6
 20
109.2
 11
6
 21
100.8
  0
LINE
  8
0
 10
6
 20
100.8
 11
0
 21
100.8
  0
LINE
  8
0
 10
0
 20
100.8
 11
0
 21
92.4
  0
LINE
  8
0
 10
0
 20
92.4
 11
6
 21
92.4
  0
LINE
  8
0
 10
6
 20
92.4
 11
6
 21
84
  0
LINE
  8
0
 10
6
 20
84
 11
0
 21
84
  0
LINE
  8
0
 10
0
 20
84
 11
0
 21
75.6
  0
LINE
  8
0
 10
0
 20
75.6
 11
6
 21
75.6
  0
LINE
  8
0
 10
6
 20
75.6
 11
6
 21
67.2
  0
LINE
  8
0
 10
6
 20
67.2
 11
0
 21
67.2
  0
LINE
  8
0
 10
0
 20
67.2
 11
0
 21
58.8
  0
LINE
  8
0
 10
0
 20
58.8
 11
6
 21
58.8
  0
LINE
  8
0
 10
6
 20
58.8
 11
6
 21
50.4
  0
LINE
  8
0
 10
6
 20
50.4
 11
0
 21
50.4
  0
LINE
  8
0
 10
0
 20
50.4
 11
0
 21
42
  0
LINE
  8
0
 10
0
 20
42
 11
6
 21
42
  0
LINE
  8
0
 10
6
 20
42
 11
6
 21
33.6
  0
LINE
  8
0
 10
6
 20
33.6
 11
0
 21
33.6
  0
LINE
  8
0
 10
0
 20
33.6
 11
0
 21
25.2
  0
LINE
  8
0
 10
0
 20
25.2
 11
6
 21
25.2
  0
LINE
  8
0
 10
6
 20
25.2
 11
6
 21
16.8
  0
LINE
  8
0
 10
6
 20
16.8
 11
0
 21
16.8
  0
LINE
  8
0
 10
0
 20
16.8
 11
0
 21
0
  0
ENDSEC
  0
SECTION
  2
OBJECTS
  0
DICTIONARY
  0
ENDSEC
  0
EOF
