  0
SECTION
  2
BLOCKS
  0
ENDSEC
  0
SECTION
  2
ENTITIES
  0
LINE
  8
0
 10
0
 20
0
 11
6.91667
 21
0
  0
LINE
  8
0
 10
6.91667
 20
0
 11
6.91667
 21
5
  0
LINE
  8
0
 10
6.91667
 20
5
 11
13.0833
 21
5
  0
LINE
  8
0
 10
13.0833
 20
5
 11
13.0833
 21
0
  0
LINE
  8
0
 10
13.0833
 20
0
 11
20
 21
0
  0
LINE
  8
0
 10
20
 20
0
 11
20
 21
210
  0
LINE
  8
0
 10
20
 20
210
 11
13.0833
 21
210
  0
LINE
  8
0
 10
13.0833
 20
210
 11
13.0833
 21
205
  0
LINE
  8
0
 10
13.0833
 20
205
 11
6.91667
 21
205
  0
LINE
  8
0
 10
6.91667
 20
205
 11
6.91667
 21
210
  0
LINE
  8
0
 10
6.91667
 20
210
 11
0
 21
210
  0
LINE
  8
0
 10
0
 20
210
 11
0
 21
192.95
  0
LINE
  8
0
 10
0
 20
192.95
 11
6
 21
192.95
  0
LINE
  8
0
 10
6
 20
192.95
 11
6
 21
185.05
  0
LINE
  8
0
 10
6
 20
185.05
 11
0
 21
185.05
  0
LINE
  8
0
 10
0
 20
185.05
 11
0
 21
176.15
  0
LINE
  8
0
 10
0
 20
176.15
 11
6
 21
176.15
  0
LINE
  8
0
 10
6
 20
176.15
 11
6
 21
168.25
  0
LINE
  8
0
 10
6
 20
168.25
 11
0
 21
168.25
  0
LINE
  8
0
 10
0
 20
168.25
 11
0
 21
159.35
  0
LINE
  8
0
 10
0
 20
159.35
 11
6
 21
159.35
  0
LINE
  8
0
 10
6
 20
159.35
 11
6
 21
151.45
  0
LINE
  8
0
 10
6
 20
151.45
 11
0
 21
151.45
  0
LINE
  8
0
 10
0
 20
151.45
 11
0
 21
142.55
  0
LINE
  8
0
 10
0
 20
142.55
 11
6
 21
142.55
  0
LINE
  8
0
 10
6
 20
142.55
 11
6
 21
134.65
  0
LINE
  8
0
 10
6
 20
134.65
 11
0
 21
134.65
  0
LINE
  8
0
 10
0
 20
134.65
 11
0
 21
125.75
  0
LINE
  8
0
 10
0
 20
125.75
 11
6
 21
125.75
  0
LINE
  8
0
 10
6
 20
125.75
 11
6
 21
117.85
  0
LINE
  8
0
 10
6
 20
117.85
 11
0
 21
117.85
  0
LINE
  8
0
 10
0
 20
117.85
 11
0
 21
108.95
  0
LINE
  8
0
 10
0
 20
108.95
 11
6
 21
108.95
  0
LINE
  8
0
 10
6
 20
108.95
 11
6
 21
101.05
  0
LINE
  8
0
 10
6
 20
101.05
 11
0
 21
101.05
  0
LINE
  8
0
 10
0
 20
101.05
 11
0
 21
92.15
  0
LINE
  8
0
 10
0
 20
92.15
 11
6
 21
92.15
  0
LINE
  8
0
 10
6
 20
92.15
 11
6
 21
84.25
  0
LINE
  8
0
 10
6
 20
84.25
 11
0
 21
84.25
  0
LINE
  8
0
 10
0
 20
84.25
 11
0
 21
75.35
  0
LINE
  8
0
 10
0
 20
75.35
 11
6
 21
75.35
  0
LINE
  8
0
 10
6
 20
75.35
 11
6
 21
67.45
  0
LINE
  8
0
 10
6
 20
67.45
 11
0
 21
67.45
  0
LINE
  8
0
 10
0
 20
67.45
 11
0
 21
58.55
  0
LINE
  8
0
 10
0
 20
58.55
 11
6
 21
58.55
  0
LINE
  8
0
 10
6
 20
58.55
 11
6
 21
50.65
  0
LINE
  8
0
 10
6
 20
50.65
 11
0
 21
50.65
  0
LINE
  8
0
 10
0
 20
50.65
 11
0
 21
41.75
  0
LINE
  8
0
 10
0
 20
41.75
 11
6
 21
41.75
  0
LINE
  8
0
 10
6
 20
41.75
 11
6
 21
33.85
  0
LINE
  8
0
 10
6
 20
33.85
 11
0
 21
33.85
  0
LINE
  8
0
 10
0
 20
33.85
 11
0
 21
24.95
  0
LINE
  8
0
 10
0
 20
24.95
 11
6
 21
24.95
  0
LINE
  8
0
 10
6
 20
24.95
 11
6
 21
17.05
  0
LINE
  8
0
 10
6
 20
17.05
 11
0
 21
17.05
  0
LINE
  8
0
 10
0
 20
17.05
 11
0
 21
0
  0
ENDSEC
  0
SECTION
  2
OBJECTS
  0
DICTIONARY
  0
ENDSEC
  0
EOF
