<?xml version="1.0" standalone="no"?>
<!DOCTYPE svg PUBLIC "-//W3C//DTD SVG 1.1//EN" "http://www.w3.org/Graphics/SVG/1.1/DTD/svg11.dtd">
<svg width="20mm" height="200mm" viewBox="0 -200 20 200" xmlns="http://www.w3.org/2000/svg" version="1.1">
<title>OpenSCAD Model</title>
<path d="
M 0,-0 L 6.66667,-0 L 6.66667,-5 L 13.3333,-5 L 13.3333,-0 L 20,-0
 L 20,-200 L 13.3333,-200 L 13.3333,-195 L 6.66667,-195 L 6.66667,-200 L 0,-200
 L 0,-184 L 6,-184 L 6,-176 L 0,-176 L 0,-168 L 6,-168
 L 6,-160 L 0,-160 L 0,-152 L 6,-152 L 6,-144 L 0,-144
 L 0,-136 L 6,-136 L 6,-128 L 0,-128 L 0,-120 L 6,-120
 L 6,-112 L 0,-112 L 0,-104 L 6,-104 L 6,-96 L 0,-96
 L 0,-88 L 6,-88 L 6,-80 L 0,-80 L 0,-72 L 6,-72
 L 6,-64 L 0,-64 L 0,-56 L 6,-56 L 6,-48 L 0,-48
 L 0,-40 L 6,-40 L 6,-32 L 0,-32 L 0,-24 L 6,-24
 L 6,-16 L 0,-16 z
" stroke="black" fill="lightgray" stroke-width="0.5"/>
</svg>
