  0
SECTION
  2
BLOCKS
  0
ENDSEC
  0
SECTION
  2
ENTITIES
  0
LINE
  8
0
 10
0
 20
0
 11
6.66667
 21
0
  0
LINE
  8
0
 10
6.66667
 20
0
 11
6.66667
 21
5
  0
LINE
  8
0
 10
6.66667
 20
5
 11
13.3333
 21
5
  0
LINE
  8
0
 10
13.3333
 20
5
 11
13.3333
 21
0
  0
LINE
  8
0
 10
13.3333
 20
0
 11
20
 21
0
  0
LINE
  8
0
 10
20
 20
0
 11
20
 21
200
  0
LINE
  8
0
 10
20
 20
200
 11
13.3333
 21
200
  0
LINE
  8
0
 10
13.3333
 20
200
 11
13.3333
 21
195
  0
LINE
  8
0
 10
13.3333
 20
195
 11
6.66667
 21
195
  0
LINE
  8
0
 10
6.66667
 20
195
 11
6.66667
 21
200
  0
LINE
  8
0
 10
6.66667
 20
200
 11
0
 21
200
  0
LINE
  8
0
 10
0
 20
200
 11
0
 21
184
  0
LINE
  8
0
 10
0
 20
184
 11
6
 21
184
  0
LINE
  8
0
 10
6
 20
184
 11
6
 21
176
  0
LINE
  8
0
 10
6
 20
176
 11
0
 21
176
  0
LINE
  8
0
 10
0
 20
176
 11
0
 21
168
  0
LINE
  8
0
 10
0
 20
168
 11
6
 21
168
  0
LINE
  8
0
 10
6
 20
168
 11
6
 21
160
  0
LINE
  8
0
 10
6
 20
160
 11
0
 21
160
  0
LINE
  8
0
 10
0
 20
160
 11
0
 21
152
  0
LINE
  8
0
 10
0
 20
152
 11
6
 21
152
  0
LINE
  8
0
 10
6
 20
152
 11
6
 21
144
  0
LINE
  8
0
 10
6
 20
144
 11
0
 21
144
  0
LINE
  8
0
 10
0
 20
144
 11
0
 21
136
  0
LINE
  8
0
 10
0
 20
136
 11
6
 21
136
  0
LINE
  8
0
 10
6
 20
136
 11
6
 21
128
  0
LINE
  8
0
 10
6
 20
128
 11
0
 21
128
  0
LINE
  8
0
 10
0
 20
128
 11
0
 21
120
  0
LINE
  8
0
 10
0
 20
120
 11
6
 21
120
  0
LINE
  8
0
 10
6
 20
120
 11
6
 21
112
  0
LINE
  8
0
 10
6
 20
112
 11
0
 21
112
  0
LINE
  8
0
 10
0
 20
112
 11
0
 21
104
  0
LINE
  8
0
 10
0
 20
104
 11
6
 21
104
  0
LINE
  8
0
 10
6
 20
104
 11
6
 21
96
  0
LINE
  8
0
 10
6
 20
96
 11
0
 21
96
  0
LINE
  8
0
 10
0
 20
96
 11
0
 21
88
  0
LINE
  8
0
 10
0
 20
88
 11
6
 21
88
  0
LINE
  8
0
 10
6
 20
88
 11
6
 21
80
  0
LINE
  8
0
 10
6
 20
80
 11
0
 21
80
  0
LINE
  8
0
 10
0
 20
80
 11
0
 21
72
  0
LINE
  8
0
 10
0
 20
72
 11
6
 21
72
  0
LINE
  8
0
 10
6
 20
72
 11
6
 21
64
  0
LINE
  8
0
 10
6
 20
64
 11
0
 21
64
  0
LINE
  8
0
 10
0
 20
64
 11
0
 21
56
  0
LINE
  8
0
 10
0
 20
56
 11
6
 21
56
  0
LINE
  8
0
 10
6
 20
56
 11
6
 21
48
  0
LINE
  8
0
 10
6
 20
48
 11
0
 21
48
  0
LINE
  8
0
 10
0
 20
48
 11
0
 21
40
  0
LINE
  8
0
 10
0
 20
40
 11
6
 21
40
  0
LINE
  8
0
 10
6
 20
40
 11
6
 21
32
  0
LINE
  8
0
 10
6
 20
32
 11
0
 21
32
  0
LINE
  8
0
 10
0
 20
32
 11
0
 21
24
  0
LINE
  8
0
 10
0
 20
24
 11
6
 21
24
  0
LINE
  8
0
 10
6
 20
24
 11
6
 21
16
  0
LINE
  8
0
 10
6
 20
16
 11
0
 21
16
  0
LINE
  8
0
 10
0
 20
16
 11
0
 21
0
  0
ENDSEC
  0
SECTION
  2
OBJECTS
  0
DICTIONARY
  0
ENDSEC
  0
EOF
