solid OpenSCAD_Model
  facet normal 1 -0 0
    outer loop
      vertex 3.38553 185.753 1.76777
      vertex 3.38553 186.618 -1.76777
      vertex 3.38553 186.618 1.76777
    endloop
  endfacet
  facet normal 1 0 0
    outer loop
      vertex 3.38553 186.618 -1.76777
      vertex 3.38553 185.753 1.76777
      vertex 3.38553 185.753 -1.76777
    endloop
  endfacet
  facet normal 1 -0 0
    outer loop
      vertex 3.38553 5.1533 1.76777
      vertex 3.38553 181.526 -1.76777
      vertex 3.38553 181.526 1.76777
    endloop
  endfacet
  facet normal 1 0 0
    outer loop
      vertex 3.38553 181.526 -1.76777
      vertex 3.38553 5.1533 1.76777
      vertex 3.38553 5.1533 -1.76777
    endloop
  endfacet
  facet normal -0 0 1
    outer loop
      vertex 0.15 186.618 1.76777
      vertex 3.38553 185.753 1.76777
      vertex 3.38553 186.618 1.76777
    endloop
  endfacet
  facet normal 0 0 1
    outer loop
      vertex 3.38553 185.753 1.76777
      vertex 0.15 186.618 1.76777
      vertex 3.38553 181.526 1.76777
    endloop
  endfacet
  facet normal 0 0 1
    outer loop
      vertex 0.15 1.91777 1.76777
      vertex 3.38553 181.526 1.76777
      vertex 0.15 186.618 1.76777
    endloop
  endfacet
  facet normal -0 0 1
    outer loop
      vertex 3.38553 181.526 1.76777
      vertex 198.59 21.6178 1.76777
      vertex 3.38553 185.753 1.76777
    endloop
  endfacet
  facet normal 0 0 1
    outer loop
      vertex 198.59 21.6178 1.76777
      vertex 3.38553 181.526 1.76777
      vertex 196.614 19.0514 1.76777
    endloop
  endfacet
  facet normal 0 0 1
    outer loop
      vertex 201.918 21.6178 1.76777
      vertex 199.85 18.3822 1.76777
      vertex 201.918 18.3822 1.76777
    endloop
  endfacet
  facet normal -0 0 1
    outer loop
      vertex 198.59 21.6178 1.76777
      vertex 199.85 18.3822 1.76777
      vertex 201.918 21.6178 1.76777
    endloop
  endfacet
  facet normal -0 0 1
    outer loop
      vertex 196.614 19.0514 1.76777
      vertex 199.85 18.3822 1.76777
      vertex 198.59 21.6178 1.76777
    endloop
  endfacet
  facet normal 0 0 1
    outer loop
      vertex 196.614 5.1533 1.76777
      vertex 199.85 18.3822 1.76777
      vertex 196.614 19.0514 1.76777
    endloop
  endfacet
  facet normal 0 0 1
    outer loop
      vertex 199.85 18.3822 1.76777
      vertex 196.614 5.1533 1.76777
      vertex 199.85 1.91777 1.76777
    endloop
  endfacet
  facet normal 0 0 1
    outer loop
      vertex 196.614 5.1533 1.76777
      vertex 196.314 1.91777 1.76777
      vertex 199.85 1.91777 1.76777
    endloop
  endfacet
  facet normal 0 0 1
    outer loop
      vertex 196.314 1.91777 1.76777
      vertex 193.079 1.91777 1.76777
      vertex 196.314 -3.23553 1.76777
    endloop
  endfacet
  facet normal 0 0 1
    outer loop
      vertex 196.614 5.1533 1.76777
      vertex 193.079 1.91777 1.76777
      vertex 196.314 1.91777 1.76777
    endloop
  endfacet
  facet normal 0 0 1
    outer loop
      vertex 196.614 5.1533 1.76777
      vertex 9.68883 1.91777 1.76777
      vertex 193.079 1.91777 1.76777
    endloop
  endfacet
  facet normal 0 0 1
    outer loop
      vertex 9.68883 1.91777 1.76777
      vertex 6.4533 1.91777 1.76777
      vertex 9.68883 -3.23553 1.76777
    endloop
  endfacet
  facet normal -0 0 1
    outer loop
      vertex 3.38553 5.1533 1.76777
      vertex 9.68883 1.91777 1.76777
      vertex 196.614 5.1533 1.76777
    endloop
  endfacet
  facet normal 0 0 1
    outer loop
      vertex 9.68883 1.91777 1.76777
      vertex 3.38553 5.1533 1.76777
      vertex 6.4533 1.91777 1.76777
    endloop
  endfacet
  facet normal 0 0 1
    outer loop
      vertex 3.38553 5.1533 1.76777
      vertex 0.15 1.91777 1.76777
      vertex 6.4533 1.91777 1.76777
    endloop
  endfacet
  facet normal 0 0 1
    outer loop
      vertex 3.38553 181.526 1.76777
      vertex 0.15 1.91777 1.76777
      vertex 3.38553 5.1533 1.76777
    endloop
  endfacet
  facet normal 0 0 1
    outer loop
      vertex 196.314 -3.23553 1.76777
      vertex 193.079 1.91777 1.76777
      vertex 193.079 -3.23553 1.76777
    endloop
  endfacet
  facet normal 0 0 1
    outer loop
      vertex 9.68883 -3.23553 1.76777
      vertex 6.4533 1.91777 1.76777
      vertex 6.4533 -3.23553 1.76777
    endloop
  endfacet
  facet normal 0 0 -1
    outer loop
      vertex 9.68883 -3.23553 -1.76777
      vertex 6.4533 -3.23553 -1.76777
      vertex 9.68883 1.91777 -1.76777
    endloop
  endfacet
  facet normal 0 0 -1
    outer loop
      vertex 196.314 -3.23553 -1.76777
      vertex 193.079 -3.23553 -1.76777
      vertex 196.314 1.91777 -1.76777
    endloop
  endfacet
  facet normal 0 0 -1
    outer loop
      vertex 196.614 5.1533 -1.76777
      vertex 199.85 18.3822 -1.76777
      vertex 199.85 1.91777 -1.76777
    endloop
  endfacet
  facet normal -0 0 -1
    outer loop
      vertex 199.85 18.3822 -1.76777
      vertex 196.614 5.1533 -1.76777
      vertex 196.614 19.0514 -1.76777
    endloop
  endfacet
  facet normal 0 0 -1
    outer loop
      vertex 196.314 1.91777 -1.76777
      vertex 196.614 5.1533 -1.76777
      vertex 199.85 1.91777 -1.76777
    endloop
  endfacet
  facet normal 0 0 -1
    outer loop
      vertex 193.079 1.91777 -1.76777
      vertex 196.314 1.91777 -1.76777
      vertex 193.079 -3.23553 -1.76777
    endloop
  endfacet
  facet normal 0 0 -1
    outer loop
      vertex 196.314 1.91777 -1.76777
      vertex 193.079 1.91777 -1.76777
      vertex 196.614 5.1533 -1.76777
    endloop
  endfacet
  facet normal 0 0 -1
    outer loop
      vertex 9.68883 1.91777 -1.76777
      vertex 196.614 5.1533 -1.76777
      vertex 193.079 1.91777 -1.76777
    endloop
  endfacet
  facet normal 0 0 -1
    outer loop
      vertex 6.4533 1.91777 -1.76777
      vertex 9.68883 1.91777 -1.76777
      vertex 6.4533 -3.23553 -1.76777
    endloop
  endfacet
  facet normal 0 0 -1
    outer loop
      vertex 3.38553 5.1533 -1.76777
      vertex 9.68883 1.91777 -1.76777
      vertex 6.4533 1.91777 -1.76777
    endloop
  endfacet
  facet normal 0 0 -1
    outer loop
      vertex 9.68883 1.91777 -1.76777
      vertex 3.38553 5.1533 -1.76777
      vertex 196.614 5.1533 -1.76777
    endloop
  endfacet
  facet normal 0 0 -1
    outer loop
      vertex 0.15 1.91777 -1.76777
      vertex 3.38553 181.526 -1.76777
      vertex 3.38553 5.1533 -1.76777
    endloop
  endfacet
  facet normal 0 0 -1
    outer loop
      vertex 3.38553 181.526 -1.76777
      vertex 0.15 186.618 -1.76777
      vertex 3.38553 185.753 -1.76777
    endloop
  endfacet
  facet normal 0 0 -1
    outer loop
      vertex 0.15 1.91777 -1.76777
      vertex 3.38553 5.1533 -1.76777
      vertex 6.4533 1.91777 -1.76777
    endloop
  endfacet
  facet normal -0 0 -1
    outer loop
      vertex 3.38553 181.526 -1.76777
      vertex 0.15 1.91777 -1.76777
      vertex 0.15 186.618 -1.76777
    endloop
  endfacet
  facet normal 0 0 -1
    outer loop
      vertex 3.38553 185.753 -1.76777
      vertex 0.15 186.618 -1.76777
      vertex 3.38553 186.618 -1.76777
    endloop
  endfacet
  facet normal 0 0 -1
    outer loop
      vertex 199.85 18.3822 -1.76777
      vertex 201.918 21.6178 -1.76777
      vertex 201.918 18.3822 -1.76777
    endloop
  endfacet
  facet normal -0 0 -1
    outer loop
      vertex 201.918 21.6178 -1.76777
      vertex 199.85 18.3822 -1.76777
      vertex 198.59 21.6178 -1.76777
    endloop
  endfacet
  facet normal 0 0 -1
    outer loop
      vertex 199.85 18.3822 -1.76777
      vertex 196.614 19.0514 -1.76777
      vertex 198.59 21.6178 -1.76777
    endloop
  endfacet
  facet normal 0 0 -1
    outer loop
      vertex 3.38553 181.526 -1.76777
      vertex 198.59 21.6178 -1.76777
      vertex 196.614 19.0514 -1.76777
    endloop
  endfacet
  facet normal 0 0 -1
    outer loop
      vertex 198.59 21.6178 -1.76777
      vertex 3.38553 181.526 -1.76777
      vertex 3.38553 185.753 -1.76777
    endloop
  endfacet
  facet normal -1 0 0
    outer loop
      vertex 0.15 1.91777 -1.76777
      vertex 0.15 186.618 1.76777
      vertex 0.15 186.618 -1.76777
    endloop
  endfacet
  facet normal -1 -0 0
    outer loop
      vertex 0.15 186.618 1.76777
      vertex 0.15 1.91777 -1.76777
      vertex 0.15 1.91777 1.76777
    endloop
  endfacet
  facet normal 0 1 -0
    outer loop
      vertex 3.38553 186.618 -1.76777
      vertex 0.15 186.618 1.76777
      vertex 3.38553 186.618 1.76777
    endloop
  endfacet
  facet normal 0 1 0
    outer loop
      vertex 0.15 186.618 1.76777
      vertex 3.38553 186.618 -1.76777
      vertex 0.15 186.618 -1.76777
    endloop
  endfacet
  facet normal 0 -1 0
    outer loop
      vertex 196.314 1.91777 -1.76777
      vertex 199.85 1.91777 1.76777
      vertex 196.314 1.91777 1.76777
    endloop
  endfacet
  facet normal 0 -1 -0
    outer loop
      vertex 199.85 1.91777 1.76777
      vertex 196.314 1.91777 -1.76777
      vertex 199.85 1.91777 -1.76777
    endloop
  endfacet
  facet normal 0 -1 0
    outer loop
      vertex 0.15 1.91777 -1.76777
      vertex 6.4533 1.91777 1.76777
      vertex 0.15 1.91777 1.76777
    endloop
  endfacet
  facet normal 0 -1 -0
    outer loop
      vertex 6.4533 1.91777 1.76777
      vertex 0.15 1.91777 -1.76777
      vertex 6.4533 1.91777 -1.76777
    endloop
  endfacet
  facet normal 0 -1 0
    outer loop
      vertex 9.68883 1.91777 -1.76777
      vertex 193.079 1.91777 1.76777
      vertex 9.68883 1.91777 1.76777
    endloop
  endfacet
  facet normal 0 -1 -0
    outer loop
      vertex 193.079 1.91777 1.76777
      vertex 9.68883 1.91777 -1.76777
      vertex 193.079 1.91777 -1.76777
    endloop
  endfacet
  facet normal 1 -0 0
    outer loop
      vertex 199.85 1.91777 1.76777
      vertex 199.85 18.3822 -1.76777
      vertex 199.85 18.3822 1.76777
    endloop
  endfacet
  facet normal 1 0 0
    outer loop
      vertex 199.85 18.3822 -1.76777
      vertex 199.85 1.91777 1.76777
      vertex 199.85 1.91777 -1.76777
    endloop
  endfacet
  facet normal 0 1 -0
    outer loop
      vertex 196.614 5.1533 -1.76777
      vertex 3.38553 5.1533 1.76777
      vertex 196.614 5.1533 1.76777
    endloop
  endfacet
  facet normal 0 1 0
    outer loop
      vertex 3.38553 5.1533 1.76777
      vertex 196.614 5.1533 -1.76777
      vertex 3.38553 5.1533 -1.76777
    endloop
  endfacet
  facet normal -0.64357 -0.765387 0
    outer loop
      vertex 3.38553 181.526 -1.76777
      vertex 196.614 19.0514 1.76777
      vertex 3.38553 181.526 1.76777
    endloop
  endfacet
  facet normal -0.64357 -0.765387 -0
    outer loop
      vertex 196.614 19.0514 1.76777
      vertex 3.38553 181.526 -1.76777
      vertex 196.614 19.0514 -1.76777
    endloop
  endfacet
  facet normal 0.643568 0.765389 -0
    outer loop
      vertex 198.59 21.6178 -1.76777
      vertex 3.38553 185.753 1.76777
      vertex 198.59 21.6178 1.76777
    endloop
  endfacet
  facet normal 0.643568 0.765389 0
    outer loop
      vertex 3.38553 185.753 1.76777
      vertex 198.59 21.6178 -1.76777
      vertex 3.38553 185.753 -1.76777
    endloop
  endfacet
  facet normal 1 -0 0
    outer loop
      vertex 196.314 -3.23553 1.76777
      vertex 196.314 1.91777 -1.76777
      vertex 196.314 1.91777 1.76777
    endloop
  endfacet
  facet normal 1 0 0
    outer loop
      vertex 196.314 1.91777 -1.76777
      vertex 196.314 -3.23553 1.76777
      vertex 196.314 -3.23553 -1.76777
    endloop
  endfacet
  facet normal 0 -1 0
    outer loop
      vertex 193.079 -3.23553 -1.76777
      vertex 196.314 -3.23553 1.76777
      vertex 193.079 -3.23553 1.76777
    endloop
  endfacet
  facet normal 0 -1 -0
    outer loop
      vertex 196.314 -3.23553 1.76777
      vertex 193.079 -3.23553 -1.76777
      vertex 196.314 -3.23553 -1.76777
    endloop
  endfacet
  facet normal -1 0 0
    outer loop
      vertex 193.079 -3.23553 -1.76777
      vertex 193.079 1.91777 1.76777
      vertex 193.079 1.91777 -1.76777
    endloop
  endfacet
  facet normal -1 -0 0
    outer loop
      vertex 193.079 1.91777 1.76777
      vertex 193.079 -3.23553 -1.76777
      vertex 193.079 -3.23553 1.76777
    endloop
  endfacet
  facet normal -1 0 0
    outer loop
      vertex 6.4533 -3.23553 -1.76777
      vertex 6.4533 1.91777 1.76777
      vertex 6.4533 1.91777 -1.76777
    endloop
  endfacet
  facet normal -1 -0 0
    outer loop
      vertex 6.4533 1.91777 1.76777
      vertex 6.4533 -3.23553 -1.76777
      vertex 6.4533 -3.23553 1.76777
    endloop
  endfacet
  facet normal 1 -0 0
    outer loop
      vertex 9.68883 -3.23553 1.76777
      vertex 9.68883 1.91777 -1.76777
      vertex 9.68883 1.91777 1.76777
    endloop
  endfacet
  facet normal 1 0 0
    outer loop
      vertex 9.68883 1.91777 -1.76777
      vertex 9.68883 -3.23553 1.76777
      vertex 9.68883 -3.23553 -1.76777
    endloop
  endfacet
  facet normal 0 -1 0
    outer loop
      vertex 6.4533 -3.23553 -1.76777
      vertex 9.68883 -3.23553 1.76777
      vertex 6.4533 -3.23553 1.76777
    endloop
  endfacet
  facet normal 0 -1 -0
    outer loop
      vertex 9.68883 -3.23553 1.76777
      vertex 6.4533 -3.23553 -1.76777
      vertex 9.68883 -3.23553 -1.76777
    endloop
  endfacet
  facet normal -1 0 0
    outer loop
      vertex 196.614 5.1533 -1.76777
      vertex 196.614 19.0514 1.76777
      vertex 196.614 19.0514 -1.76777
    endloop
  endfacet
  facet normal -1 -0 0
    outer loop
      vertex 196.614 19.0514 1.76777
      vertex 196.614 5.1533 -1.76777
      vertex 196.614 5.1533 1.76777
    endloop
  endfacet
  facet normal 1 -0 0
    outer loop
      vertex 201.918 18.3822 1.76777
      vertex 201.918 21.6178 -1.76777
      vertex 201.918 21.6178 1.76777
    endloop
  endfacet
  facet normal 1 0 0
    outer loop
      vertex 201.918 21.6178 -1.76777
      vertex 201.918 18.3822 1.76777
      vertex 201.918 18.3822 -1.76777
    endloop
  endfacet
  facet normal 0 1 -0
    outer loop
      vertex 201.918 21.6178 -1.76777
      vertex 198.59 21.6178 1.76777
      vertex 201.918 21.6178 1.76777
    endloop
  endfacet
  facet normal 0 1 0
    outer loop
      vertex 198.59 21.6178 1.76777
      vertex 201.918 21.6178 -1.76777
      vertex 198.59 21.6178 -1.76777
    endloop
  endfacet
  facet normal 0 -1 0
    outer loop
      vertex 199.85 18.3822 -1.76777
      vertex 201.918 18.3822 1.76777
      vertex 199.85 18.3822 1.76777
    endloop
  endfacet
  facet normal 0 -1 -0
    outer loop
      vertex 201.918 18.3822 1.76777
      vertex 199.85 18.3822 -1.76777
      vertex 201.918 18.3822 -1.76777
    endloop
  endfacet
endsolid OpenSCAD_Model
