solid OpenSCAD_Model
  facet normal 1 0 0
    outer loop
      vertex 3.1 16.9 4.55
      vertex 3.1 0 4.55
      vertex 3.1 16.9 3
    endloop
  endfacet
  facet normal 1 0 0
    outer loop
      vertex 3.1 31.9 4.55
      vertex 3.1 22 4.55
      vertex 3.1 31.9 3
    endloop
  endfacet
  facet normal 1 -0 0
    outer loop
      vertex 3.1 31.9 3
      vertex 3.1 37 0
      vertex 3.1 37 3
    endloop
  endfacet
  facet normal 1 0 0
    outer loop
      vertex 3.1 22 3
      vertex 3.1 31.9 3
      vertex 3.1 22 4.55
    endloop
  endfacet
  facet normal 1 0 0
    outer loop
      vertex 3.1 31.9 3
      vertex 3.1 22 3
      vertex 3.1 37 0
    endloop
  endfacet
  facet normal 1 -0 0
    outer loop
      vertex 3.1 16.9 3
      vertex 3.1 37 0
      vertex 3.1 22 3
    endloop
  endfacet
  facet normal 1 0 0
    outer loop
      vertex 3.1 0 0
      vertex 3.1 16.9 3
      vertex 3.1 0 4.55
    endloop
  endfacet
  facet normal 1 0 0
    outer loop
      vertex 3.1 16.9 3
      vertex 3.1 0 0
      vertex 3.1 37 0
    endloop
  endfacet
  facet normal -0 0 1
    outer loop
      vertex 0 37 4.55
      vertex 0.00135899 0 4.55
      vertex 0.00135899 37 4.55
    endloop
  endfacet
  facet normal 0 0 1
    outer loop
      vertex 0.00135899 0 4.55
      vertex 0 37 4.55
      vertex 0 0 4.55
    endloop
  endfacet
  facet normal 0 0 -1
    outer loop
      vertex 0 0 0
      vertex 3.1 37 0
      vertex 3.1 0 0
    endloop
  endfacet
  facet normal -0 0 -1
    outer loop
      vertex 3.1 37 0
      vertex 0 0 0
      vertex 0 37 0
    endloop
  endfacet
  facet normal -1 0 0
    outer loop
      vertex 0 0 0
      vertex 0 37 4.55
      vertex 0 37 0
    endloop
  endfacet
  facet normal -1 -0 0
    outer loop
      vertex 0 37 4.55
      vertex 0 0 0
      vertex 0 0 4.55
    endloop
  endfacet
  facet normal 0 1 0
    outer loop
      vertex 3.1 37 3
      vertex 3.1 37 0
      vertex 1.55 37 3
    endloop
  endfacet
  facet normal 0 1 0
    outer loop
      vertex 1.55 37 3.00102
      vertex 1.55 37 3
      vertex 1.51754 37 3.00034
    endloop
  endfacet
  facet normal 0 1 -0
    outer loop
      vertex 0.00135899 37 4.48509
      vertex 0 37 4.55
      vertex 0.00135899 37 4.55
    endloop
  endfacet
  facet normal 0 1 0
    outer loop
      vertex 0 37 0
      vertex 1.55 37 3
      vertex 3.1 37 0
    endloop
  endfacet
  facet normal 0 1 0
    outer loop
      vertex 1.55 37 3
      vertex 0 37 0
      vertex 1.51754 37 3.00034
    endloop
  endfacet
  facet normal 0 1 0
    outer loop
      vertex 1.51754 37 3.00034
      vertex 0 37 0
      vertex 1.38798 37 3.00849
    endloop
  endfacet
  facet normal 0 1 0
    outer loop
      vertex 1.38798 37 3.00849
      vertex 0 37 0
      vertex 1.25956 37 3.02745
    endloop
  endfacet
  facet normal 0 1 0
    outer loop
      vertex 1.25956 37 3.02745
      vertex 0 37 0
      vertex 1.13317 37 3.0571
    endloop
  endfacet
  facet normal 0 1 0
    outer loop
      vertex 1.13317 37 3.0571
      vertex 0 37 0
      vertex 1.00971 37 3.09721
    endloop
  endfacet
  facet normal 0 1 0
    outer loop
      vertex 1.00971 37 3.09721
      vertex 0 37 0
      vertex 0.890041 37 3.14752
    endloop
  endfacet
  facet normal 0 1 0
    outer loop
      vertex 0.890041 37 3.14752
      vertex 0 37 0
      vertex 0.775 37 3.20766
    endloop
  endfacet
  facet normal 0 1 0
    outer loop
      vertex 0.775 37 3.20766
      vertex 0 37 0
      vertex 0.665394 37 3.27722
    endloop
  endfacet
  facet normal 0 1 0
    outer loop
      vertex 0.665394 37 3.27722
      vertex 0 37 0
      vertex 0.561993 37 3.3557
    endloop
  endfacet
  facet normal 0 1 0
    outer loop
      vertex 0.561993 37 3.3557
      vertex 0 37 0
      vertex 0.465522 37 3.44257
    endloop
  endfacet
  facet normal 0 1 0
    outer loop
      vertex 0.465522 37 3.44257
      vertex 0 37 0
      vertex 0.376657 37 3.5372
    endloop
  endfacet
  facet normal 0 1 0
    outer loop
      vertex 0.00135899 37 4.48509
      vertex 0 37 0
      vertex 0 37 4.55
    endloop
  endfacet
  facet normal 0 1 0
    outer loop
      vertex 0.0122213 37 4.35573
      vertex 0 37 0
      vertex 0.00135899 37 4.48509
    endloop
  endfacet
  facet normal 0 1 0
    outer loop
      vertex 0.0338707 37 4.22774
      vertex 0 37 0
      vertex 0.0122213 37 4.35573
    endloop
  endfacet
  facet normal 0 1 0
    outer loop
      vertex 0.0661545 37 4.102
      vertex 0 37 0
      vertex 0.0338707 37 4.22774
    endloop
  endfacet
  facet normal 0 1 0
    outer loop
      vertex 0.108846 37 3.97941
      vertex 0 37 0
      vertex 0.0661545 37 4.102
    endloop
  endfacet
  facet normal 0 1 0
    outer loop
      vertex 0.161646 37 3.86082
      vertex 0 37 0
      vertex 0.108846 37 3.97941
    endloop
  endfacet
  facet normal 0 1 0
    outer loop
      vertex 0.224185 37 3.74706
      vertex 0 37 0
      vertex 0.161646 37 3.86082
    endloop
  endfacet
  facet normal 0 1 0
    outer loop
      vertex 0.296023 37 3.63893
      vertex 0 37 0
      vertex 0.224185 37 3.74706
    endloop
  endfacet
  facet normal 0 1 0
    outer loop
      vertex 0.376657 37 3.5372
      vertex 0 37 0
      vertex 0.296023 37 3.63893
    endloop
  endfacet
  facet normal 0 -1 0
    outer loop
      vertex 0 0 4.55
      vertex 0.00135899 0 4.48509
      vertex 0.00135899 0 4.55
    endloop
  endfacet
  facet normal 0 -1 -0
    outer loop
      vertex 1.38798 0 3.00849
      vertex 0 0 0
      vertex 1.51754 0 3.00034
    endloop
  endfacet
  facet normal 0 -1 -0
    outer loop
      vertex 1.25956 0 3.02745
      vertex 0 0 0
      vertex 1.38798 0 3.00849
    endloop
  endfacet
  facet normal 0 -1 -0
    outer loop
      vertex 1.13317 0 3.0571
      vertex 0 0 0
      vertex 1.25956 0 3.02745
    endloop
  endfacet
  facet normal 0 -1 -0
    outer loop
      vertex 1.00971 0 3.09721
      vertex 0 0 0
      vertex 1.13317 0 3.0571
    endloop
  endfacet
  facet normal 0 -1 -0
    outer loop
      vertex 0.890041 0 3.14752
      vertex 0 0 0
      vertex 1.00971 0 3.09721
    endloop
  endfacet
  facet normal 0 -1 -0
    outer loop
      vertex 0.775 0 3.20766
      vertex 0 0 0
      vertex 0.890041 0 3.14752
    endloop
  endfacet
  facet normal 0 -1 -0
    outer loop
      vertex 0.665394 0 3.27722
      vertex 0 0 0
      vertex 0.775 0 3.20766
    endloop
  endfacet
  facet normal 0 -1 -0
    outer loop
      vertex 0.561993 0 3.3557
      vertex 0 0 0
      vertex 0.665394 0 3.27722
    endloop
  endfacet
  facet normal 0 -1 -0
    outer loop
      vertex 0.465522 0 3.44257
      vertex 0 0 0
      vertex 0.561993 0 3.3557
    endloop
  endfacet
  facet normal 0 -1 -0
    outer loop
      vertex 0.376657 0 3.5372
      vertex 0 0 0
      vertex 0.465522 0 3.44257
    endloop
  endfacet
  facet normal 0 -1 -0
    outer loop
      vertex 0.296023 0 3.63893
      vertex 0 0 0
      vertex 0.376657 0 3.5372
    endloop
  endfacet
  facet normal 0 -1 -0
    outer loop
      vertex 0.224185 0 3.74706
      vertex 0 0 0
      vertex 0.296023 0 3.63893
    endloop
  endfacet
  facet normal 0 -1 -0
    outer loop
      vertex 0.161646 0 3.86082
      vertex 0 0 0
      vertex 0.224185 0 3.74706
    endloop
  endfacet
  facet normal 0 -1 -0
    outer loop
      vertex 0.108846 0 3.97941
      vertex 0 0 0
      vertex 0.161646 0 3.86082
    endloop
  endfacet
  facet normal 0 -1 -0
    outer loop
      vertex 0.0661545 0 4.102
      vertex 0 0 0
      vertex 0.108846 0 3.97941
    endloop
  endfacet
  facet normal 0 -1 -0
    outer loop
      vertex 0.0338707 0 4.22774
      vertex 0 0 0
      vertex 0.0661545 0 4.102
    endloop
  endfacet
  facet normal 0 -1 -0
    outer loop
      vertex 0.0122213 0 4.35573
      vertex 0 0 0
      vertex 0.0338707 0 4.22774
    endloop
  endfacet
  facet normal 0 -1 -0
    outer loop
      vertex 0.00135899 0 4.48509
      vertex 0 0 0
      vertex 0.0122213 0 4.35573
    endloop
  endfacet
  facet normal 0 -1 0
    outer loop
      vertex 0 0 0
      vertex 0.00135899 0 4.48509
      vertex 0 0 4.55
    endloop
  endfacet
  facet normal 0 -1 0
    outer loop
      vertex 3.1 0 0
      vertex 1.51754 0 3.00034
      vertex 0 0 0
    endloop
  endfacet
  facet normal 0 -1 0
    outer loop
      vertex 1.51754 0 3.00034
      vertex 3.1 0 0
      vertex 1.64732 0 3.00306
    endloop
  endfacet
  facet normal 0 -1 0
    outer loop
      vertex 1.64732 0 3.00306
      vertex 3.1 0 0
      vertex 1.77643 0 3.01663
    endloop
  endfacet
  facet normal 0 -1 0
    outer loop
      vertex 1.77643 0 3.01663
      vertex 3.1 0 0
      vertex 1.90394 0 3.04095
    endloop
  endfacet
  facet normal 0 -1 0
    outer loop
      vertex 1.90394 0 3.04095
      vertex 3.1 0 0
      vertex 2.02898 0 3.07586
    endloop
  endfacet
  facet normal 0 -1 0
    outer loop
      vertex 2.02898 0 3.07586
      vertex 3.1 0 0
      vertex 2.15065 0 3.12111
    endloop
  endfacet
  facet normal 0 -1 0
    outer loop
      vertex 2.15065 0 3.12111
      vertex 3.1 0 0
      vertex 2.26811 0 3.17638
    endloop
  endfacet
  facet normal 0 -1 0
    outer loop
      vertex 2.26811 0 3.17638
      vertex 3.1 0 0
      vertex 2.38053 0 3.24129
    endloop
  endfacet
  facet normal 0 -1 0
    outer loop
      vertex 2.38053 0 3.24129
      vertex 3.1 0 0
      vertex 2.48713 0 3.31538
    endloop
  endfacet
  facet normal 0 -1 0
    outer loop
      vertex 2.48713 0 3.31538
      vertex 3.1 0 0
      vertex 2.58715 0 3.39812
    endloop
  endfacet
  facet normal 0 -1 0
    outer loop
      vertex 2.58715 0 3.39812
      vertex 3.1 0 0
      vertex 2.6799 0 3.48895
    endloop
  endfacet
  facet normal 0 -1 0
    outer loop
      vertex 3.09456 0 4.4203
      vertex 3.1 0 0
      vertex 3.1 0 4.55
    endloop
  endfacet
  facet normal 0 -1 0
    outer loop
      vertex 3.07829 0 4.29151
      vertex 3.1 0 0
      vertex 3.09456 0 4.4203
    endloop
  endfacet
  facet normal 0 -1 0
    outer loop
      vertex 3.0513 0 4.16453
      vertex 3.1 0 0
      vertex 3.07829 0 4.29151
    endloop
  endfacet
  facet normal 0 -1 0
    outer loop
      vertex 3.01378 0 4.04026
      vertex 3.1 0 0
      vertex 3.0513 0 4.16453
    endloop
  endfacet
  facet normal 0 -1 0
    outer loop
      vertex 2.96599 0 3.91956
      vertex 3.1 0 0
      vertex 3.01378 0 4.04026
    endloop
  endfacet
  facet normal 0 -1 0
    outer loop
      vertex 2.90827 0 3.80328
      vertex 3.1 0 0
      vertex 2.96599 0 3.91956
    endloop
  endfacet
  facet normal 0 -1 0
    outer loop
      vertex 2.84103 0 3.69224
      vertex 3.1 0 0
      vertex 2.90827 0 3.80328
    endloop
  endfacet
  facet normal 0 -1 0
    outer loop
      vertex 2.76472 0 3.58722
      vertex 3.1 0 0
      vertex 2.84103 0 3.69224
    endloop
  endfacet
  facet normal 0 -1 0
    outer loop
      vertex 2.6799 0 3.48895
      vertex 3.1 0 0
      vertex 2.76472 0 3.58722
    endloop
  endfacet
  facet normal 0.0627811 0 0.998027
    outer loop
      vertex 1.38798 37 3.00849
      vertex 1.51754 0 3.00034
      vertex 1.51754 37 3.00034
    endloop
  endfacet
  facet normal 0.0627811 0 0.998027
    outer loop
      vertex 1.51754 0 3.00034
      vertex 1.38798 37 3.00849
      vertex 1.38798 0 3.00849
    endloop
  endfacet
  facet normal -0.348581 0 0.937279
    outer loop
      vertex 2.02898 16.9 3.07586
      vertex 2.15065 0 3.12111
      vertex 2.15065 16.9 3.12111
    endloop
  endfacet
  facet normal -0.348581 0 0.937279
    outer loop
      vertex 2.15065 0 3.12111
      vertex 2.02898 16.9 3.07586
      vertex 2.02898 0 3.07586
    endloop
  endfacet
  facet normal -0.348581 0 0.937279
    outer loop
      vertex 2.02898 31.9 3.07586
      vertex 2.15065 22 3.12111
      vertex 2.15065 31.9 3.12111
    endloop
  endfacet
  facet normal -0.348581 0 0.937279
    outer loop
      vertex 2.15065 22 3.12111
      vertex 2.02898 31.9 3.07586
      vertex 2.02898 22 3.07586
    endloop
  endfacet
  facet normal 0.87631 -0 0.481747
    outer loop
      vertex 0.161646 0 3.86082
      vertex 0.224185 37 3.74706
      vertex 0.161646 37 3.86082
    endloop
  endfacet
  facet normal 0.87631 0 0.481747
    outer loop
      vertex 0.224185 37 3.74706
      vertex 0.161646 0 3.86082
      vertex 0.224185 0 3.74706
    endloop
  endfacet
  facet normal 0.604572 0 0.796551
    outer loop
      vertex 0.561993 37 3.3557
      vertex 0.665394 0 3.27722
      vertex 0.665394 37 3.27722
    endloop
  endfacet
  facet normal 0.604572 0 0.796551
    outer loop
      vertex 0.665394 0 3.27722
      vertex 0.561993 37 3.3557
      vertex 0.561993 0 3.3557
    endloop
  endfacet
  facet normal -0.957318 0 0.289037
    outer loop
      vertex 3.01378 0 4.04026
      vertex 3.0513 16.9 4.16453
      vertex 3.01378 16.9 4.04026
    endloop
  endfacet
  facet normal -0.957318 0 0.289037
    outer loop
      vertex 3.0513 16.9 4.16453
      vertex 3.01378 0 4.04026
      vertex 3.0513 0 4.16453
    endloop
  endfacet
  facet normal -0.957318 0 0.289037
    outer loop
      vertex 3.01378 22 4.04026
      vertex 3.0513 31.9 4.16453
      vertex 3.01378 31.9 4.04026
    endloop
  endfacet
  facet normal -0.957318 0 0.289037
    outer loop
      vertex 3.0513 31.9 4.16453
      vertex 3.01378 22 4.04026
      vertex 3.0513 22 4.16453
    endloop
  endfacet
  facet normal 0.228391 0 0.973569
    outer loop
      vertex 1.13317 37 3.0571
      vertex 1.25956 0 3.02745
      vertex 1.25956 37 3.02745
    endloop
  endfacet
  facet normal 0.228391 0 0.973569
    outer loop
      vertex 1.25956 0 3.02745
      vertex 1.13317 37 3.0571
      vertex 1.13317 0 3.0571
    endloop
  endfacet
  facet normal 1 -0 0
    outer loop
      vertex 0.00135899 0 4.55
      vertex 0.00135899 37 4.48509
      vertex 0.00135899 37 4.55
    endloop
  endfacet
  facet normal 1 0 0
    outer loop
      vertex 0.00135899 37 4.48509
      vertex 0.00135899 0 4.55
      vertex 0.00135899 0 4.48509
    endloop
  endfacet
  facet normal -0.500025 0 0.866011
    outer loop
      vertex 2.26811 16.9 3.17638
      vertex 2.38053 0 3.24129
      vertex 2.38053 16.9 3.24129
    endloop
  endfacet
  facet normal -0.500025 0 0.866011
    outer loop
      vertex 2.38053 0 3.24129
      vertex 2.26811 16.9 3.17638
      vertex 2.26811 0 3.17638
    endloop
  endfacet
  facet normal -0.500025 0 0.866011
    outer loop
      vertex 2.26811 31.9 3.17638
      vertex 2.38053 22 3.24129
      vertex 2.38053 31.9 3.24129
    endloop
  endfacet
  facet normal -0.500025 0 0.866011
    outer loop
      vertex 2.38053 22 3.24129
      vertex 2.26811 31.9 3.17638
      vertex 2.26811 22 3.17638
    endloop
  endfacet
  facet normal -0.992115 0 0.125334
    outer loop
      vertex 3.07829 0 4.29151
      vertex 3.09456 16.9 4.4203
      vertex 3.07829 16.9 4.29151
    endloop
  endfacet
  facet normal -0.992115 0 0.125334
    outer loop
      vertex 3.09456 16.9 4.4203
      vertex 3.07829 0 4.29151
      vertex 3.09456 0 4.4203
    endloop
  endfacet
  facet normal -0.992115 0 0.125334
    outer loop
      vertex 3.07829 22 4.29151
      vertex 3.09456 31.9 4.4203
      vertex 3.07829 31.9 4.29151
    endloop
  endfacet
  facet normal -0.992115 0 0.125334
    outer loop
      vertex 3.09456 31.9 4.4203
      vertex 3.07829 22 4.29151
      vertex 3.09456 22 4.4203
    endloop
  endfacet
  facet normal -0.999122 0 0.0419061
    outer loop
      vertex 3.09456 0 4.4203
      vertex 3.1 16.9 4.55
      vertex 3.09456 16.9 4.4203
    endloop
  endfacet
  facet normal -0.999122 0 0.0419061
    outer loop
      vertex 3.1 16.9 4.55
      vertex 3.09456 0 4.4203
      vertex 3.1 0 4.55
    endloop
  endfacet
  facet normal -0.999122 0 0.0419061
    outer loop
      vertex 3.09456 22 4.4203
      vertex 3.1 31.9 4.55
      vertex 3.09456 31.9 4.4203
    endloop
  endfacet
  facet normal -0.999122 0 0.0419061
    outer loop
      vertex 3.1 31.9 4.55
      vertex 3.09456 22 4.4203
      vertex 3.1 22 4.55
    endloop
  endfacet
  facet normal -0.978148 0 0.207909
    outer loop
      vertex 3.0513 0 4.16453
      vertex 3.07829 16.9 4.29151
      vertex 3.0513 16.9 4.16453
    endloop
  endfacet
  facet normal -0.978148 0 0.207909
    outer loop
      vertex 3.07829 16.9 4.29151
      vertex 3.0513 0 4.16453
      vertex 3.07829 0 4.29151
    endloop
  endfacet
  facet normal -0.978148 0 0.207909
    outer loop
      vertex 3.0513 22 4.16453
      vertex 3.07829 31.9 4.29151
      vertex 3.0513 31.9 4.16453
    endloop
  endfacet
  facet normal -0.978148 0 0.207909
    outer loop
      vertex 3.07829 31.9 4.29151
      vertex 3.0513 22 4.16453
      vertex 3.07829 22 4.29151
    endloop
  endfacet
  facet normal 0.387553 0 0.921847
    outer loop
      vertex 0.890041 37 3.14752
      vertex 1.00971 0 3.09721
      vertex 1.00971 37 3.09721
    endloop
  endfacet
  facet normal 0.387553 0 0.921847
    outer loop
      vertex 1.00971 0 3.09721
      vertex 0.890041 37 3.14752
      vertex 0.890041 0 3.14752
    endloop
  endfacet
  facet normal -0.425764 0 0.904834
    outer loop
      vertex 2.15065 16.9 3.12111
      vertex 2.26811 0 3.17638
      vertex 2.26811 16.9 3.17638
    endloop
  endfacet
  facet normal -0.425764 0 0.904834
    outer loop
      vertex 2.26811 0 3.17638
      vertex 2.15065 16.9 3.12111
      vertex 2.15065 0 3.12111
    endloop
  endfacet
  facet normal -0.425764 0 0.904834
    outer loop
      vertex 2.15065 31.9 3.12111
      vertex 2.26811 22 3.17638
      vertex 2.26811 31.9 3.17638
    endloop
  endfacet
  facet normal -0.425764 0 0.904834
    outer loop
      vertex 2.26811 22 3.17638
      vertex 2.15065 31.9 3.12111
      vertex 2.15065 22 3.12111
    endloop
  endfacet
  facet normal 0.535837 0 0.844321
    outer loop
      vertex 0.665394 37 3.27722
      vertex 0.775 0 3.20766
      vertex 0.775 37 3.20766
    endloop
  endfacet
  facet normal 0.535837 0 0.844321
    outer loop
      vertex 0.775 0 3.20766
      vertex 0.665394 37 3.27722
      vertex 0.665394 0 3.27722
    endloop
  endfacet
  facet normal -0.895718 0 0.444623
    outer loop
      vertex 2.90827 0 3.80328
      vertex 2.96599 16.9 3.91956
      vertex 2.90827 16.9 3.80328
    endloop
  endfacet
  facet normal -0.895718 0 0.444623
    outer loop
      vertex 2.96599 16.9 3.91956
      vertex 2.90827 0 3.80328
      vertex 2.96599 0 3.91956
    endloop
  endfacet
  facet normal -0.895718 0 0.444623
    outer loop
      vertex 2.90827 22 3.80328
      vertex 2.96599 31.9 3.91956
      vertex 2.90827 31.9 3.80328
    endloop
  endfacet
  facet normal -0.895718 0 0.444623
    outer loop
      vertex 2.96599 31.9 3.91956
      vertex 2.90827 22 3.80328
      vertex 2.96599 22 3.91956
    endloop
  endfacet
  facet normal -0.808986 0 0.587828
    outer loop
      vertex 2.76472 0 3.58722
      vertex 2.84103 16.9 3.69224
      vertex 2.76472 16.9 3.58722
    endloop
  endfacet
  facet normal -0.808986 0 0.587828
    outer loop
      vertex 2.84103 16.9 3.69224
      vertex 2.76472 0 3.58722
      vertex 2.84103 0 3.69224
    endloop
  endfacet
  facet normal -0.808986 0 0.587828
    outer loop
      vertex 2.76472 22 3.58722
      vertex 2.84103 31.9 3.69224
      vertex 2.76472 31.9 3.58722
    endloop
  endfacet
  facet normal -0.808986 0 0.587828
    outer loop
      vertex 2.84103 31.9 3.69224
      vertex 2.76472 22 3.58722
      vertex 2.84103 22 3.69224
    endloop
  endfacet
  facet normal 0.944374 -0 0.328875
    outer loop
      vertex 0.0661545 0 4.102
      vertex 0.108846 37 3.97941
      vertex 0.0661545 37 4.102
    endloop
  endfacet
  facet normal 0.944374 0 0.328875
    outer loop
      vertex 0.108846 37 3.97941
      vertex 0.0661545 0 4.102
      vertex 0.108846 0 3.97941
    endloop
  endfacet
  facet normal 0.783679 -0 0.621166
    outer loop
      vertex 0.296023 0 3.63893
      vertex 0.376657 37 3.5372
      vertex 0.296023 37 3.63893
    endloop
  endfacet
  facet normal 0.783679 0 0.621166
    outer loop
      vertex 0.376657 37 3.5372
      vertex 0.296023 0 3.63893
      vertex 0.376657 0 3.5372
    endloop
  endfacet
  facet normal -0.268907 0 0.963166
    outer loop
      vertex 1.90394 16.9 3.04095
      vertex 2.02898 0 3.07586
      vertex 2.02898 16.9 3.07586
    endloop
  endfacet
  facet normal -0.268907 0 0.963166
    outer loop
      vertex 2.02898 0 3.07586
      vertex 1.90394 16.9 3.04095
      vertex 1.90394 0 3.04095
    endloop
  endfacet
  facet normal -0.268907 0 0.963166
    outer loop
      vertex 1.90394 31.9 3.04095
      vertex 2.02898 22 3.07586
      vertex 2.02898 31.9 3.07586
    endloop
  endfacet
  facet normal -0.268907 0 0.963166
    outer loop
      vertex 2.02898 22 3.07586
      vertex 1.90394 31.9 3.04095
      vertex 1.90394 22 3.04095
    endloop
  endfacet
  facet normal 0.146057 0 0.989276
    outer loop
      vertex 1.25956 37 3.02745
      vertex 1.38798 0 3.00849
      vertex 1.38798 37 3.00849
    endloop
  endfacet
  facet normal 0.146057 0 0.989276
    outer loop
      vertex 1.38798 0 3.00849
      vertex 1.25956 37 3.02745
      vertex 1.25956 0 3.02745
    endloop
  endfacet
  facet normal 0.463284 0 0.88621
    outer loop
      vertex 0.775 37 3.20766
      vertex 0.890041 0 3.14752
      vertex 0.890041 37 3.14752
    endloop
  endfacet
  facet normal 0.463284 0 0.88621
    outer loop
      vertex 0.890041 0 3.14752
      vertex 0.775 37 3.20766
      vertex 0.775 0 3.20766
    endloop
  endfacet
  facet normal 0.728963 -0 0.684553
    outer loop
      vertex 0.376657 0 3.5372
      vertex 0.465522 37 3.44257
      vertex 0.376657 37 3.5372
    endloop
  endfacet
  facet normal 0.728963 0 0.684553
    outer loop
      vertex 0.465522 37 3.44257
      vertex 0.376657 0 3.5372
      vertex 0.465522 0 3.44257
    endloop
  endfacet
  facet normal -0.187353 0 0.982293
    outer loop
      vertex 1.77643 16.9 3.01663
      vertex 1.90394 0 3.04095
      vertex 1.90394 16.9 3.04095
    endloop
  endfacet
  facet normal -0.187353 0 0.982293
    outer loop
      vertex 1.90394 0 3.04095
      vertex 1.77643 16.9 3.01663
      vertex 1.77643 0 3.01663
    endloop
  endfacet
  facet normal -0.187353 0 0.982293
    outer loop
      vertex 1.77643 31.9 3.01663
      vertex 1.90394 22 3.04095
      vertex 1.90394 31.9 3.04095
    endloop
  endfacet
  facet normal -0.187353 0 0.982293
    outer loop
      vertex 1.90394 22 3.04095
      vertex 1.77643 31.9 3.01663
      vertex 1.77643 22 3.01663
    endloop
  endfacet
  facet normal 0.996493 -0 0.0836751
    outer loop
      vertex 0.00135899 0 4.48509
      vertex 0.0122213 37 4.35573
      vertex 0.00135899 37 4.48509
    endloop
  endfacet
  facet normal 0.996493 0 0.0836751
    outer loop
      vertex 0.0122213 37 4.35573
      vertex 0.00135899 0 4.48509
      vertex 0.0122213 0 4.35573
    endloop
  endfacet
  facet normal 0.832933 -0 0.553373
    outer loop
      vertex 0.224185 0 3.74706
      vertex 0.296023 37 3.63893
      vertex 0.224185 37 3.74706
    endloop
  endfacet
  facet normal 0.832933 0 0.553373
    outer loop
      vertex 0.296023 37 3.63893
      vertex 0.224185 0 3.74706
      vertex 0.296023 0 3.63893
    endloop
  endfacet
  facet normal -0.855392 0 0.517981
    outer loop
      vertex 2.84103 0 3.69224
      vertex 2.90827 16.9 3.80328
      vertex 2.84103 16.9 3.69224
    endloop
  endfacet
  facet normal -0.855392 0 0.517981
    outer loop
      vertex 2.90827 16.9 3.80328
      vertex 2.84103 0 3.69224
      vertex 2.90827 0 3.80328
    endloop
  endfacet
  facet normal -0.855392 0 0.517981
    outer loop
      vertex 2.84103 22 3.69224
      vertex 2.90827 31.9 3.80328
      vertex 2.84103 31.9 3.69224
    endloop
  endfacet
  facet normal -0.855392 0 0.517981
    outer loop
      vertex 2.90827 31.9 3.80328
      vertex 2.84103 22 3.69224
      vertex 2.90827 22 3.80328
    endloop
  endfacet
  facet normal -0.104528 0 0.994522
    outer loop
      vertex 1.64732 16.9 3.00306
      vertex 1.77643 0 3.01663
      vertex 1.77643 16.9 3.01663
    endloop
  endfacet
  facet normal -0.104528 0 0.994522
    outer loop
      vertex 1.77643 0 3.01663
      vertex 1.64732 16.9 3.00306
      vertex 1.64732 0 3.00306
    endloop
  endfacet
  facet normal -0.104528 0 0.994522
    outer loop
      vertex 1.64732 31.9 3.00306
      vertex 1.77643 22 3.01663
      vertex 1.77643 31.9 3.01663
    endloop
  endfacet
  facet normal -0.104528 0 0.994522
    outer loop
      vertex 1.77643 22 3.01663
      vertex 1.64732 31.9 3.00306
      vertex 1.64732 22 3.00306
    endloop
  endfacet
  facet normal 0.308985 0 0.951067
    outer loop
      vertex 1.00971 37 3.09721
      vertex 1.13317 0 3.0571
      vertex 1.13317 37 3.0571
    endloop
  endfacet
  facet normal 0.308985 0 0.951067
    outer loop
      vertex 1.13317 0 3.0571
      vertex 1.00971 37 3.09721
      vertex 1.00971 0 3.09721
    endloop
  endfacet
  facet normal -0.570719 0 0.821145
    outer loop
      vertex 2.38053 16.9 3.24129
      vertex 2.48713 0 3.31538
      vertex 2.48713 16.9 3.31538
    endloop
  endfacet
  facet normal -0.570719 0 0.821145
    outer loop
      vertex 2.48713 0 3.31538
      vertex 2.38053 16.9 3.24129
      vertex 2.38053 0 3.24129
    endloop
  endfacet
  facet normal -0.570719 0 0.821145
    outer loop
      vertex 2.38053 31.9 3.24129
      vertex 2.48713 22 3.31538
      vertex 2.48713 31.9 3.31538
    endloop
  endfacet
  facet normal -0.570719 0 0.821145
    outer loop
      vertex 2.48713 22 3.31538
      vertex 2.38053 31.9 3.24129
      vertex 2.38053 22 3.24129
    endloop
  endfacet
  facet normal 0.985994 -0 0.16678
    outer loop
      vertex 0.0122213 0 4.35573
      vertex 0.0338707 37 4.22774
      vertex 0.0122213 37 4.35573
    endloop
  endfacet
  facet normal 0.985994 0 0.16678
    outer loop
      vertex 0.0338707 37 4.22774
      vertex 0.0122213 0 4.35573
      vertex 0.0338707 0 4.22774
    endloop
  endfacet
  facet normal -0.637407 0 0.770527
    outer loop
      vertex 2.48713 16.9 3.31538
      vertex 2.58715 0 3.39812
      vertex 2.58715 16.9 3.39812
    endloop
  endfacet
  facet normal -0.637407 0 0.770527
    outer loop
      vertex 2.58715 0 3.39812
      vertex 2.48713 16.9 3.31538
      vertex 2.48713 0 3.31538
    endloop
  endfacet
  facet normal -0.637407 0 0.770527
    outer loop
      vertex 2.48713 31.9 3.31538
      vertex 2.58715 22 3.39812
      vertex 2.58715 31.9 3.39812
    endloop
  endfacet
  facet normal -0.637407 0 0.770527
    outer loop
      vertex 2.58715 22 3.39812
      vertex 2.48713 31.9 3.31538
      vertex 2.48713 22 3.31538
    endloop
  endfacet
  facet normal -0.929773 0 0.368134
    outer loop
      vertex 2.96599 0 3.91956
      vertex 3.01378 16.9 4.04026
      vertex 2.96599 16.9 3.91956
    endloop
  endfacet
  facet normal -0.929773 0 0.368134
    outer loop
      vertex 3.01378 16.9 4.04026
      vertex 2.96599 0 3.91956
      vertex 3.01378 0 4.04026
    endloop
  endfacet
  facet normal -0.929773 0 0.368134
    outer loop
      vertex 2.96599 22 3.91956
      vertex 3.01378 31.9 4.04026
      vertex 2.96599 31.9 3.91956
    endloop
  endfacet
  facet normal -0.929773 0 0.368134
    outer loop
      vertex 3.01378 31.9 4.04026
      vertex 2.96599 22 3.91956
      vertex 3.01378 22 4.04026
    endloop
  endfacet
  facet normal -0.0209443 0 0.999781
    outer loop
      vertex 1.51754 37 3.00034
      vertex 1.55 31.9 3.00102
      vertex 1.55 37 3.00102
    endloop
  endfacet
  facet normal -0.0209443 0 0.999781
    outer loop
      vertex 1.55 31.9 3.00102
      vertex 1.51754 37 3.00034
      vertex 1.55 22 3.00102
    endloop
  endfacet
  facet normal -0.0209443 0 0.999781
    outer loop
      vertex 1.55 22 3.00102
      vertex 1.51754 37 3.00034
      vertex 1.55 16.9 3.00102
    endloop
  endfacet
  facet normal -0.0209572 0 0.99978
    outer loop
      vertex 1.55 31.9 3.00102
      vertex 1.64732 22 3.00306
      vertex 1.64732 31.9 3.00306
    endloop
  endfacet
  facet normal -0.0209572 0 0.99978
    outer loop
      vertex 1.64732 22 3.00306
      vertex 1.55 31.9 3.00102
      vertex 1.55 22 3.00102
    endloop
  endfacet
  facet normal -0.0209572 0 0.99978
    outer loop
      vertex 1.55 16.9 3.00102
      vertex 1.64732 0 3.00306
      vertex 1.64732 16.9 3.00306
    endloop
  endfacet
  facet normal -0.0209539 1.85982e-08 0.99978
    outer loop
      vertex 1.55 16.9 3.00102
      vertex 1.51754 0 3.00034
      vertex 1.64732 0 3.00306
    endloop
  endfacet
  facet normal -0.0209443 0 0.999781
    outer loop
      vertex 1.51754 0 3.00034
      vertex 1.55 16.9 3.00102
      vertex 1.51754 37 3.00034
    endloop
  endfacet
  facet normal 0.669161 0 0.743118
    outer loop
      vertex 0.465522 37 3.44257
      vertex 0.561993 0 3.3557
      vertex 0.561993 37 3.3557
    endloop
  endfacet
  facet normal 0.669161 0 0.743118
    outer loop
      vertex 0.561993 0 3.3557
      vertex 0.465522 37 3.44257
      vertex 0.465522 0 3.44257
    endloop
  endfacet
  facet normal 0.968585 -0 0.248685
    outer loop
      vertex 0.0338707 0 4.22774
      vertex 0.0661545 37 4.102
      vertex 0.0338707 37 4.22774
    endloop
  endfacet
  facet normal 0.968585 0 0.248685
    outer loop
      vertex 0.0661545 37 4.102
      vertex 0.0338707 0 4.22774
      vertex 0.0661545 0 4.102
    endloop
  endfacet
  facet normal -0.699673 0 0.714463
    outer loop
      vertex 2.58715 16.9 3.39812
      vertex 2.6799 0 3.48895
      vertex 2.6799 16.9 3.48895
    endloop
  endfacet
  facet normal -0.699673 0 0.714463
    outer loop
      vertex 2.6799 0 3.48895
      vertex 2.58715 16.9 3.39812
      vertex 2.58715 0 3.39812
    endloop
  endfacet
  facet normal -0.699673 0 0.714463
    outer loop
      vertex 2.58715 31.9 3.39812
      vertex 2.6799 22 3.48895
      vertex 2.6799 31.9 3.48895
    endloop
  endfacet
  facet normal -0.699673 0 0.714463
    outer loop
      vertex 2.6799 22 3.48895
      vertex 2.58715 31.9 3.39812
      vertex 2.58715 22 3.39812
    endloop
  endfacet
  facet normal 0.913545 -0 0.406739
    outer loop
      vertex 0.108846 0 3.97941
      vertex 0.161646 37 3.86082
      vertex 0.108846 37 3.97941
    endloop
  endfacet
  facet normal 0.913545 0 0.406739
    outer loop
      vertex 0.161646 37 3.86082
      vertex 0.108846 0 3.97941
      vertex 0.161646 0 3.86082
    endloop
  endfacet
  facet normal -0.757012 0 0.653401
    outer loop
      vertex 2.6799 0 3.48895
      vertex 2.76472 16.9 3.58722
      vertex 2.6799 16.9 3.48895
    endloop
  endfacet
  facet normal -0.757012 0 0.653401
    outer loop
      vertex 2.76472 16.9 3.58722
      vertex 2.6799 0 3.48895
      vertex 2.76472 0 3.58722
    endloop
  endfacet
  facet normal -0.757012 0 0.653401
    outer loop
      vertex 2.6799 22 3.48895
      vertex 2.76472 31.9 3.58722
      vertex 2.6799 31.9 3.48895
    endloop
  endfacet
  facet normal -0.757012 0 0.653401
    outer loop
      vertex 2.76472 31.9 3.58722
      vertex 2.6799 22 3.48895
      vertex 2.76472 22 3.58722
    endloop
  endfacet
  facet normal -0 0 1
    outer loop
      vertex 1.55 22 3
      vertex 3.1 16.9 3
      vertex 3.1 22 3
    endloop
  endfacet
  facet normal 0 0 1
    outer loop
      vertex 3.1 16.9 3
      vertex 1.55 22 3
      vertex 1.55 16.9 3
    endloop
  endfacet
  facet normal 1 -0 0
    outer loop
      vertex 1.55 16.9 3.00102
      vertex 1.55 22 3
      vertex 1.55 22 3.00102
    endloop
  endfacet
  facet normal 1 0 0
    outer loop
      vertex 1.55 22 3
      vertex 1.55 16.9 3.00102
      vertex 1.55 16.9 3
    endloop
  endfacet
  facet normal 0 -1 0
    outer loop
      vertex 1.55 22 3
      vertex 1.64732 22 3.00306
      vertex 1.55 22 3.00102
    endloop
  endfacet
  facet normal 0 -1 0
    outer loop
      vertex 3.09456 22 4.4203
      vertex 3.1 22 3
      vertex 3.1 22 4.55
    endloop
  endfacet
  facet normal 0 -1 0
    outer loop
      vertex 3.07829 22 4.29151
      vertex 3.1 22 3
      vertex 3.09456 22 4.4203
    endloop
  endfacet
  facet normal 0 -1 0
    outer loop
      vertex 3.0513 22 4.16453
      vertex 3.1 22 3
      vertex 3.07829 22 4.29151
    endloop
  endfacet
  facet normal 0 -1 0
    outer loop
      vertex 3.01378 22 4.04026
      vertex 3.1 22 3
      vertex 3.0513 22 4.16453
    endloop
  endfacet
  facet normal 0 -1 0
    outer loop
      vertex 2.96599 22 3.91956
      vertex 3.1 22 3
      vertex 3.01378 22 4.04026
    endloop
  endfacet
  facet normal 0 -1 0
    outer loop
      vertex 2.90827 22 3.80328
      vertex 3.1 22 3
      vertex 2.96599 22 3.91956
    endloop
  endfacet
  facet normal 0 -1 0
    outer loop
      vertex 2.84103 22 3.69224
      vertex 3.1 22 3
      vertex 2.90827 22 3.80328
    endloop
  endfacet
  facet normal 0 -1 0
    outer loop
      vertex 2.76472 22 3.58722
      vertex 3.1 22 3
      vertex 2.84103 22 3.69224
    endloop
  endfacet
  facet normal 0 -1 0
    outer loop
      vertex 2.6799 22 3.48895
      vertex 3.1 22 3
      vertex 2.76472 22 3.58722
    endloop
  endfacet
  facet normal 0 -1 0
    outer loop
      vertex 2.58715 22 3.39812
      vertex 3.1 22 3
      vertex 2.6799 22 3.48895
    endloop
  endfacet
  facet normal 0 -1 0
    outer loop
      vertex 2.48713 22 3.31538
      vertex 3.1 22 3
      vertex 2.58715 22 3.39812
    endloop
  endfacet
  facet normal 0 -1 0
    outer loop
      vertex 2.38053 22 3.24129
      vertex 3.1 22 3
      vertex 2.48713 22 3.31538
    endloop
  endfacet
  facet normal 0 -1 0
    outer loop
      vertex 2.26811 22 3.17638
      vertex 3.1 22 3
      vertex 2.38053 22 3.24129
    endloop
  endfacet
  facet normal 0 -1 0
    outer loop
      vertex 2.15065 22 3.12111
      vertex 3.1 22 3
      vertex 2.26811 22 3.17638
    endloop
  endfacet
  facet normal 0 -1 0
    outer loop
      vertex 2.02898 22 3.07586
      vertex 3.1 22 3
      vertex 2.15065 22 3.12111
    endloop
  endfacet
  facet normal 0 -1 0
    outer loop
      vertex 1.90394 22 3.04095
      vertex 3.1 22 3
      vertex 2.02898 22 3.07586
    endloop
  endfacet
  facet normal 0 -1 0
    outer loop
      vertex 1.77643 22 3.01663
      vertex 3.1 22 3
      vertex 1.90394 22 3.04095
    endloop
  endfacet
  facet normal 0 -1 0
    outer loop
      vertex 1.64732 22 3.00306
      vertex 3.1 22 3
      vertex 1.77643 22 3.01663
    endloop
  endfacet
  facet normal 0 -1 0
    outer loop
      vertex 3.1 22 3
      vertex 1.64732 22 3.00306
      vertex 1.55 22 3
    endloop
  endfacet
  facet normal 0 1 -0
    outer loop
      vertex 3.1 16.9 3
      vertex 3.09456 16.9 4.4203
      vertex 3.1 16.9 4.55
    endloop
  endfacet
  facet normal 0 1 0
    outer loop
      vertex 3.1 16.9 3
      vertex 3.07829 16.9 4.29151
      vertex 3.09456 16.9 4.4203
    endloop
  endfacet
  facet normal 0 1 0
    outer loop
      vertex 3.1 16.9 3
      vertex 3.0513 16.9 4.16453
      vertex 3.07829 16.9 4.29151
    endloop
  endfacet
  facet normal 0 1 0
    outer loop
      vertex 3.1 16.9 3
      vertex 3.01378 16.9 4.04026
      vertex 3.0513 16.9 4.16453
    endloop
  endfacet
  facet normal 0 1 0
    outer loop
      vertex 3.1 16.9 3
      vertex 2.96599 16.9 3.91956
      vertex 3.01378 16.9 4.04026
    endloop
  endfacet
  facet normal 0 1 0
    outer loop
      vertex 3.1 16.9 3
      vertex 2.90827 16.9 3.80328
      vertex 2.96599 16.9 3.91956
    endloop
  endfacet
  facet normal 0 1 0
    outer loop
      vertex 3.1 16.9 3
      vertex 2.84103 16.9 3.69224
      vertex 2.90827 16.9 3.80328
    endloop
  endfacet
  facet normal 0 1 0
    outer loop
      vertex 3.1 16.9 3
      vertex 2.76472 16.9 3.58722
      vertex 2.84103 16.9 3.69224
    endloop
  endfacet
  facet normal 0 1 0
    outer loop
      vertex 3.1 16.9 3
      vertex 2.6799 16.9 3.48895
      vertex 2.76472 16.9 3.58722
    endloop
  endfacet
  facet normal 0 1 0
    outer loop
      vertex 3.1 16.9 3
      vertex 2.58715 16.9 3.39812
      vertex 2.6799 16.9 3.48895
    endloop
  endfacet
  facet normal 0 1 0
    outer loop
      vertex 3.1 16.9 3
      vertex 2.48713 16.9 3.31538
      vertex 2.58715 16.9 3.39812
    endloop
  endfacet
  facet normal 0 1 0
    outer loop
      vertex 3.1 16.9 3
      vertex 2.38053 16.9 3.24129
      vertex 2.48713 16.9 3.31538
    endloop
  endfacet
  facet normal 0 1 0
    outer loop
      vertex 3.1 16.9 3
      vertex 2.26811 16.9 3.17638
      vertex 2.38053 16.9 3.24129
    endloop
  endfacet
  facet normal 0 1 0
    outer loop
      vertex 3.1 16.9 3
      vertex 2.15065 16.9 3.12111
      vertex 2.26811 16.9 3.17638
    endloop
  endfacet
  facet normal 0 1 0
    outer loop
      vertex 3.1 16.9 3
      vertex 2.02898 16.9 3.07586
      vertex 2.15065 16.9 3.12111
    endloop
  endfacet
  facet normal 0 1 0
    outer loop
      vertex 3.1 16.9 3
      vertex 1.90394 16.9 3.04095
      vertex 2.02898 16.9 3.07586
    endloop
  endfacet
  facet normal 0 1 0
    outer loop
      vertex 3.1 16.9 3
      vertex 1.77643 16.9 3.01663
      vertex 1.90394 16.9 3.04095
    endloop
  endfacet
  facet normal 0 1 0
    outer loop
      vertex 3.1 16.9 3
      vertex 1.64732 16.9 3.00306
      vertex 1.77643 16.9 3.01663
    endloop
  endfacet
  facet normal 0 1 0
    outer loop
      vertex 1.55 16.9 3
      vertex 1.64732 16.9 3.00306
      vertex 3.1 16.9 3
    endloop
  endfacet
  facet normal 0 1 0
    outer loop
      vertex 1.64732 16.9 3.00306
      vertex 1.55 16.9 3
      vertex 1.55 16.9 3.00102
    endloop
  endfacet
  facet normal -0 0 1
    outer loop
      vertex 1.55 37 3
      vertex 3.1 31.9 3
      vertex 3.1 37 3
    endloop
  endfacet
  facet normal 0 0 1
    outer loop
      vertex 3.1 31.9 3
      vertex 1.55 37 3
      vertex 1.55 31.9 3
    endloop
  endfacet
  facet normal 1 -0 0
    outer loop
      vertex 1.55 31.9 3.00102
      vertex 1.55 37 3
      vertex 1.55 37 3.00102
    endloop
  endfacet
  facet normal 1 0 0
    outer loop
      vertex 1.55 37 3
      vertex 1.55 31.9 3.00102
      vertex 1.55 31.9 3
    endloop
  endfacet
  facet normal 0 1 -0
    outer loop
      vertex 3.1 31.9 3
      vertex 3.09456 31.9 4.4203
      vertex 3.1 31.9 4.55
    endloop
  endfacet
  facet normal 0 1 0
    outer loop
      vertex 3.1 31.9 3
      vertex 3.07829 31.9 4.29151
      vertex 3.09456 31.9 4.4203
    endloop
  endfacet
  facet normal 0 1 0
    outer loop
      vertex 3.1 31.9 3
      vertex 3.0513 31.9 4.16453
      vertex 3.07829 31.9 4.29151
    endloop
  endfacet
  facet normal 0 1 0
    outer loop
      vertex 3.1 31.9 3
      vertex 3.01378 31.9 4.04026
      vertex 3.0513 31.9 4.16453
    endloop
  endfacet
  facet normal 0 1 0
    outer loop
      vertex 3.1 31.9 3
      vertex 2.96599 31.9 3.91956
      vertex 3.01378 31.9 4.04026
    endloop
  endfacet
  facet normal 0 1 0
    outer loop
      vertex 3.1 31.9 3
      vertex 2.90827 31.9 3.80328
      vertex 2.96599 31.9 3.91956
    endloop
  endfacet
  facet normal 0 1 0
    outer loop
      vertex 3.1 31.9 3
      vertex 2.84103 31.9 3.69224
      vertex 2.90827 31.9 3.80328
    endloop
  endfacet
  facet normal 0 1 0
    outer loop
      vertex 3.1 31.9 3
      vertex 2.76472 31.9 3.58722
      vertex 2.84103 31.9 3.69224
    endloop
  endfacet
  facet normal 0 1 0
    outer loop
      vertex 3.1 31.9 3
      vertex 2.6799 31.9 3.48895
      vertex 2.76472 31.9 3.58722
    endloop
  endfacet
  facet normal 0 1 0
    outer loop
      vertex 3.1 31.9 3
      vertex 2.58715 31.9 3.39812
      vertex 2.6799 31.9 3.48895
    endloop
  endfacet
  facet normal 0 1 0
    outer loop
      vertex 3.1 31.9 3
      vertex 2.48713 31.9 3.31538
      vertex 2.58715 31.9 3.39812
    endloop
  endfacet
  facet normal 0 1 0
    outer loop
      vertex 3.1 31.9 3
      vertex 2.38053 31.9 3.24129
      vertex 2.48713 31.9 3.31538
    endloop
  endfacet
  facet normal 0 1 0
    outer loop
      vertex 3.1 31.9 3
      vertex 2.26811 31.9 3.17638
      vertex 2.38053 31.9 3.24129
    endloop
  endfacet
  facet normal 0 1 0
    outer loop
      vertex 3.1 31.9 3
      vertex 2.15065 31.9 3.12111
      vertex 2.26811 31.9 3.17638
    endloop
  endfacet
  facet normal 0 1 0
    outer loop
      vertex 3.1 31.9 3
      vertex 2.02898 31.9 3.07586
      vertex 2.15065 31.9 3.12111
    endloop
  endfacet
  facet normal 0 1 0
    outer loop
      vertex 3.1 31.9 3
      vertex 1.90394 31.9 3.04095
      vertex 2.02898 31.9 3.07586
    endloop
  endfacet
  facet normal 0 1 0
    outer loop
      vertex 3.1 31.9 3
      vertex 1.77643 31.9 3.01663
      vertex 1.90394 31.9 3.04095
    endloop
  endfacet
  facet normal 0 1 0
    outer loop
      vertex 3.1 31.9 3
      vertex 1.64732 31.9 3.00306
      vertex 1.77643 31.9 3.01663
    endloop
  endfacet
  facet normal 0 1 0
    outer loop
      vertex 1.55 31.9 3
      vertex 1.64732 31.9 3.00306
      vertex 3.1 31.9 3
    endloop
  endfacet
  facet normal 0 1 0
    outer loop
      vertex 1.64732 31.9 3.00306
      vertex 1.55 31.9 3
      vertex 1.55 31.9 3.00102
    endloop
  endfacet
endsolid OpenSCAD_Model
